<?xml version="1.0" encoding="UTF-8"?><svg id="Layer_2" xmlns="http://www.w3.org/2000/svg" viewBox="0 0 2145.48 3006.14"><defs><style>.cls-1,.cls-2{fill:none;stroke:#8fd4d7;stroke-miterlimit:10;stroke-width:3px;}.cls-2{opacity:.27;}.cls-3{opacity:.14;}</style></defs><g id="Climate"><g class="cls-3"><path class="cls-1" d="M1332.29,1209.42c-31.04,1.07-60.8,12.42-91.61,16.33-60.88,7.73-124.9-15.8-166.28-61.12-19.91-21.8-34.69-48.05-55.85-68.63-36.78-35.77-89.8-50.94-141.1-51.58-51.31-.65-101.78,11.8-151.47,24.6-39.55,10.19-79.25,20.75-116.41,37.7-55.78,25.46-108.48,65.94-169.8,65.76-47.14-.14-90.62-24.72-137.01-33.1-46.39-8.38-105.84,9.62-113.92,56.07-8.79,50.57,47.89,87.58,63.33,136.54,14.4,45.67-9.23,94.2-35.83,134.01-26.61,39.81-58.09,80.08-61.44,127.85-4.22,60.14,37.12,112.99,77.46,157.8,104.57,116.13,232.09,230.12,387.93,241.7,61.15,4.54,125.94-6.74,181.56,19.07,38.19,17.73,66.63,50.69,96.71,80.16,69.74,68.34,155.9,122.51,251.56,142.12,95.66,19.6,201.13,1.65,277.3-59.45,84.22-67.55,130.55-182.75,230.74-222.99,68.47-27.5,158.21-18.37,202.62-77.3,13.68-18.16,20.59-40.45,26.04-62.53,7.53-30.51,12.75-61.59,15.6-92.89,2.39-26.18,1.69-56.16-17.73-73.89-22.04-20.12-57.13-14.66-84.26-27.09-40.21-18.42-52.06-69.01-57.7-112.88-5.64-43.87-13.79-94.14-51.59-117.11-59.32-36.04-131.73,7.15-176.61-59.55-41.94-62.33-100.18-122.42-182.26-119.6Z"/><path class="cls-1" d="M184.29,1178.01c-9.22,31.95,7.52,61.69,25.86,93.6,8.99,15.79,18.05,31.97,23.42,49.26,5.4,17.36,6.67,34.96,5.24,52.22-2.57,31.21-13.78,61.68-29.04,89.77-23.78,43.45-59.27,86.03-64.34,136.39-5.86,58.15,32.56,109.9,69.82,154.17,96.57,114.63,218.79,220.31,367.42,243.04,49.87,7.63,103.92,7.54,154.85,13.37,18.18,2.1,36.06,5.33,53.26,11.66,9.62,3.52,18.79,7.92,27.59,13.22,32.32,19.48,57.58,50.12,85.3,76.37,70.57,66.83,156.89,119.11,252.31,136.66,21.33,3.92,43.11,6,64.9,6.19,75.68,.63,151.61-21.54,210.76-68.45,33.9-26.89,61.99-61.14,89.74-95.3,41.19-50.71,81.8-101.29,141.05-125.84,5.49-2.27,11.11-4.31,16.83-6.17,65.04-21.1,142.86-18.8,185.02-71.28,15.01-18.68,23.38-41.75,29.9-64.85,9.04-31.98,15.27-65.22,17.93-98.44,2.23-27.97,.55-59.27-19.93-78.46-18.55-17.29-45.86-17.99-69.85-25.72-5.19-1.68-10.21-3.67-14.98-6.21-32.64-17.33-46.17-55.6-54.67-93.25-1.85-8.15-3.46-16.25-4.94-24.11-8.26-44.23-20.38-92.99-59.78-116.07-34.9-20.44-73.93-16.01-109.18-22.12-25.21-4.39-48.36-14.16-66.98-41.64-2.91-4.28-5.88-8.56-8.93-12.81-41.46-57.9-96.46-111.3-172.24-111.32-10.18-.03-20.28,1.02-30.36,2.6-20.55,3.22-40.95,8.65-61.78,10.97-15.27,1.71-30.72,1.62-45.97-.26-46.69-5.8-89.56-28.23-121.05-62.32-8.12-8.79-15.49-18.28-22.86-27.82-10.82-14.03-21.58-28.05-34.5-40.08-37.69-35.1-90.97-50.12-142.59-50.71-51.19-.59-101.55,11.66-151.03,24.74-39.37,10.4-78.79,21.44-115.74,38.58-6.23,2.89-12.42,5.96-18.59,9.14-48.68,25.07-96.11,56.87-149.93,58.52-46.74,1.5-90.19-20.02-136.5-27.69-9.22-1.53-18.92-2.13-28.64-1.82-39.01,1.3-76.95,18.03-86.83,52.26Z"/><path class="cls-1" d="M179.75,1160.57c-12.71,30.25-2.49,61.61,13.27,96.09,7.81,17.1,16.3,34.66,21.95,53.1,5.64,18.38,7.91,36.9,8.03,54.88,.21,32.74-6.27,64.53-19.78,95.1-20.83,47.15-60.36,91.93-67.24,144.93-7.28,56.15,28.01,106.81,62.17,150.54,88.56,113.12,205.74,213.1,346.91,244.37,55.07,12.2,115.87,16.97,173.88,21.33,20.62,1.58,41.07,3.81,60.78,9.66,11.07,3.25,21.7,7.56,31.91,13.16,37.48,20.58,65.33,56.56,97.17,85.87,71.18,65.53,157.87,115.7,253.06,131.21,21.28,3.47,42.95,5.12,64.61,4.92,75.21-.71,150.26-23.61,209.41-70.01,33.93-26.6,62.35-60.23,90.27-93.94,41.38-49.99,81.95-100.31,140.58-125.36,5.43-2.32,11-4.42,16.67-6.34,64.39-21.74,141.05-20.4,184.4-71.26,16.36-19.19,26.16-43.05,33.75-67.17,10.55-33.46,17.79-68.85,20.26-103.99,2.07-29.75-.53-62.42-22.14-83.03-18.94-18.07-46.65-20.19-70.54-29.53-5.17-2.03-10.15-4.38-14.86-7.24-32.2-19.51-45.37-59.12-55.34-97.38-2.18-8.31-4.21-16.52-6.18-24.47-10.88-44.6-26.97-91.85-67.96-115.02-35.19-19.89-74.22-16.92-109.27-24.52-25.09-5.46-47.92-16.3-66.46-43.45-2.95-4.3-5.95-8.6-9.01-12.88-41.74-58.27-95.97-112.9-171.05-115.78-10.16-.39-20.27,.23-30.42,1.44-20.67,2.48-41.26,7.35-62.25,9.38-15.38,1.49-30.93,1.33-46.26-.63-47.7-6.15-89.59-29.28-121.49-63.41-8.2-8.78-15.74-18.21-23.33-27.69-11.12-13.91-22.29-27.67-35.53-39.47-38.6-34.43-92.15-49.3-144.07-49.83-51.07-.53-101.31,11.53-150.6,24.88-39.19,10.61-78.33,22.14-115.07,39.46-6.2,2.92-12.36,6.02-18.49,9.21-48.32,25.17-95.54,56.87-148.75,60.35-46.33,3.14-89.76-15.32-135.99-22.28-9.22-1.38-18.88-1.98-28.57-1.78-38.73,.85-75.39,15.53-88.44,46.6Z"/><path class="cls-1" d="M175.2,1143.12c-16.44,28.73-12.57,61.57,.68,98.57,6.6,18.43,14.55,37.34,20.49,56.94,5.89,19.41,9.16,38.85,10.81,57.54,3.01,34.27,1.18,67.34-10.53,100.42-17.97,50.79-61.37,97.81-70.14,153.46-8.53,54.15,23.45,103.72,54.53,146.91,80.55,111.62,192.66,207.87,326.4,245.71,60.45,17.1,127.82,26.4,192.91,29.29,23.07,1.06,46.08,2.29,68.29,7.65,12.52,2.98,24.6,7.2,36.22,13.1,42.64,21.68,73.04,63.03,109.03,95.37,71.64,64.37,158.85,112.3,253.81,125.76,21.22,3.01,42.79,4.24,64.31,3.65,74.73-2.04,148.91-25.69,208.07-71.56,33.96-26.32,62.72-59.32,90.81-92.59,41.57-49.26,82.1-99.33,140.1-124.88,5.38-2.37,10.9-4.53,16.52-6.51,63.73-22.37,139.34-21.92,183.79-71.24,17.75-19.69,28.94-44.34,37.6-69.49,12.06-34.93,20.3-72.47,22.59-109.54,1.92-31.53-1.65-65.54-24.34-87.6-19.36-18.82-47.45-22.39-71.22-33.34-5.15-2.38-10.09-5.09-14.73-8.28-31.75-21.69-44.57-62.64-56.02-101.51-2.52-8.47-4.97-16.79-7.41-24.83-13.51-44.96-33.54-90.73-76.15-113.98-35.46-19.34-74.5-17.84-109.35-26.91-24.97-6.53-47.47-18.44-65.93-45.27-2.98-4.32-6.01-8.64-9.09-12.94-42.02-58.65-95.49-114.64-169.87-120.24-10.14-.76-20.27-.56-30.49,.28-20.79,1.73-41.57,6.06-62.72,7.79-15.49,1.27-31.13,1.04-46.55-1-48.7-6.51-89.63-30.32-121.94-64.51-8.27-8.76-15.98-18.14-23.81-27.57-11.42-13.78-23.01-27.29-36.56-38.87-39.51-33.77-93.32-48.49-145.55-48.95-50.96-.47-101.07,11.39-150.16,25.01-39.01,10.82-77.87,22.84-114.4,40.34-6.17,2.95-12.29,6.07-18.39,9.29-47.97,25.27-94.97,56.88-147.56,62.17-45.93,4.77-89.33-10.61-135.48-16.87-9.21-1.24-18.84-1.82-28.5-1.74-38.45,.39-74.14,13.13-90.06,40.95Z"/><path class="cls-1" d="M170.65,1125.68c-20.47,27.3-22.66,61.55-11.91,101.06,5.38,19.77,12.81,40.02,19.02,60.78,6.13,20.43,10.43,40.8,13.59,60.2,5.83,35.81,8.62,70.14-1.27,105.75-15.11,54.43-62.29,103.69-73.04,162-9.61,52.15,18.9,100.63,46.88,143.28,72.54,110.11,179.4,204.1,305.89,247.04,65.87,22.36,139.77,35.82,211.95,37.25,25.51,.54,51.08,.78,75.81,5.65,13.97,2.71,27.5,6.84,40.54,13.04,47.8,22.78,80.72,69.54,120.9,104.87,72.01,63.31,159.83,108.89,254.55,120.3,21.17,2.55,42.64,3.36,64.02,2.38,74.26-3.38,147.55-27.76,206.72-73.12,33.98-26.04,63.08-58.41,91.34-91.23,41.75-48.54,82.26-98.35,139.63-124.39,5.33-2.43,10.79-4.64,16.36-6.67,63.08-23.01,137.73-23.38,183.17-71.23,19.16-20.17,31.73-45.64,41.46-71.81,13.57-36.4,22.82-76.1,24.92-115.09,1.76-33.31-2.78-68.66-26.55-92.17-19.78-19.57-48.24-24.59-71.91-37.14-5.14-2.74-10.02-5.79-14.61-9.31-31.31-23.87-43.77-66.15-56.69-105.63-2.85-8.63-5.74-17.06-8.65-25.19-16.23-45.29-40.1-89.63-84.34-112.93-35.73-18.82-74.79-18.76-109.43-29.3-24.85-7.6-47.03-20.57-65.4-47.08-3.02-4.34-6.08-8.68-9.18-13.01-42.3-59.03-95.01-116.4-168.69-124.71-10.12-1.14-20.27-1.35-30.56-.88-20.9,.99-41.88,4.76-63.18,6.19-15.6,1.05-31.34,.75-46.85-1.36-49.7-6.86-89.66-31.36-122.38-65.6-8.35-8.75-16.22-18.08-24.29-27.45-11.72-13.66-23.73-26.91-37.59-38.26-40.41-33.1-94.5-47.67-147.04-48.07-50.84-.41-100.84,11.26-149.72,25.15-38.83,11.03-77.41,23.54-113.73,41.22-6.14,2.99-12.23,6.13-18.29,9.36-47.61,25.37-94.41,56.79-146.38,64-45.54,6.32-88.91-5.91-134.96-11.46-9.21-1.1-18.8-1.66-28.43-1.7-38.17-.06-73.25,10.72-91.67,35.29Z"/><path class="cls-1" d="M166.1,1108.24c-24.81,25.81-32.77,61.53-24.5,103.54,4.16,21.11,11.06,42.71,17.56,64.62,6.38,21.46,11.7,42.74,16.37,62.86,8.67,37.34,16.05,72.94,7.99,111.07-12.28,58.06-63.1,109.56-75.94,170.54-10.56,50.17,14.34,97.54,39.24,139.64,64.54,108.61,165.91,201.41,285.38,248.38,71.24,28,151.71,45.25,230.98,45.21,27.96,.03,56.09-.74,83.32,3.64,15.42,2.44,30.41,6.48,44.85,12.98,52.96,23.88,88.36,76.08,132.77,114.36,72.3,62.33,160.82,105.49,255.3,114.85,21.11,2.09,42.48,2.47,63.73,1.11,73.78-4.72,146.2-29.84,205.37-74.67,34.01-25.76,63.45-57.5,91.87-89.87,41.94-47.82,82.41-97.36,139.15-123.91,5.28-2.48,10.69-4.75,16.2-6.84,62.42-23.65,136.2-24.78,182.56-71.21,20.6-20.63,34.51-46.94,45.31-74.13,15.08-37.87,25.34-79.73,27.25-120.64,1.6-35.09-3.91-71.77-28.75-96.74-20.21-20.31-49.03-26.79-72.6-40.95-5.12-3.09-9.96-6.5-14.49-10.35-30.87-26.05-42.97-69.67-57.36-109.76-3.19-8.79-6.49-17.33-9.89-25.55-18.85-45.64-46.65-88.54-92.53-111.89-35.98-18.31-75.07-19.68-109.52-31.69-24.73-8.67-46.58-22.71-64.88-48.9-3.06-4.36-6.14-8.72-9.26-13.07-42.58-59.41-94.53-118.18-167.5-129.17-10.09-1.52-20.27-2.14-30.62-2.04-21.02,.24-42.19,3.47-63.65,4.6-15.71,.83-31.54,.46-47.14-1.73-50.71-7.21-89.69-32.4-122.83-66.7-8.43-8.73-16.46-18.01-24.76-27.32-12.03-13.54-24.45-26.53-38.62-37.65-41.32-32.43-95.67-46.85-148.52-47.19-50.72-.35-100.6,11.12-149.29,25.29-38.65,11.24-76.95,24.24-113.06,42.1-6.1,3.02-12.16,6.18-18.19,9.43-47.25,25.47-93.85,56.78-145.19,65.82-45.14,7.94-88.48-1.21-134.45-6.05-9.21-.96-18.77-1.51-28.37-1.66-37.89-.51-72.69,8.21-93.29,29.63Z"/><path class="cls-1" d="M161.56,1090.79c-29.43,24.13-42.88,61.51-37.09,106.03,2.92,22.45,9.31,45.39,16.1,68.46,6.62,22.48,12.98,44.69,19.15,65.53,11.52,38.87,23.48,75.74,17.24,116.4-9.45,61.69-63.79,115.46-78.84,179.08-11.4,48.2,9.79,94.45,31.6,136.01,56.53,107.1,152.14,199.5,264.87,249.71,76.47,34.06,163.66,54.68,250.02,53.17,30.4-.49,61.09-2.26,90.84,1.64,16.87,2.17,33.31,6.11,49.17,12.92,58.13,24.98,95.97,82.66,144.64,123.86,72.55,61.41,161.8,102.08,256.05,109.4,21.06,1.64,42.32,1.59,63.43-.15,73.3-6.05,144.85-31.91,204.02-76.22,34.04-25.48,63.82-56.59,92.41-88.51,42.13-47.09,82.56-96.38,138.68-123.43,5.23-2.53,10.58-4.85,16.05-7,61.77-24.28,134.72-26.12,181.94-71.19,22.07-21.06,37.29-48.24,49.16-76.46,16.59-39.34,27.86-83.36,29.58-126.19,1.45-36.87-5.04-74.87-30.96-101.31-20.64-21.05-49.82-28.99-73.29-44.76-5.1-3.45-9.9-7.21-14.37-11.38-30.43-28.23-42.18-73.19-58.04-113.88-3.52-8.95-7.24-17.61-11.12-25.91-21.48-46-53.19-87.47-100.72-110.84-36.23-17.82-75.35-20.59-109.6-34.09-24.61-9.75-46.14-24.85-64.35-50.71-3.1-4.38-6.21-8.76-9.35-13.14-42.86-59.79-94.06-119.98-166.32-133.64-10.07-1.9-20.27-2.93-30.69-3.2-21.14-.5-42.5,2.17-64.12,3-15.82,.61-31.74,.16-47.43-2.09-51.71-7.56-89.72-33.44-123.27-67.8-8.5-8.72-16.7-17.95-25.24-27.2-12.33-13.42-25.17-26.15-39.65-37.04-42.23-31.76-96.85-46.04-150-46.32-50.61-.29-100.37,10.99-148.85,25.42-38.47,11.45-76.49,24.94-112.39,42.98-6.07,3.05-12.1,6.24-18.09,9.51-46.9,25.58-93.28,56.79-144.01,67.64-44.74,9.58-88.05,3.49-133.94-.64-9.2-.82-18.73-1.35-28.3-1.62-37.61-.97-72.38,5.51-94.9,23.97Z"/><path class="cls-1" d="M157.01,1073.35c-34.25,22.15-53.01,61.49-49.68,108.51,1.69,23.79,7.57,48.08,14.63,72.3,6.87,23.51,14.26,46.63,21.93,68.19,14.38,40.4,30.89,78.54,26.5,121.72-6.64,65.31-64.36,121.38-81.74,187.62-12.14,46.26,5.23,91.36,23.95,132.38,48.52,105.6,138.09,198.15,244.36,251.04,81.48,40.55,175.61,64.11,269.05,61.13,32.85-1.01,66.1-3.78,98.36-.37,18.32,1.9,36.21,5.75,53.48,12.86,63.29,26.07,103.55,89.28,156.51,133.36,72.75,60.55,162.78,98.68,256.79,103.94,21,1.18,42.17,.71,63.14-1.42,72.83-7.39,143.5-33.99,202.68-77.78,34.06-25.2,64.18-55.68,92.94-87.16,42.32-46.37,82.72-95.4,138.2-122.95,5.18-2.58,10.48-4.96,15.89-7.17,61.11-24.92,133.3-27.41,181.32-71.17,23.56-21.47,40.07-49.53,53.02-78.78,18.1-40.82,30.38-86.98,31.91-131.74,1.29-38.66-6.18-77.98-33.16-105.88-21.07-21.79-50.61-31.19-73.98-48.57-5.09-3.8-9.83-7.91-14.25-12.42-29.98-30.41-41.38-76.71-58.71-118.01-3.86-9.11-7.99-17.88-12.36-26.27-24.09-46.36-59.72-86.42-108.91-109.8-36.47-17.33-75.64-21.51-109.68-36.48-24.49-10.82-45.69-26.98-63.82-52.53-3.14-4.39-6.28-8.8-9.43-13.21-43.14-60.17-93.58-121.81-165.14-138.1-10.05-2.29-20.26-3.73-30.75-4.36-21.26-1.25-42.81,.87-64.59,1.41-15.93,.4-31.95-.13-47.73-2.46-52.71-7.91-89.75-34.48-123.72-68.89-8.58-8.71-16.95-17.88-25.72-27.08-12.63-13.3-25.88-25.77-40.68-36.43-43.14-31.09-98.02-45.22-151.49-45.44-50.49-.23-100.13,10.85-148.42,25.56-38.29,11.66-76.03,25.64-111.72,43.86-6.04,3.08-12.04,6.29-18,9.58-46.54,25.68-92.71,56.8-142.82,69.47-44.34,11.21-87.62,8.19-133.43,4.77-9.2-.68-18.69-1.19-28.23-1.58-37.33-1.42-72.22,2.6-96.51,18.31Z"/><path class="cls-1" d="M152.46,1055.9c-39.18,19.83-63.14,61.47-62.26,110.99,.45,25.13,5.82,50.76,13.17,76.14,7.12,24.54,15.55,48.57,24.72,70.85,17.25,41.92,38.3,81.34,35.76,127.05-3.84,68.94-64.8,127.34-84.64,196.16-12.79,44.34,.68,88.27,16.31,128.75,40.51,104.1,123.75,197.21,223.84,252.38,86.2,47.51,187.56,73.54,288.08,69.09,35.29-1.53,71.1-5.3,105.87-2.37,19.77,1.63,39.11,5.39,57.79,12.81,68.45,27.17,111.1,95.95,168.38,142.86,72.92,59.72,163.76,95.27,257.54,98.49,20.95,.72,42.01-.18,62.85-2.69,72.35-8.72,142.14-36.06,201.33-79.33,34.09-24.91,64.55-54.77,93.47-85.8,42.51-45.65,82.87-94.42,137.73-122.46,5.13-2.63,10.37-5.07,15.73-7.34,60.45-25.56,131.92-28.64,180.71-71.16,25.08-21.85,42.86-50.83,56.87-81.1,19.61-42.29,32.89-90.61,34.24-137.29,1.13-40.44-7.32-81.08-35.37-110.45-21.51-22.53-51.4-33.39-74.66-52.38-5.07-4.15-9.77-8.62-14.13-13.45-29.54-32.59-40.58-80.23-59.39-122.13-4.19-9.27-8.73-18.16-13.59-26.63-26.61-46.77-66.24-85.38-117.1-108.75-36.71-16.87-75.92-22.43-109.77-38.87-24.37-11.89-45.25-29.12-63.3-54.34-3.17-4.41-6.34-8.85-9.52-13.27-43.42-60.54-93.09-123.65-163.96-142.56-10.03-2.68-20.26-4.52-30.82-5.51-21.37-1.99-43.12-.42-65.05-.18-16.03,.18-32.15-.42-48.02-2.83-53.72-8.27-89.79-35.52-124.16-69.99-8.66-8.69-17.19-17.81-26.19-26.95-12.93-13.18-26.6-25.39-41.71-35.83-44.04-30.42-99.2-44.4-152.97-44.56-50.38-.17-99.9,10.72-147.98,25.7-38.11,11.87-75.57,26.34-111.05,44.74-6.01,3.12-11.97,6.35-17.9,9.66-46.18,25.78-92.15,56.81-141.64,71.29-43.93,12.86-87.2,12.89-132.92,10.18-9.2-.54-18.65-1.04-28.16-1.54-37.05-1.87-72.1-.52-98.13,12.65Z"/><path class="cls-1" d="M147.92,1038.46c-44.12,17.16-73.29,61.45-74.85,113.48-.8,26.47,4.07,53.45,11.7,79.98,7.36,25.56,16.84,50.51,27.5,73.51,20.12,43.43,45.71,84.14,45.02,132.37-1.04,72.58-65.08,133.36-87.54,204.7-13.37,42.45-3.88,85.18,8.66,125.12,32.51,102.59,109.1,196.53,203.33,253.71,90.55,54.95,199.5,82.96,307.12,77.05,37.74-2.05,76.11-6.82,113.39-4.37,21.22,1.36,42.02,5.03,62.11,12.75,73.61,28.27,118.61,102.65,180.25,152.36,73.07,58.92,164.75,91.86,258.29,93.04,20.9,.26,41.85-1.06,62.55-3.96,71.87-10.06,140.79-38.13,199.98-80.88,34.12-24.63,64.91-53.86,94.01-84.44,42.7-44.92,83.02-93.43,137.25-121.98,5.08-2.68,10.27-5.18,15.57-7.5,59.8-26.19,130.57-29.82,180.09-71.14,26.61-22.2,45.64-52.13,60.72-83.42,21.12-43.76,35.41-94.24,36.57-142.84,.98-42.22-8.47-84.17-37.57-115.02-21.95-23.26-52.2-35.59-75.35-56.18-5.05-4.51-9.71-9.33-14.01-14.49-29.1-34.77-39.78-83.74-60.06-126.26-4.52-9.43-9.48-18.43-14.83-26.99-29.23-47.14-72.75-84.37-125.28-107.71-36.94-16.41-76.2-23.35-109.85-41.27-24.26-12.96-44.8-31.26-62.77-56.16-3.21-4.43-6.41-8.89-9.6-13.34-43.7-60.92-92.6-125.51-162.77-147.03-10-3.07-20.26-5.31-30.88-6.67-21.49-2.74-43.43-1.72-65.52-1.78-16.14-.04-32.36-.71-48.32-3.19-54.72-8.62-89.82-36.57-124.6-71.08-8.73-8.68-17.43-17.75-26.67-26.83-13.24-13.06-27.32-25.01-42.75-35.22-44.95-29.75-100.38-43.59-154.45-43.68-50.26-.11-99.66,10.58-147.55,25.83-37.93,12.08-75.11,27.04-110.38,45.61-5.98,3.15-11.91,6.4-17.8,9.73-45.82,25.88-91.58,56.83-140.45,73.12-43.53,14.5-86.77,17.59-132.41,15.59-9.2-.4-18.61-.88-28.1-1.5-36.77-2.33-71.95-3.82-99.74,6.99Z"/><path class="cls-1" d="M143.37,1021.02c-49.01,14.21-83.54,61.41-87.44,115.96-2.1,27.8,2.32,56.13,10.24,83.82,7.61,26.59,18.13,52.44,30.28,76.17,23,44.94,53.02,86.94,54.27,137.7,1.62,76.21-65.2,139.44-90.44,213.23-13.89,40.59-8.43,82.09,1.02,121.49,24.5,101.09,94.14,196.01,182.82,255.05,94.46,62.89,211.45,92.39,326.15,85.01,40.18-2.57,81.11-8.33,120.9-6.38,22.67,1.09,44.92,4.67,66.42,12.69,78.77,29.37,126.09,109.4,192.12,161.85,73.2,58.16,165.73,88.46,259.04,87.58,20.84-.19,41.7-1.94,62.26-5.23,71.4-11.39,139.44-40.21,198.63-82.44,34.14-24.35,65.28-52.95,94.54-83.08,42.89-44.2,83.18-92.45,136.77-121.5,5.03-2.73,10.17-5.29,15.42-7.67,59.14-26.83,129.24-30.96,179.48-71.12,28.17-22.52,48.42-53.42,64.58-85.74,22.63-45.23,37.93-97.87,38.9-148.39,.82-44-9.67-87.21-39.78-119.59-22.43-23.95-52.99-37.79-76.04-59.99-5.03-4.86-9.64-10.04-13.88-15.52-28.65-36.94-38.98-87.26-60.74-130.38-4.86-9.59-10.23-18.71-16.06-27.35-31.86-47.5-79.26-83.37-133.47-106.66-37.16-15.97-76.49-24.26-109.94-43.66-24.14-14.03-44.36-33.39-62.24-57.97-3.25-4.45-6.47-8.93-9.69-13.4-43.98-61.3-92.09-127.39-161.59-151.49-9.98-3.46-20.26-6.1-30.95-7.83-21.61-3.48-43.73-3.01-65.99-3.37-16.25-.26-32.56-1-48.61-3.56-55.73-8.97-89.85-37.61-125.05-72.18-8.81-8.66-17.67-17.68-27.15-26.71-13.54-12.93-28.04-24.63-43.78-34.61-45.86-29.08-101.55-42.77-155.94-42.81-50.14-.05-99.43,10.45-147.11,25.97-37.75,12.28-74.65,27.74-109.71,46.49-5.94,3.18-11.84,6.46-17.7,9.8-45.47,25.98-90.97,56.94-139.27,74.94-43.1,16.23-86.34,22.29-131.9,21-9.19-.25-18.57-.72-28.03-1.46-36.49-2.78-71.72-7.26-101.35,1.33Z"/><path class="cls-1" d="M138.82,1003.57c-53.79,11.03-93.66,61.38-100.03,118.45-3.33,29.14,.58,58.81,8.78,87.66,7.85,27.61,19.47,54.35,33.06,78.83,25.96,46.4,60.45,89.75,63.53,143.02,4.45,79.85-65.15,145.61-93.35,221.77-14.36,38.77-12.99,79-6.62,117.86,16.49,99.58,78.87,195.57,162.31,256.38,97.86,71.33,223.4,101.82,345.18,92.97,42.63-3.08,86.12-9.85,128.42-8.38,24.12,.82,47.82,4.31,70.74,12.63,83.94,30.47,133.54,116.19,203.98,171.35,73.32,57.41,166.71,85.05,259.78,82.13,20.79-.65,41.54-2.83,61.97-6.49,70.92-12.73,138.09-42.28,197.29-83.99,34.17-24.07,65.64-52.05,95.07-81.73,43.08-43.48,83.33-91.47,136.3-121.01,4.98-2.78,10.06-5.39,15.26-7.84,58.49-27.47,127.94-32.06,178.86-71.1,29.75-22.8,51.21-54.72,68.43-88.06,24.14-46.71,40.45-101.49,41.22-153.94,.66-45.78-10.8-90.32-41.98-124.16-22.86-24.69-53.78-39.99-76.73-63.8-5.02-5.22-9.58-10.74-13.76-16.56-28.21-39.12-38.18-90.78-61.41-134.51-5.19-9.75-10.99-18.98-17.3-27.71-34.48-47.86-85.76-82.4-141.66-105.62-37.39-15.53-76.77-25.18-110.02-46.05-24.02-15.1-43.91-35.53-61.72-59.79-3.29-4.47-6.54-8.97-9.77-13.47-44.26-61.68-91.58-129.28-160.41-155.95-9.95-3.86-20.26-6.89-31.02-8.99-21.72-4.23-44.04-4.31-66.45-4.97-16.36-.48-32.76-1.29-48.9-3.92-56.73-9.32-89.88-38.65-125.49-73.27-8.89-8.65-17.91-17.61-27.62-26.59-13.84-12.81-28.75-24.25-44.81-34-46.77-28.41-102.73-41.95-157.42-41.93-50.03,.01-99.19,10.31-146.67,26.11-37.57,12.49-74.19,28.44-109.04,47.37-5.91,3.21-11.78,6.51-17.6,9.88-45.11,26.08-90.4,56.95-138.08,76.76-42.69,17.86-85.91,26.99-131.38,26.41-9.19-.11-18.54-.57-27.96-1.42-36.21-3.23-71.39-10.8-102.97-4.33Z"/><path class="cls-1" d="M134.27,986.13c-58.45,7.69-103.78,61.35-112.62,120.93-4.56,30.48-1.17,61.5,7.31,91.5,8.1,28.64,20.75,56.29,35.84,81.49,28.8,47.91,67.87,92.56,72.79,148.35,7.27,83.5-64.9,151.89-96.25,230.31-14.78,36.99-17.54,75.91-14.27,114.23,8.48,98.08,63.28,195.12,141.8,257.72,100.68,80.27,235.35,111.25,364.22,100.93,45.07-3.6,91.12-11.37,135.93-10.39,25.58,.55,50.73,3.95,75.05,12.57,89.1,31.57,140.96,123.03,215.85,180.85,73.43,56.69,167.7,81.65,260.53,76.68,20.73-1.11,41.38-3.71,61.67-7.76,70.44-14.07,136.73-44.36,195.94-85.54,34.2-23.79,66.01-51.14,95.61-80.37,43.27-42.75,83.49-90.49,135.82-120.53,4.93-2.83,9.96-5.5,15.1-8,57.83-28.11,126.65-33.12,178.25-71.08,31.34-23.06,53.99-56.02,72.28-90.38,25.65-48.18,42.97-105.12,43.55-159.49,.51-47.56-11.94-93.43-44.19-128.73-23.29-25.44-54.57-42.19-77.41-67.61-5-5.57-9.52-11.45-13.64-17.59-27.77-41.3-37.39-94.3-62.09-138.63-5.53-9.91-11.74-19.25-18.53-28.07-37.1-48.23-92.22-81.55-149.85-104.58-37.58-15.18-77.05-26.1-110.1-48.45-23.9-16.18-43.47-37.66-61.19-61.6-3.33-4.49-6.61-9.01-9.85-13.54-44.54-62.06-91.01-131.29-159.23-160.42-9.92-4.27-20.25-7.68-31.08-10.15-21.84-4.97-44.35-5.6-66.92-6.56-16.47-.7-32.97-1.58-49.2-4.29-57.73-9.68-89.92-39.69-125.94-74.37-8.96-8.63-18.16-17.55-28.1-26.46-14.14-12.69-29.47-23.87-45.84-33.39-47.68-27.74-103.9-41.14-158.9-41.05-49.91,.07-98.95,10.18-146.24,26.24-37.39,12.7-73.73,29.14-108.37,48.25-5.88,3.24-11.71,6.57-17.5,9.95-44.75,26.18-89.83,56.96-136.9,78.59-42.29,19.5-85.49,31.69-130.87,31.82-9.19,.03-18.5-.41-27.89-1.38-35.93-3.68-70.94-14.41-104.58-9.98Z"/><path class="cls-1" d="M800.74,782.49c-95.83,.25-188.44,36.72-270.91,85.54-92.54,54.77-187.09,128.69-293.9,116.3-35.64-4.14-70.39-18.06-106.2-15.64-62.98,4.25-113.89,61.32-125.21,123.42-11.32,62.1,10.44,126.33,44.47,179.49,31.65,49.43,75.29,95.36,82.04,153.67,10.09,87.14-64.45,158.29-99.15,238.85-53.98,125.34-3.48,279.97,99.38,369.66,102.86,89.69,247.29,120.67,383.25,108.89,74.65-6.47,152.01-24.42,222.82,.11,94.26,32.66,148.35,129.91,227.72,190.35,89.95,68.49,212.25,86.5,322.66,62.2,110.41-24.3,209.47-87.52,290.73-166.11,47.56-45.99,91.19-98.5,150.29-128.22,57.18-28.74,125.36-34.14,177.63-71.07,32.95-23.28,56.77-57.32,76.14-92.71,50.98-93.17,70.81-219.63-.51-298.34-23.72-26.18-55.36-44.38-78.1-71.42-38.46-45.73-46.21-109.76-76.28-161.39-37.87-65.03-107.66-104.71-177.8-131.96-37.83-14.69-77.34-27.01-110.19-50.84-28.32-20.54-50.2-48.6-70.6-77.02-51.38-71.58-103.92-153.99-189.19-176.19-37.98-9.89-78.19-6.2-116.88-12.81-73.31-12.52-103.74-57.24-154.96-101.81-56.53-49.19-132.96-73.16-207.26-72.96Z"/></g><g class="cls-3"><path class="cls-1" d="M1404.18,132.4c-18.13,15.35-30.63,36.28-47.28,53.23-32.9,33.5-82.5,49.71-128.83,42.11-22.29-3.66-43.61-12.41-66.07-14.74-39.05-4.05-78.07,11.97-109.19,35.9-31.12,23.93-55.53,55.33-79.31,86.57-18.92,24.87-37.76,50.03-52.04,77.82-21.43,41.73-33.9,91.02-70.81,119.98-28.38,22.27-66.14,28.11-97.97,45.06-31.84,16.96-59.01,55.95-41.84,87.67,18.69,34.54,70.28,29.9,102.75,51.98,30.29,20.6,39.11,60.95,42,97.47,2.89,36.52,3.07,75.63,23.7,105.9,25.97,38.12,75.85,50.27,121.32,58.05,117.85,20.18,248.46,28.19,347.55-38.72,38.88-26.26,72.44-63.75,118.08-74.61,31.34-7.46,64.04-1.14,96.07,2.3,74.28,7.99,151.7-.32,218.45-33.89s121.57-94.35,138.36-167.15c18.56-80.49-8.22-171.64,32.88-243.29,28.09-48.97,86.31-86.03,85.05-142.47-.39-17.39-6.81-34.06-14-49.9-9.94-21.89-21.54-43.03-34.66-63.18-10.98-16.86-25.61-34.53-45.67-35.97-22.77-1.64-41.26,18.28-63.44,23.67-32.88,8-63.98-16.77-88.16-40.44-24.18-23.67-52.91-50-86.49-45.88-52.71,6.47-75.72,66.73-134.29,47.95-54.74-17.55-118.19-26.04-166.15,14.57Z"/><path class="cls-1" d="M966.5,319.51c-20.43,25.4-40.22,51.7-55.22,80.78-6.89,13.35-12.9,27.42-18.92,41.43-13.64,31.71-27.6,63.36-53.24,85.25-15.02,12.86-32.74,21.24-51.33,28.63-16.65,6.61-33.88,12.34-49.34,21.16-30.88,17.47-55.33,55.57-41.73,87.38,.61,1.43,1.3,2.84,2.06,4.24,16.26,29.77,55.26,33.12,87.48,46.01,6.22,2.49,12.2,5.34,17.72,8.84,22.37,14.17,34.98,37.29,41.98,63.09,3,10.93,4.89,22.26,6.13,33.36,4.09,37.2,4.01,77.68,24.07,109.41,25.14,39.54,74.2,54.34,120.02,63.89,35.82,7.47,73.21,13.19,110.56,15.34,86.36,4.99,172.24-8.25,241.97-56.89,33.81-23.68,63.75-55.53,101.33-71.06,6.5-2.69,13.21-4.88,20.16-6.47,32.35-7.42,66.11-.84,99.25,2.82,14.65,1.62,29.41,2.63,44.18,2.86,62.66,.96,124.89-13.17,179.34-42.69,63.18-34.26,115.79-92.31,132.48-162.44,18.44-77.53-3.93-164.3,32.97-234.7,11.46-21.87,26.09-42.58,41.83-62.68,15.76-20.07,31.96-39.57,39.83-61.99,3.67-10.47,5.5-21.47,5.13-33.1-.14-4.33-.6-8.63-1.32-12.88-2.41-14.29-7.79-28.21-13.91-41.48-11.05-23.93-25.36-45.94-40.84-65.74-12.05-15.41-26.46-32.04-46.4-33.43-9.47-.66-18.24,2.14-26.85,5.91-11.98,5.22-23.61,12.3-36.36,14.77-32.63,6.27-63.41-18.27-88.11-41.06-24.53-22.72-53.42-47.23-86.8-43.22-31.52,3.79-52.99,26.11-77.7,39.51-16.11,8.73-33.6,13.61-56.26,7.19-13.62-3.85-27.78-7.15-42.1-9.54-29.29-4.89-59.2-5.73-86.69,2.94-12.76,4.02-25.03,10.08-36.5,18.71-18.34,13.72-31.5,32.61-48.49,48.02-26.13,23.6-61.5,38.03-97.38,41.04-10.36,.87-20.74,.77-30.94-.41-21.89-2.52-42.8-9.91-64.93-11-36.77-1.82-72.79,9.72-104.1,28.56-2.93,1.76-5.8,3.61-8.62,5.51-32.78,22.17-59.23,52.83-84.39,84.11Z"/><path class="cls-1" d="M959.51,303.54c-21.96,25.93-42.67,53.38-58.4,83.74-7.23,13.95-13.53,28.63-19.74,43.26-14.04,33.05-28.11,66.44-53.77,90.11-15.07,13.98-32.95,23.58-52.2,31.71-17.21,7.26-35.26,13.24-51.16,22.81-31.24,18.81-54,58.51-39.64,91.22,.64,1.47,1.36,2.92,2.15,4.36,16.85,30.58,56.08,35.86,89.24,48.94,6.4,2.53,12.61,5.36,18.39,8.78,23.42,13.85,37.9,35.86,46.51,61.61,3.67,10.98,6.1,22.45,7.73,33.83,5.29,37.88,4.87,79.77,24.43,112.92,24.21,41.02,72.56,58.41,118.72,69.74,36.09,8.86,74.17,15.31,112.22,17.47,87.86,5,175.03-11.29,245.28-61.84,34.47-24.98,65.08-58.13,104.04-73.93,6.74-2.74,13.68-4.93,20.85-6.52,33.36-7.38,68.18-.54,102.44,3.33,15.13,1.71,30.37,2.81,45.59,2.99,64.64,.76,128.09-16.79,183-48.77,59.67-34.75,110.01-90.26,126.59-157.73,18.32-74.56-.06-157.26,33.05-226.11,11.56-24.03,24.59-47.57,40.8-69.81,16.17-22.09,34.22-42.93,42.59-67.4,3.89-11.38,5.64-23.34,5.13-35.87-.19-4.69-.72-9.33-1.49-13.94-2.6-15.43-8.28-30.58-14.98-44.9-12.15-25.97-29.01-48.8-47.02-68.29-12.93-14-27.32-29.55-47.13-30.9-9.4-.64-18.15,1.86-26.75,5.17-12,4.57-23.61,10.69-36.23,12.51-32.38,4.54-62.84-19.76-88.06-41.67-24.88-21.77-53.93-44.45-87.1-40.55-31.12,3.67-53.03,24.64-77.8,37.58-16.18,8.44-33.61,13.32-55.84,7.88-13.54-3.31-27.62-6.08-41.85-8.23-29.08-4.39-58.7-5.7-86.04,1.63-12.71,3.39-24.96,8.67-36.53,16.26-18.52,12.14-32.35,28.98-49.7,42.8-26.69,21.26-61.91,34.49-97.37,38.38-10.23,1.11-20.43,1.42-30.45,.78-21.5-1.38-42.01-7.33-63.79-7.26-37.9,.12-74.21,10.08-107.2,27.2-3.06,1.59-6.07,3.28-9.03,5.04-34.43,20.4-62.94,50.32-89.48,81.66Z"/><path class="cls-1" d="M952.51,287.58c-23.49,26.44-45.12,55.06-61.57,86.7-7.56,14.55-14.16,29.83-20.57,45.1-14.44,34.38-28.63,69.51-54.31,94.97-15.13,15.11-33.16,25.91-53.07,34.79-17.77,7.91-36.66,14.1-52.98,24.46-31.63,20.08-52.66,61.44-37.56,95.06,.68,1.51,1.42,3,2.24,4.47,17.45,31.4,56.89,38.6,91.01,51.86,6.59,2.56,13.02,5.37,19.07,8.71,24.48,13.53,40.87,34.42,51.03,60.12,4.36,11.03,7.33,22.65,9.32,34.29,6.56,38.54,5.78,81.83,24.8,116.42,23.34,42.46,70.91,62.47,117.42,75.58,36.36,10.25,75.13,17.43,113.88,19.6,89.35,5.01,177.93-14.17,248.6-66.78,35.19-26.2,66.41-60.73,106.75-76.81,6.98-2.78,14.15-4.99,21.54-6.57,34.38-7.35,70.25-.24,105.62,3.84,15.62,1.8,31.32,2.99,47,3.12,66.63,.55,131.3-20.32,186.66-54.84,56.23-35.06,104.24-88.22,120.71-153.03,18.19-71.6,3.46-150.46,33.14-217.51,11.61-26.24,23.09-52.55,39.77-76.94,16.59-24.12,36.49-46.3,45.35-72.81,4.12-12.29,5.77-25.21,5.13-38.63-.24-5.04-.83-10.04-1.66-14.99-2.8-16.57-8.77-32.94-16.04-48.32-13.25-28.01-32.5-51.66-53.2-70.85-13.66-12.65-28.18-27.05-47.86-28.36-9.33-.62-18.05,1.61-26.64,4.44-12.01,3.96-23.62,9.12-36.1,10.25-32.12,2.89-62.32-21.19-88.01-42.28-25.29-20.76-54.44-41.67-87.41-37.89-30.71,3.54-53.06,23.17-77.9,35.64-16.26,8.14-33.63,13.05-55.41,8.58-13.47-2.76-27.46-5.02-41.6-6.92-28.86-3.89-58.2-5.68-85.39,.32-12.66,2.77-24.91,7.25-36.57,13.8-18.72,10.52-33.22,25.34-50.91,37.59-27.28,18.9-62.32,30.96-97.35,35.72-10.09,1.36-20.11,2.07-29.96,1.96-21.1-.25-41.25-4.69-62.65-3.52-39.07,2.15-75.61,10.45-110.3,25.85-3.2,1.42-6.35,2.96-9.45,4.56-36.09,18.64-66.66,47.8-94.56,79.2Z"/><path class="cls-1" d="M945.52,271.62c-25.04,26.95-47.57,56.73-64.75,89.66-7.9,15.15-14.79,31.04-21.39,46.94-14.83,35.71-29.15,72.59-54.84,99.83-15.19,16.23-33.38,28.25-53.94,37.87-18.33,8.56-38.07,14.96-54.8,26.1-32.02,21.34-51.33,64.38-35.47,98.9,.71,1.55,1.49,3.07,2.33,4.58,18.04,32.21,57.71,41.34,92.77,54.79,6.78,2.6,13.43,5.39,19.74,8.65,25.54,13.21,43.85,32.97,55.56,58.64,5.05,11.08,8.54,22.84,10.91,34.76,7.77,39.22,6.69,83.88,25.16,119.93,22.48,43.89,69.26,66.54,116.12,81.43,36.63,11.63,76.08,19.55,115.54,21.73,90.84,5.02,180.75-17.19,251.92-71.73,35.87-27.49,67.74-63.33,109.46-79.68,7.22-2.83,14.62-5.04,22.23-6.62,35.39-7.31,72.32,.06,108.8,4.36,16.1,1.9,32.27,3.17,48.41,3.25,68.61,.35,134.52-23.74,190.32-60.92,52.85-35.21,98.46-86.18,114.82-148.32,18.07-68.64,6.68-143.83,33.23-208.92,11.62-28.49,21.59-57.53,38.74-84.07,17-26.14,38.75-49.66,48.12-78.21,4.34-13.2,5.91-27.08,5.13-41.39-.3-5.39-.94-10.74-1.83-16.04-2.99-17.71-9.26-35.3-17.11-51.75-14.36-30.05-35.83-54.59-59.39-73.4-14.26-11.39-29.04-24.56-48.59-25.82-9.25-.59-17.96,1.34-26.54,3.7-12.03,3.32-23.63,7.53-35.97,7.99-31.88,1.18-61.76-22.67-87.96-42.89s-54.96-38.9-87.71-35.23c-30.31,3.42-53.09,21.7-78,33.71-16.33,7.85-33.66,12.78-54.98,9.27-13.41-2.21-27.3-3.95-41.36-5.61-28.65-3.39-57.69-5.65-84.74-.99-12.6,2.14-24.86,5.82-36.6,11.35-18.92,8.91-34.09,21.69-52.12,32.38-27.89,16.54-62.73,27.42-97.34,33.06-9.96,1.61-19.8,2.73-29.46,3.15-20.71,.89-40.5-2-61.51,.22-40.28,4.25-77,10.83-113.4,24.5-3.34,1.25-6.62,2.64-9.87,4.09-37.74,16.87-70.4,45.26-99.65,76.74Z"/><path class="cls-1" d="M938.52,255.66c-26.6,27.45-50.03,58.41-67.93,92.62-8.24,15.75-15.42,32.24-22.21,48.78-15.23,37.05-29.66,75.67-55.37,104.69-15.25,17.35-33.59,30.58-54.81,40.95-18.89,9.21-39.48,15.81-56.62,27.75-32.43,22.59-50,67.32-33.38,102.74,.74,1.58,1.55,3.15,2.42,4.7,18.63,33.02,58.52,44.09,94.53,57.71,6.96,2.63,13.84,5.41,20.42,8.59,26.6,12.88,46.84,31.52,60.08,57.16,5.75,11.12,9.76,23.04,12.5,35.23,8.98,39.89,7.62,85.93,25.53,123.44,21.64,45.31,67.62,70.61,114.83,87.27,36.91,13.02,77.04,21.67,117.19,23.86,92.34,5.03,183.55-20.22,255.24-76.68,36.54-28.78,69.08-65.93,112.18-82.55,7.46-2.88,15.09-5.1,22.92-6.66,36.4-7.28,74.39,.36,111.98,4.87,16.58,1.99,33.22,3.35,49.82,3.39,70.6,.14,137.79-27.06,193.98-66.99,49.55-35.21,92.68-84.14,108.94-143.62,17.95-65.68,9.65-137.33,33.31-200.33,11.56-30.79,20.08-62.52,37.72-91.2,17.41-28.17,41.01-53.02,50.88-83.62,4.56-14.11,6.04-28.95,5.13-44.16-.35-5.74-1.05-11.44-2-17.09-3.18-18.85-9.75-37.67-18.17-55.17-15.46-32.09-39.04-57.62-65.57-75.96-14.76-10.21-29.9-22.07-49.32-23.28-9.18-.57-17.87,1.07-26.43,2.97-12.05,2.68-23.64,5.93-35.84,5.72-31.63-.53-61.2-24.16-87.91-43.5-26-18.83-55.47-36.12-88.02-32.57-29.9,3.29-53.12,20.23-78.09,31.77-16.4,7.56-33.69,12.54-54.56,9.97-13.35-1.65-27.14-2.89-41.11-4.3-28.44-2.89-57.19-5.62-84.1-2.3-12.55,1.51-24.82,4.39-36.64,8.9-19.13,7.29-34.96,18.04-53.33,27.17-28.49,14.17-63.14,23.88-97.33,30.4-9.83,1.86-19.49,3.38-28.97,4.33-20.31,2.02-39.75,.76-60.37,3.96-41.49,6.45-78.38,11.23-116.5,23.14-3.47,1.08-6.9,2.31-10.29,3.61-39.4,15.11-74.16,42.72-104.74,74.28Z"/><path class="cls-1" d="M931.53,239.69c-28.16,27.95-52.48,60.09-71.11,95.58-8.58,16.34-16.05,33.44-23.04,50.62-15.63,38.38-30.18,78.74-55.9,109.55-15.31,18.48-33.8,32.91-55.68,44.03-19.45,9.86-40.89,16.66-58.45,29.4-32.83,23.83-48.67,70.25-31.3,106.58,.78,1.62,1.61,3.23,2.51,4.81,19.22,33.84,59.34,46.83,96.3,60.64,7.15,2.67,14.25,5.42,21.1,8.53,27.66,12.56,49.83,30.08,64.61,55.68,6.44,11.17,10.96,23.23,14.09,35.69,10.18,40.57,8.55,87.98,25.89,126.94,20.8,46.73,65.97,74.68,113.53,93.11,37.18,14.41,78,23.79,118.85,25.99,93.83,5.04,186.35-23.26,258.56-81.63,37.21-30.08,70.41-68.53,114.89-85.43,7.7-2.93,15.57-5.15,23.61-6.71,37.41-7.24,76.46,.66,115.16,5.39,17.06,2.08,34.18,3.53,51.23,3.52,72.58-.07,141.12-30.25,197.64-73.07,46.32-35.08,86.9-82.1,103.05-138.91,17.83-62.72,12.42-130.92,33.4-191.74,11.42-33.12,18.58-67.5,36.69-98.33,17.83-30.19,43.27-56.39,53.65-89.03,4.78-15.02,6.18-30.83,5.13-46.92-.4-6.09-1.16-12.15-2.17-18.14-3.38-19.99-10.24-40.03-19.24-58.59-16.57-34.13-42.14-60.78-71.75-78.51-15.21-9.11-30.76-19.58-50.05-20.74-9.11-.55-17.79,.79-26.33,2.24-12.07,2.04-23.65,4.33-35.71,3.46-31.39-2.26-60.63-25.64-87.86-44.12-26.36-17.88-55.98-33.34-88.32-29.9-29.5,3.17-53.15,18.76-78.19,29.84-16.47,7.26-33.73,12.31-54.13,10.66-13.29-1.07-26.98-1.82-40.86-2.99-28.23-2.4-56.69-5.59-83.45-3.61-12.5,.89-24.77,2.96-36.67,6.45-19.35,5.67-35.84,14.38-54.53,21.96-29.1,11.79-63.55,20.35-97.32,27.73-9.69,2.11-19.18,4.04-28.48,5.52-19.92,3.16-39,3.56-59.23,7.71-42.69,8.74-79.76,11.63-119.61,21.79-3.6,.92-7.17,1.99-10.71,3.14-41.05,13.35-77.92,40.17-109.82,71.82Z"/><path class="cls-1" d="M924.54,223.73c-29.74,28.43-54.93,61.77-74.28,98.54-8.92,16.94-16.68,34.65-23.86,52.45-16.03,39.72-30.69,81.82-56.43,114.41-15.36,19.6-34.01,35.25-56.55,47.11-20.01,10.51-42.3,17.5-60.27,31.05-33.24,25.07-47.33,73.19-29.21,110.43,.81,1.66,1.68,3.3,2.6,4.92,19.82,34.65,60.15,49.57,98.06,63.56,7.33,2.71,14.66,5.44,21.77,8.47,28.72,12.24,52.83,28.62,69.13,54.19,7.15,11.21,12.17,23.43,15.68,36.16,11.37,41.25,9.49,90.02,26.25,130.45,19.97,48.15,64.32,78.75,112.23,98.96,37.45,15.79,78.96,25.91,120.51,28.11,95.32,5.05,189.13-26.3,261.87-86.58,37.87-31.38,71.74-71.13,117.6-88.3,7.94-2.97,16.04-5.21,24.3-6.76,38.43-7.21,78.53,.96,118.34,5.9,17.54,2.18,35.13,3.71,52.64,3.65,74.57-.27,144.53-33.33,201.3-79.14,43.17-34.84,81.12-80.06,97.17-134.21,17.7-59.76,15.01-124.58,33.49-183.15,11.19-35.49,17.08-72.48,35.66-105.46,18.24-32.22,45.53-59.75,56.41-94.44,5-15.94,6.32-32.7,5.13-49.69-.45-6.44-1.27-12.85-2.34-19.19-3.57-21.13-10.72-42.39-20.3-62.01-17.67-36.17-45.15-64.1-77.93-81.07-15.61-8.08-31.62-17.09-50.78-18.2-9.04-.53-17.7,.52-26.22,1.5-12.09,1.39-23.66,2.73-35.58,1.2-31.14-3.99-60.05-27.14-87.81-44.73-26.71-16.93-56.49-30.57-88.63-27.24-29.09,3.04-53.19,17.29-78.29,27.9-16.55,6.97-33.77,12.09-53.7,11.35-13.24-.49-26.82-.75-40.61-1.68-28.02-1.9-56.19-5.56-82.8-4.92-12.45,.26-24.73,1.53-36.71,3.99-19.57,4.04-36.72,10.72-55.74,16.74-29.72,9.41-63.96,16.81-97.3,25.07-9.56,2.35-18.87,4.69-27.98,6.7-19.52,4.29-38.24,6.41-58.09,11.45-43.88,11.13-81.14,12.05-122.71,20.43-3.74,.75-7.44,1.66-11.12,2.66-42.71,11.58-81.69,37.61-114.91,69.37Z"/><path class="cls-1" d="M917.54,207.77c-31.32,28.91-57.38,63.44-77.46,101.5-9.25,17.54-17.31,35.85-24.69,54.29-16.42,41.05-31.21,84.89-56.96,119.27-15.42,20.72-34.23,37.58-57.42,50.19-20.57,11.16-43.72,18.35-62.09,32.7-33.66,26.3-46,76.13-27.13,114.27,.84,1.7,1.74,3.38,2.69,5.04,20.41,35.47,60.97,52.31,99.83,66.49,7.52,2.74,15.07,5.46,22.45,8.41,29.77,11.92,55.84,27.16,73.66,52.71,7.85,11.25,13.38,23.62,17.27,36.62,12.56,41.92,10.43,92.06,26.62,133.96,19.15,49.56,62.68,82.82,110.93,104.8,37.72,17.18,79.92,28.04,122.17,30.24,96.82,5.06,191.92-29.36,265.19-91.53,38.53-32.69,73.07-73.72,120.31-91.18,8.18-3.02,16.51-5.27,24.99-6.81,39.44-7.17,80.6,1.26,121.52,6.42,18.02,2.27,36.08,3.89,54.06,3.78,76.55-.48,148.05-36.27,204.96-85.22,40.11-34.49,75.34-78.02,91.29-129.5,17.58-56.8,17.45-118.27,33.57-174.56,10.85-37.88,15.58-77.47,34.63-112.59,18.65-34.24,47.8-63.11,59.17-99.84,5.22-16.85,6.45-34.57,5.13-52.45-.5-6.79-1.38-13.55-2.51-20.24-3.76-22.27-11.21-44.76-21.37-65.43-18.78-38.21-48.12-67.6-84.12-83.62-16.01-7.12-32.48-14.6-51.51-15.66-8.97-.5-17.61,.24-26.12,.77-12.11,.75-23.67,1.12-35.45-1.06-30.9-5.72-59.48-28.63-87.76-45.34-27.05-15.98-57-27.79-88.93-24.58-28.69,2.91-53.22,15.82-78.39,25.97-16.62,6.68-33.81,11.89-53.28,12.05-13.18,.1-26.66,.31-40.37-.37-27.8-1.4-55.69-5.53-82.15-6.23-12.4-.36-24.69,.08-36.74,1.54-19.79,2.4-37.61,7.06-56.95,11.53-30.34,7.02-64.37,13.27-97.29,22.41-9.43,2.6-18.56,5.35-27.49,7.89-19.13,5.43-37.46,9.3-56.95,15.19-45.03,13.61-82.52,12.49-125.81,19.08-3.87,.59-7.72,1.34-11.54,2.18-44.36,9.82-85.47,35.04-119.99,66.91Z"/><path class="cls-1" d="M910.55,191.8c-32.9,29.38-59.84,65.12-80.64,104.46-9.59,18.14-17.94,37.06-25.51,56.13-16.82,42.39-31.72,87.97-57.49,124.13-15.48,21.84-34.44,39.92-58.29,53.27-21.13,11.81-45.14,19.19-63.91,34.35-34.08,27.53-44.67,79.07-25.04,118.11,.87,1.74,1.8,3.46,2.78,5.15,21,36.28,61.78,55.05,101.59,69.41,7.71,2.78,15.48,5.47,23.13,8.35,30.83,11.6,58.84,25.7,78.18,51.23,8.55,11.29,14.56,23.83,18.86,37.09,13.67,42.63,11.39,94.09,26.98,137.46,18.33,50.97,61.03,86.89,109.63,110.64,37.99,18.57,80.88,30.16,123.83,32.37,98.31,5.07,194.69-32.43,268.51-96.47,39.18-34,74.4-76.32,123.02-94.05,8.42-3.07,16.98-5.32,25.69-6.86,40.45-7.14,82.67,1.56,124.7,6.93,18.5,2.36,37.04,4.07,55.47,3.91,78.54-.68,151.71-39.06,208.62-91.29,37.12-34.07,69.56-75.97,85.4-124.8,17.46-53.84,19.75-111.99,33.66-165.96,10.39-40.3,14.08-82.45,33.6-119.72,19.06-36.27,50.06-66.48,61.94-105.25,5.45-17.76,6.59-36.44,5.13-55.22-.55-7.14-1.49-14.26-2.68-21.29-3.96-23.41-11.7-47.12-22.43-68.85-19.88-40.25-51.05-71.28-90.3-86.18-16.4-6.23-33.34-12.1-52.24-13.12-8.89-.48-17.52-.04-26.01,.03-12.13,.1-23.68-.49-35.32-3.32-30.65-7.47-58.9-30.14-87.71-45.95-27.39-15.04-57.52-25.02-89.24-21.91-28.28,2.79-53.25,14.35-78.48,24.03-16.69,6.38-33.85,11.71-52.85,12.74-13.13,.71-26.5,1.38-40.12,.94-27.59-.9-55.19-5.5-81.5-7.55-12.34-.99-24.66-1.36-36.78-.91-20.01,.75-38.49,3.39-58.16,6.32-30.96,4.62-64.78,9.74-97.28,19.75-9.29,2.85-18.25,6-27,9.07-18.73,6.56-36.67,12.22-55.81,18.93-46.14,16.17-83.89,12.93-128.91,17.73-4.01,.43-7.99,1.02-11.96,1.71-46.02,8.06-89.25,32.46-125.08,64.45Z"/><path class="cls-1" d="M903.56,175.84c-34.5,29.84-62.29,66.8-83.82,107.42-9.93,18.74-18.58,38.26-26.33,57.97-17.22,43.72-32.24,91.04-58.02,128.99-15.54,22.97-34.65,42.25-59.16,56.35-21.69,12.46-46.56,20.02-65.73,36-34.51,28.75-43.33,82-22.95,121.95,.91,1.78,1.87,3.53,2.87,5.26,21.59,37.1,62.59,57.8,103.35,72.34,7.89,2.81,15.89,5.49,23.8,8.29,31.89,11.28,61.86,24.24,82.71,49.75,9.26,11.33,15.77,24.02,20.46,37.56,14.87,43.31,12.35,96.13,27.35,140.97,17.53,52.38,59.38,90.96,108.33,116.49,38.27,19.96,81.83,32.28,125.49,34.5,99.8,5.08,197.35-35.62,271.83-101.42,39.78-35.38,75.73-78.92,125.74-96.92,8.66-3.12,17.45-5.38,26.38-6.9,41.46-7.1,84.74,1.87,127.88,7.45,18.98,2.46,37.99,4.25,56.88,4.04,80.53-.89,155.54-41.71,212.28-97.36,34.23-33.57,63.78-73.93,79.52-120.09,17.34-50.88,21.94-105.7,33.75-157.37,9.77-42.75,12.58-87.43,32.57-126.85,19.48-38.29,52.32-69.84,64.7-110.66,5.67-18.67,6.72-38.32,5.14-57.98-.61-7.49-1.6-14.96-2.85-22.34-4.15-24.55-12.19-49.48-23.5-72.27-20.99-42.29-53.97-75.13-96.48-88.73-16.8-5.38-34.19-9.61-52.97-10.59-8.82-.46-17.43-.31-25.91-.7-12.15-.55-23.68-2.1-35.19-5.59-30.4-9.22-58.32-31.65-87.66-46.56-27.74-14.1-58.03-22.24-89.54-19.25-27.88,2.66-53.28,12.88-78.58,22.1-16.77,6.09-33.88,11.55-52.42,13.43-13.07,1.33-26.34,2.44-39.87,2.25-27.38-.41-54.69-5.48-80.85-8.86-12.29-1.61-24.61-2.81-36.81-3.36-20.23-.91-39.37-.29-59.37,1.11-31.57,2.21-65.19,6.2-97.26,17.09-9.16,3.1-17.94,6.66-26.5,10.26-18.34,7.7-35.86,15.17-54.67,22.67-47.19,18.83-85.27,13.39-132.02,16.37-4.14,.26-8.27,.69-12.38,1.23-47.68,6.29-93.04,29.88-130.17,61.99Z"/><path class="cls-1" d="M896.56,159.88c-36.09,30.29-64.74,68.47-86.99,110.38-10.27,19.33-19.21,39.47-27.16,59.81-17.62,45.06-32.75,94.12-58.55,133.85-15.59,24.09-34.86,44.58-60.03,59.43-22.25,13.11-48.01,20.82-67.55,37.65-34.99,29.91-42,84.94-20.87,125.79,.94,1.82,1.93,3.61,2.96,5.38,22.19,37.91,63.41,60.54,105.12,75.26,8.08,2.85,16.3,5.51,24.48,8.22,32.95,10.96,64.91,22.73,87.23,48.26,9.98,11.34,16.97,24.22,22.05,38.02,16.07,43.99,13.39,98.14,27.71,144.48,16.81,53.77,57.73,95.03,107.04,122.33,38.54,21.34,82.79,34.4,127.14,36.63,101.3,5.09,200.14-38.66,275.15-106.37,40.44-36.67,77.06-81.52,128.45-99.8,8.9-3.17,17.93-5.43,27.07-6.95,42.48-7.06,86.81,2.17,131.06,7.96,19.46,2.55,38.94,4.43,58.29,4.17,82.51-1.09,159.58-44.19,215.94-103.44,31.42-33.03,58-71.89,73.63-115.38,17.21-47.92,24.03-99.4,33.83-148.78,8.98-45.21,11.08-92.42,31.54-133.98,19.89-40.32,54.58-73.2,67.47-116.06,5.89-19.58,6.86-40.19,5.14-60.75-.66-7.85-1.71-15.66-3.02-23.39-4.34-25.69-12.68-51.85-24.56-75.69-22.09-44.33-56.9-79.15-102.66-91.29-17.22-4.57-35.05-7.12-53.7-8.05-8.75-.44-17.34-.61-25.81-1.43-12.17-1.23-23.69-3.71-35.07-7.85-30.15-10.97-57.71-33.22-87.61-47.17-28.05-13.23-58.54-19.46-89.85-16.59-27.47,2.54-53.31,11.41-78.68,20.16-16.84,5.8-33.91,11.4-52,14.13-13.01,1.96-26.18,3.51-39.62,3.56-27.17,.09-54.19-5.45-80.2-10.17-12.24-2.24-24.57-4.27-36.85-5.81-20.44-2.57-40.25-3.97-60.58-4.1-32.19-.21-65.6,2.66-97.25,14.43-9.03,3.35-17.63,7.31-26.01,11.44-17.94,8.83-35.02,18.13-53.53,26.41-48.18,21.56-86.66,13.85-135.12,15.02-4.28,.1-8.54,.37-12.8,.76-49.33,4.53-96.84,27.29-135.25,59.53Z"/><path class="cls-1" d="M889.57,143.92c-37.73,30.7-67.19,70.15-90.17,113.34-10.61,19.93-19.84,40.67-27.98,61.64-18.02,46.39-33.27,97.2-59.08,138.71-15.65,25.21-35.08,46.92-60.9,62.51-22.81,13.76-49.42,21.67-69.37,39.29-35.4,31.16-40.67,87.88-18.78,129.63,.97,1.86,1.99,3.69,3.05,5.49,22.78,38.73,64.22,63.28,106.88,78.19,8.26,2.89,16.71,5.52,25.16,8.16,34.01,10.64,67.91,21.27,91.76,46.78,10.68,11.38,18.18,24.42,23.64,38.49,17.27,44.67,14.32,100.19,28.08,147.98,15.98,55.19,56.09,99.09,105.74,128.17,38.81,22.73,83.75,36.52,128.8,38.76,102.79,5.1,202.93-41.7,278.46-111.32,41.1-37.97,78.39-84.12,131.16-102.67,9.14-3.21,18.4-5.49,27.76-7,43.49-7.03,88.88,2.47,134.25,8.48,19.94,2.64,39.89,4.61,59.7,4.3,84.5-1.3,163.87-46.51,219.6-109.51,28.7-32.45,52.22-69.85,67.75-110.68,17.09-44.96,26.03-93.07,33.92-140.19,7.99-47.69,9.57-97.4,30.52-141.11,20.3-42.34,56.84-76.56,70.23-121.47,6.11-20.49,6.99-42.06,5.14-63.51-.71-8.2-1.82-16.37-3.19-24.44-4.54-26.83-13.17-54.21-25.63-79.11-23.2-46.37-59.86-83.32-108.84-93.84-17.68-3.8-35.91-4.63-54.43-5.51-8.68-.41-17.25-.89-25.7-2.17-12.19-1.87-23.69-5.33-34.94-10.11-29.87-12.76-57.14-34.72-87.56-47.79-28.4-12.28-59.05-16.69-90.15-13.92-27.07,2.41-53.35,9.94-78.78,18.23-16.91,5.5-33.93,11.27-51.57,14.82-12.94,2.6-26.02,4.58-39.37,4.87-26.95,.59-53.69-5.42-79.56-11.48-12.19-2.86-24.52-5.75-36.88-8.27-20.64-4.28-41.13-7.68-61.79-9.32-32.79-2.67-66.01-.87-97.24,11.77-8.89,3.59-17.31,7.97-25.52,12.63-17.55,9.97-34.16,21.11-52.38,30.15-49.11,24.36-88.04,14.38-138.22,13.66-4.41-.05-8.82,.04-13.21,.28-50.99,2.76-100.67,24.64-140.34,57.08Z"/><path class="cls-1" d="M882.57,127.95c-57.44,45.58-95.76,111.37-122.15,179.78-29.61,76.76-51.36,165.97-121.39,209.16-23.37,14.41-50.84,22.52-71.19,40.94-35.81,32.4-39.34,90.81-16.7,133.47,22.64,42.66,66.15,70.93,111.79,86.72,42.44,14.69,90.42,21.59,122.11,53.4,47.36,47.55,36.32,125.61,53.67,190.44,26.99,100.86,130.62,169.79,234.9,174.9,104.29,5.11,205.72-44.74,281.78-116.27,41.77-39.27,79.72-86.72,133.87-105.55,72.09-25.06,150.67,7.7,226.99,6.38,86.48-1.5,168.47-48.66,223.26-115.59,54.79-66.93,84.32-151.85,95.87-237.57,6.76-50.16,8.07-102.38,29.49-148.24,20.72-44.36,59.1-79.93,72.99-126.88,8.76-29.6,6.93-61.33,1.78-91.77-13.55-80.12-61.58-165.47-141.72-178.93-26.65-4.48-54.29-.41-80.76-5.87-44.77-9.23-79.78-44.01-122.31-60.77-53.57-21.1-114.29-11.85-169.33,5.03-29.68,9.1-59.25,20.43-90.27,21.7-26.74,1.09-53.19-5.39-78.91-12.79-64.79-18.63-135.4-43.22-197.14-16.14-27.5,12.06-49.9,33.34-76.27,47.71-49.96,27.23-89.43,14.8-141.32,12.31-57.26-2.75-114.53,19.09-159.05,54.42Z"/></g><g class="cls-3"><path class="cls-1" d="M1393.89,2121.55c-10.41,15.55-15.34,34.1-24.28,50.55-17.66,32.49-51.72,55.51-88.45,59.78-17.67,2.06-35.71,.04-53.23,3.14-30.45,5.39-56.53,25.97-74.92,50.83-18.39,24.86-30.08,53.92-41.31,82.73-8.95,22.93-17.77,46.06-22.56,70.2-7.2,36.24-5.96,76.27-27.64,106.19-16.67,23.01-44,35.61-64.44,55.34-20.44,19.73-32.57,55.14-12.71,75.45,21.63,22.11,59.69,7.43,89.07,17.12,27.4,9.04,42.81,37.69,52.91,64.72,10.1,27.03,18.7,56.61,40.88,75.07,27.92,23.24,68.32,21.65,104.44,17.7,93.62-10.24,194.26-32.44,254.81-104.57,23.76-28.3,41.06-63.96,73.27-82.06,22.12-12.43,48.25-14.73,73.25-19.06,57.98-10.03,114.82-33.09,158.09-72.96,43.28-39.87,71.64-97.77,68.59-156.53-3.37-64.97-43.38-128.2-27.77-191.36,10.67-43.17,46.74-83.84,33.56-126.3-4.06-13.09-12.53-24.32-21.4-34.76-12.27-14.43-25.63-27.93-39.93-40.34-11.96-10.39-26.87-20.61-42.37-17.35-17.6,3.69-27.29,22.77-42.92,31.66-23.17,13.18-52.08,1.15-75.52-11.54s-50.89-26.41-75.43-16.02c-38.51,16.31-42.9,66.93-91.32,65.38-45.25-1.44-95.15,5.87-122.67,47Z"/><path class="cls-1" d="M1141.08,2281.64c-16.95,23.04-28.03,49.72-37.43,76.63-1.7,4.87-3.36,9.76-5.01,14.65-8.54,25.45-17.7,51.02-24.23,76.6-8.12,31.76-8.22,66.59-24.52,94.7-1.44,2.48-2.99,4.91-4.68,7.28-16.02,22.48-41.36,35.55-59.93,55.15-18.58,19.55-29.11,53.52-9.82,73.25,21.02,21.51,57.48,8.73,86.03,18.19,26.62,8.82,41.87,35.68,52.98,60.54,11.29,25.26,22.14,52.1,44.78,69.94,3.39,2.67,6.94,5.04,10.61,7.15,27.26,15.66,60.79,16.61,91.22,15.94,16.34-.39,32.88-1.14,49.55-2.62,74.64-6.55,151.67-28.42,204.08-83.75,25.95-27.39,45.97-62.58,78.69-82.58,14.35-8.77,30.08-13.85,45.91-18.11,8.92-2.41,17.9-4.58,26.75-6.97,19.31-5.24,38.6-11.8,57.99-19.2,37.84-14.44,75-31.21,105.7-57.08,45.18-38.07,74.92-95.89,74.4-154.95-.44-49.77-21.29-99.27-26.51-148.26-1.74-16.3-1.7-32.58,1.73-48.85,2.62-12.58,7.21-24.98,12.38-37.27,11.55-27.43,25.9-54.16,22.97-81.68-.41-3.84-1.16-7.69-2.28-11.55-3.94-13.52-12.25-25.31-21.1-36.24-11.97-14.78-25.24-28.61-39.51-41.29-11.95-10.63-26.74-20.97-42.18-18.67-17.58,2.58-27.98,19.68-43.96,27.82-4.21,2.16-8.6,3.6-13.1,4.46-18.06,3.46-37.81-2.43-55.62-10.42-2.62-1.17-5.19-2.39-7.71-3.63-23.88-11.77-51.4-25.43-76.3-16.21-2.8,1.04-5.44,2.25-7.94,3.6-32.2,17.52-41.66,58.65-85.81,59.1-4.83,.05-9.7,.24-14.59,.54-21.98,1.34-44.29,5.26-64.45,13.63-17.27,7.17-32.66,17.75-44.97,33.21-11.57,14.52-18.62,31.4-29.01,46.9-8.94,13.23-20.58,25.14-33.71,35.37-12.7,9.88-26.65,18-41.69,23.05-5.44,1.83-10.98,3.2-16.57,4.12-18.16,2.99-36.74,1.31-55.13,4.65-1.48,.27-2.96,.57-4.43,.9-29.8,6.77-55.4,27.28-73.58,51.95Z"/><path class="cls-1" d="M1129.15,2277.43c-18.34,25.03-29.73,54.33-38.78,83.79-1.64,5.32-3.22,10.68-4.78,16.05-8.14,27.96-17.53,55.93-25.91,82.99-9.35,30.21-10.34,63.38-26.23,90.67-1.4,2.41-2.9,4.77-4.52,7.08-15.38,21.95-38.72,35.5-55.42,54.96-16.72,19.38-25.64,51.9-6.93,71.06,20.42,20.9,55.26,10.03,82.99,19.26,25.83,8.6,40.99,33.71,53.05,56.37,12.53,23.54,25.57,47.59,48.69,64.8,3.46,2.58,7.06,4.91,10.76,7.03,27.51,15.76,59.42,19.39,88.47,21.46,15.58,1.11,31.34,1.85,47.4,1.8,71.94-.13,149.9-18.21,205.06-69.98,28.21-26.48,50.87-61.2,84.11-83.1,14.56-9.58,30.22-15.93,45.79-21.63,8.78-3.22,17.57-6.26,26.27-9.49,18.99-7.09,38.06-15.3,57.95-23.58,38.78-16.11,78.52-30.67,111.33-56.01,47.01-36.32,78.24-94.02,80.2-153.36,1.68-50.85-16.94-102.1-22.54-152.63-1.85-16.76-2.2-33.5,.74-50.24,2.24-13.01,6.4-25.85,11.38-38.59,11.1-28.32,26.03-55.76,23.38-84.2-.37-3.97-1.08-7.94-2.18-11.91-3.82-13.95-11.98-26.29-20.8-37.72-11.68-15.12-24.85-29.29-39.09-42.24-11.94-10.87-26.61-21.31-41.98-19.98-17.55,1.51-28.68,16.58-45,23.98-4.28,1.96-8.73,3.3-13.29,4.14-18.32,3.37-38.09-1.27-56.18-8.47-2.67-1.06-5.29-2.17-7.86-3.31-24.33-10.84-51.9-24.44-77.16-16.4-2.83,.91-5.52,1.98-8.08,3.2-32.87,15.66-44.75,54.52-88.1,56.83-4.82,.26-9.67,.69-14.53,1.21-21.86,2.34-43.97,7.18-64.38,15.49-17.5,7.13-33.21,17.09-46.43,31.06-12.78,13.51-21.86,28.74-33.75,43.26-10.21,12.47-22.84,24-36.48,34.69-13.16,10.31-26.99,19.48-42.17,25.52-5.54,2.21-11.17,3.89-16.85,5.09-18.66,3.93-37.77,2.58-57.03,6.16-1.54,.28-3.07,.6-4.6,.95-30.98,7.06-57.67,28.27-76.51,53.92Z"/><path class="cls-1" d="M1117.22,2273.22c-19.73,27.02-31.43,58.94-40.12,90.96-1.57,5.77-3.07,11.6-4.56,17.44-7.74,30.48-17.27,60.79-27.58,89.38-10.35,28.69-12.46,60.17-27.94,86.65-1.37,2.34-2.82,4.63-4.37,6.88-14.73,21.42-36.04,35.47-50.91,54.77-14.82,19.23-22.17,50.28-4.04,68.86,19.81,20.3,53.05,11.33,79.95,20.33,25.05,8.38,40.18,31.75,53.13,52.19,13.84,21.86,29,43.08,52.59,59.67,3.53,2.48,7.18,4.77,10.91,6.9,27.76,15.86,58.04,22.12,85.71,26.98,14.81,2.6,29.8,4.85,45.25,6.22,69.24,6.3,148.28-7.92,206.03-56.2,30.55-25.54,55.78-59.82,89.52-83.61,14.77-10.39,30.36-18.02,45.68-25.14,8.64-4.03,17.24-7.94,25.79-12.01,18.67-8.94,37.52-18.81,57.91-27.96,39.73-17.79,82-30.15,116.96-54.95,48.79-34.61,81.6-92.16,86.01-151.77,3.84-51.94-12.58-104.93-18.57-157-1.97-17.21-2.67-34.42-.25-51.63,1.89-13.44,5.6-26.73,10.37-39.92,10.64-29.2,26.16-57.36,23.78-86.71-.33-4.09-1.01-8.18-2.07-12.27-3.7-14.39-11.71-27.27-20.51-39.2-11.39-15.45-24.46-29.97-38.67-43.19-11.93-11.11-26.48-21.66-41.78-21.29-17.53,.42-29.39,13.45-46.03,20.14-4.36,1.75-8.86,3-13.48,3.81-18.58,3.28-38.38-.12-56.75-6.51-2.71-.94-5.38-1.94-8.01-2.99-24.78-9.92-52.4-23.46-78.02-16.59-2.87,.78-5.61,1.71-8.23,2.79-33.5,13.85-47.86,50.43-90.4,54.56-4.81,.47-9.64,1.15-14.46,1.88-21.73,3.34-43.65,9.1-64.32,17.36-17.73,7.08-33.83,16.41-47.9,28.91-14.05,12.49-25.13,26.05-38.48,39.61-11.51,11.69-25.11,22.85-39.25,34.02-13.62,10.75-27.33,20.96-42.65,27.98-5.64,2.59-11.35,4.58-17.13,6.05-19.15,4.88-38.8,3.86-58.93,7.66-1.6,.3-3.19,.63-4.78,1-32.16,7.36-59.94,29.27-79.43,55.9Z"/><path class="cls-1" d="M1105.29,2269.01c-21.12,29.02-33.12,63.56-41.47,98.12-1.51,6.23-2.93,12.52-4.34,18.83-7.34,32.99-16.89,65.66-29.25,95.78-11.16,27.2-14.57,56.96-29.65,82.63-1.33,2.26-2.73,4.49-4.21,6.69-14.08,20.9-33.39,35.43-46.4,54.58-12.94,19.05-18.7,48.66-1.15,66.67,19.2,19.7,50.84,12.64,76.92,21.4,24.26,8.15,39.47,29.8,53.2,48.01,15.23,20.2,32.44,38.57,56.5,54.54,3.6,2.39,7.3,4.63,11.06,6.78,28.02,15.97,56.66,24.86,82.96,32.5,14.04,4.08,28.25,7.85,43.09,10.64,66.55,12.72,146.79,2.46,207-42.42,32.95-24.56,60.69-58.45,94.94-84.13,14.98-11.21,30.5-20.11,45.56-28.66,8.5-4.83,16.92-9.62,25.31-14.52,18.35-10.78,36.98-22.31,57.87-32.33,40.67-19.47,85.45-29.66,122.59-53.89,50.52-32.95,85.01-90.31,91.81-150.18,6.03-53.03-8.23-107.77-14.59-161.36-2.09-17.67-3.16-35.34-1.24-53.02,1.51-13.87,4.79-27.61,9.37-41.24,10.19-30.09,26.29-58.95,24.18-89.23-.29-4.21-.94-8.42-1.96-12.63-3.58-14.82-11.45-28.25-20.21-40.68-11.11-15.78-24.07-30.65-38.25-44.14-11.91-11.35-26.35-22.02-41.58-22.61-17.51-.68-30.09,10.34-47.07,16.3-4.43,1.55-8.99,2.69-13.67,3.49-18.84,3.19-38.66,1.04-57.32-4.56-2.76-.82-5.48-1.72-8.15-2.66-25.22-8.99-52.91-22.47-78.88-16.78-2.9,.65-5.69,1.43-8.37,2.38-34.14,12.05-50.98,46.38-92.69,52.29-4.81,.68-9.6,1.6-14.4,2.56-21.61,4.34-43.33,11.02-64.25,19.22-17.95,7.03-34.51,15.7-49.36,26.76-15.38,11.46-28.4,23.36-43.22,35.97-12.81,10.9-27.37,21.71-42.03,33.35-14.08,11.18-27.67,22.45-43.12,30.45-5.74,2.97-11.54,5.28-17.41,7.02-19.65,5.84-39.83,5.13-60.83,9.17-1.65,.32-3.3,.66-4.95,1.04-33.34,7.65-62.2,30.27-82.35,57.87Z"/><path class="cls-1" d="M1093.36,2264.8c-22.51,31.01-34.82,68.17-42.82,105.29-1.44,6.68-2.78,13.44-4.12,20.22-6.94,35.51-16.4,70.55-30.92,102.17-11.83,25.76-16.69,53.75-31.36,78.6-1.29,2.19-2.64,4.36-4.05,6.49-13.44,20.37-30.74,35.37-41.89,54.39-11.07,18.88-15.23,47.04,1.74,64.47,18.59,19.09,48.62,13.94,73.88,22.47,23.47,7.93,38.85,27.83,53.27,43.84,16.72,18.55,35.87,34.06,60.4,49.41,3.67,2.3,7.42,4.5,11.21,6.65,28.27,16.07,55.27,27.58,80.2,38.03,13.28,5.56,26.71,10.84,40.94,15.06,63.85,19.15,145.42,12.95,207.97-28.64,35.4-23.53,65.6-57.07,100.36-84.64,15.19-12.02,30.65-22.2,45.45-32.17,8.35-5.64,16.59-11.3,24.83-17.04,18.03-12.63,36.44-25.82,57.84-36.71,41.61-21.15,88.87-29.21,128.22-52.82,52.21-31.33,88.45-88.46,97.62-148.59,8.25-54.12-3.87-110.6-10.62-165.73-2.21-18.12-3.66-36.27-2.22-54.4,1.13-14.3,3.99-28.48,8.37-42.56,9.73-30.98,26.42-60.55,24.58-91.75-.26-4.34-.87-8.67-1.86-12.99-3.46-15.25-11.19-29.22-19.91-42.17-10.84-16.11-23.68-31.33-37.83-45.09-11.9-11.59-26.23-22.38-41.38-23.92-17.5-1.78-30.78,7.24-48.11,12.46-4.5,1.36-9.13,2.39-13.86,3.16-19.09,3.1-38.94,2.2-57.89-2.6-2.8-.7-5.57-1.49-8.3-2.34-25.67-8.06-53.41-21.49-79.74-16.97-2.94,.51-5.77,1.16-8.51,1.97-34.76,10.25-54.09,42.36-94.98,50.02-4.8,.9-9.57,2.05-14.34,3.23-21.49,5.34-43.01,12.94-64.19,21.08-18.18,6.99-35.24,14.95-50.82,24.61-16.75,10.39-31.68,20.67-47.95,32.32-14.12,10.11-29.64,20.56-44.8,32.68-14.54,11.62-28,23.95-43.6,32.91-5.84,3.36-11.73,5.98-17.69,7.99-20.14,6.8-40.85,6.4-62.73,10.68-1.71,.33-3.41,.69-5.12,1.09-34.52,7.95-64.47,31.27-85.28,59.85Z"/><path class="cls-1" d="M1081.43,2260.59c-23.9,33-36.52,72.78-44.16,112.45-1.38,7.13-2.64,14.36-3.9,21.61-6.54,38.02-15.78,75.47-32.59,108.57-12.37,24.35-18.81,50.54-33.07,74.58-1.26,2.12-2.55,4.22-3.89,6.3-12.79,19.84-28.09,35.32-37.38,54.2-9.2,18.7-11.77,45.42,4.63,62.27,17.99,18.49,46.41,15.24,70.84,23.54,22.69,7.71,38.33,25.82,53.35,39.66,18.3,16.87,39.31,29.56,64.31,44.27,3.74,2.2,7.54,4.36,11.35,6.53,28.52,16.17,53.89,30.29,77.45,43.55,12.51,7.04,25.17,13.84,38.79,19.48,61.15,25.57,144.12,23.54,208.95-14.86,37.89-22.44,70.51-55.69,105.77-85.16,15.39-12.84,30.79-24.29,45.33-35.68,8.21-6.45,16.27-12.98,24.35-19.56,17.71-14.48,35.9-29.33,57.8-41.09,42.56-22.83,92.27-28.79,133.86-51.76,53.87-29.76,91.94-86.61,103.42-147,10.5-55.21,.49-113.43-6.65-170.1-2.33-18.58-4.16-37.19-3.21-55.79,.75-14.74,3.18-29.36,7.37-43.89,9.27-31.87,26.55-62.15,24.99-94.27-.22-4.46-.8-8.91-1.75-13.35-3.34-15.69-10.94-30.19-19.61-43.65-10.57-16.42-23.3-32.01-37.41-46.05-11.89-11.83-26.1-22.75-41.18-25.23-17.48-2.88-31.48,4.14-49.15,8.62-4.57,1.16-9.26,2.09-14.05,2.84-19.35,3.01-39.22,3.35-58.46-.65-2.85-.59-5.67-1.27-8.45-2.02-26.12-7.14-53.92-20.5-80.61-17.16-2.97,.38-5.85,.9-8.66,1.57-35.39,8.46-57.21,38.38-97.27,47.76-4.79,1.12-9.54,2.5-14.28,3.9-21.37,6.33-42.69,14.86-64.12,22.94-18.41,6.94-36.01,14.15-52.28,22.46-18.17,9.27-34.97,17.98-52.69,28.68-15.44,9.32-31.91,19.41-47.57,32-15,12.05-28.33,25.45-44.08,35.38-5.94,3.75-11.92,6.68-17.97,8.95-20.63,7.77-41.88,7.67-64.63,12.19-1.76,.35-3.53,.73-5.29,1.13-35.7,8.25-66.73,32.27-88.2,61.82Z"/><path class="cls-1" d="M1069.5,2256.38c-25.29,34.99-38.22,77.4-45.51,119.61-1.32,7.58-2.5,15.28-3.67,23-6.14,40.54-15.04,80.47-34.27,114.96-12.82,23-20.92,47.33-34.78,70.56-1.22,2.05-2.46,4.08-3.73,6.1-12.15,19.32-25.45,35.26-32.87,54.01-7.33,18.52-8.3,43.8,7.52,60.08,17.38,17.89,44.19,16.54,67.8,24.62,21.9,7.49,37.91,23.74,53.42,35.49,19.99,15.13,42.74,25.05,68.21,39.14,3.81,2.11,7.65,4.23,11.5,6.4,28.77,16.28,52.51,33,74.69,49.07,11.74,8.51,23.63,16.84,36.63,23.89,58.46,31.99,142.88,34.24,209.92-1.08,40.43-21.3,75.41-54.31,111.19-85.68,15.6-13.65,30.93-26.38,45.22-39.2,8.07-7.26,15.94-14.66,23.88-22.07,17.39-16.32,35.36-32.83,57.76-45.47,43.5-24.51,95.66-28.4,139.49-50.7,55.51-28.24,95.45-84.75,109.22-145.41,12.78-56.3,4.84-116.26-2.67-174.46-2.45-19.03-4.67-38.11-4.2-57.18,.37-15.17,2.37-30.24,6.37-45.21,8.82-32.75,26.68-63.74,25.39-96.78-.18-4.58-.73-9.15-1.64-13.7-3.21-16.12-10.69-31.15-19.31-45.13-10.32-16.74-22.91-32.69-36.99-47-11.88-12.07-25.98-23.12-40.99-26.55-17.46-3.99-32.17,1.05-50.19,4.78-4.64,.96-9.39,1.79-14.24,2.51-19.61,2.92-39.51,4.51-59.02,1.31-2.9-.47-5.76-1.04-8.6-1.7-26.56-6.21-54.42-19.52-81.47-17.35-3,.25-5.93,.63-8.8,1.16-36.01,6.68-60.32,34.43-99.56,45.49-4.78,1.35-9.51,2.95-14.21,4.57-21.24,7.33-42.37,16.78-64.06,24.8-18.64,6.89-36.81,13.31-53.75,20.31-19.61,8.1-38.25,15.28-57.42,25.03-16.75,8.53-34.17,18.27-50.34,31.33-15.46,12.48-28.66,26.96-44.56,37.85-6.04,4.13-12.11,7.38-18.25,9.92-21.12,8.75-42.91,8.94-66.53,13.7-1.82,.36-3.64,.76-5.47,1.18-36.88,8.54-69,33.26-91.13,63.8Z"/><path class="cls-1" d="M1057.57,2252.17c-26.68,36.99-39.92,82.01-46.85,126.78-1.25,8.03-2.35,16.19-3.45,24.39-5.74,43.05-14.16,85.56-35.94,121.35-13.2,21.7-23.04,44.12-36.49,66.53-1.18,1.97-2.37,3.94-3.58,5.9-11.5,18.79-22.81,35.2-28.36,53.82-5.47,18.33-4.83,42.18,10.41,57.88,16.77,17.28,41.98,17.84,64.76,25.69,21.12,7.27,37.55,21.58,53.49,31.31,21.77,13.28,46.17,20.54,72.12,34.01,3.88,2.02,7.77,4.09,11.65,6.28,29.03,16.38,51.14,35.7,71.94,54.59,10.98,9.98,22.08,19.83,34.48,28.31,55.76,38.42,141.68,45.04,210.89,12.7,42.98-20.08,80.32-52.93,116.61-86.19,15.81-14.47,31.07-28.47,45.1-42.71,7.93-8.07,15.61-16.34,23.4-24.59,17.06-18.17,34.82-36.34,57.72-49.85,44.45-26.19,99.02-28.05,145.12-49.63,57.13-26.75,99-82.88,115.03-143.82,15.09-57.37,9.2-119.09,1.3-178.83-2.57-19.49-5.17-39.04-5.18-58.57,0-15.6,1.57-31.11,5.36-46.53,8.36-33.64,26.81-65.34,25.79-99.3-.14-4.71-.66-9.39-1.54-14.06-3.09-16.55-10.45-32.12-19.01-46.61-10.06-17.05-22.52-33.37-36.57-47.95-11.86-12.31-25.85-23.49-40.79-27.86-17.44-5.11-32.86-2.05-51.23,.94-4.71,.77-9.52,1.49-14.43,2.18-19.87,2.83-39.79,5.66-59.59,3.26-2.94-.35-5.86-.82-8.74-1.37-27.01-5.29-54.93-18.54-82.33-17.54-3.04,.12-6.02,.36-8.94,.75-36.63,4.91-63.41,30.52-101.85,43.22-4.77,1.58-9.47,3.4-14.15,5.24-21.12,8.33-42.05,18.7-63.99,26.67-18.87,6.85-37.61,12.41-55.21,18.15-21.07,6.87-41.54,12.57-62.15,21.39-18.07,7.73-36.44,17.12-53.11,30.66-15.91,12.92-28.99,28.47-45.04,40.31-6.13,4.53-12.3,8.08-18.53,10.89-21.61,9.73-43.94,10.22-68.43,15.2-1.87,.38-3.75,.79-5.64,1.23-38.06,8.84-71.27,34.26-94.05,65.77Z"/><path class="cls-1" d="M1045.64,2247.96c-28.07,38.98-41.61,86.62-48.2,133.94-1.19,8.49-2.21,17.11-3.23,25.78-5.34,45.57-13.14,90.75-37.61,127.75-13.52,20.45-25.16,40.9-38.21,62.51-1.15,1.9-2.29,3.8-3.42,5.71-10.85,18.26-20.17,35.14-23.85,53.63-3.61,18.14-1.36,40.56,13.3,55.68,16.16,16.68,39.76,19.15,61.72,26.76,20.33,7.05,37.23,19.32,53.57,27.13,23.6,11.28,49.61,16.03,76.02,28.88,3.95,1.92,7.89,3.96,11.8,6.15,29.28,16.48,49.77,38.39,69.18,60.11,10.22,11.44,20.54,22.83,32.33,32.73,53.06,44.84,140.5,55.93,211.87,26.48,45.55-18.8,85.23-51.55,122.03-86.71,16.02-15.28,31.21-30.56,44.99-46.23,7.79-8.87,15.29-18.02,22.92-27.1,16.74-20.02,34.28-39.85,57.68-54.23,45.39-27.87,102.38-27.73,150.75-48.57,58.74-25.31,102.57-80.99,120.83-142.23,17.43-58.44,13.55-121.92,5.27-183.2-2.69-19.94-5.72-39.96-6.17-59.95-.42-16.03,.76-31.99,4.36-47.85,7.91-34.53,26.94-66.94,26.2-101.82-.1-4.83-.59-9.64-1.43-14.42-2.97-16.99-10.21-33.07-18.71-48.09-9.81-17.36-22.13-34.05-36.15-48.9-11.85-12.55-25.73-23.86-40.59-29.17-17.42-6.22-33.55-5.13-52.26-2.9-4.78,.57-9.66,1.18-14.61,1.86-20.12,2.74-40.07,6.82-60.16,5.22-2.99-.23-5.95-.59-8.89-1.05-27.46-4.36-55.43-17.55-83.19-17.73-3.07-.01-6.1,.09-9.09,.34-37.25,3.14-66.5,26.63-104.14,40.95-4.76,1.81-9.44,3.85-14.09,5.91-21,9.33-41.73,20.62-63.93,28.53-19.1,6.8-38.41,11.48-56.67,16-22.52,5.58-44.83,9.86-66.89,17.75-19.38,6.93-38.71,15.98-55.88,29.98-16.37,13.35-29.31,29.98-45.51,42.78-6.23,4.92-12.48,8.78-18.81,11.85-22.09,10.72-44.97,11.49-70.33,16.71-1.93,.4-3.86,.82-5.81,1.27-39.24,9.13-73.53,35.26-96.97,67.75Z"/><path class="cls-1" d="M1033.71,2243.75c-29.46,40.97-43.31,91.24-49.55,141.1-1.12,8.94-2.06,18.03-3.01,27.18-4.94,48.08-11.97,96.08-39.28,134.14-13.81,19.25-27.27,37.69-39.92,58.49-1.11,1.83-2.2,3.67-3.26,5.51-10.21,17.73-17.54,35.08-19.34,53.44-1.76,17.96,2.11,38.94,16.18,53.49,15.56,16.08,37.55,20.45,58.69,27.83,19.55,6.82,36.9,16.97,53.64,22.96,25.45,9.11,53.04,11.52,79.93,23.74,4.02,1.83,8.01,3.82,11.95,6.03,29.53,16.59,48.42,41.09,66.43,65.63,9.47,12.91,19,25.82,30.17,37.15,50.37,51.27,139.32,66.92,212.84,40.26,48.13-17.45,90.14-50.18,127.44-87.22,16.22-16.1,31.35-32.64,44.87-49.74,7.64-9.68,14.96-19.7,22.44-29.62,16.42-21.86,33.74-43.35,57.65-58.61,46.34-29.55,105.73-27.45,156.38-47.5,60.35-23.9,106.16-79.1,126.64-140.64,19.79-59.49,17.91-124.76,9.25-187.57-2.81-20.4-6.22-40.88-7.16-61.34-.8-16.46-.04-32.87,3.36-49.18,7.45-35.42,27.07-68.54,26.6-104.34-.07-4.95-.52-9.88-1.33-14.78-2.85-17.42-9.98-34.03-18.41-49.58-9.57-17.66-21.74-34.74-35.73-49.85-11.84-12.8-25.6-24.24-40.39-30.49-17.4-7.34-34.24-8.22-53.3-6.74-4.85,.38-9.79,.88-14.8,1.53-20.38,2.65-40.35,7.97-60.73,7.17-3.04-.11-6.05-.37-9.04-.73-27.9-3.44-55.93-16.57-84.06-17.92-3.11-.14-6.18-.18-9.23-.07-37.87,1.38-69.56,22.77-106.44,38.68-4.75,2.05-9.41,4.3-14.02,6.59-20.87,10.33-41.41,22.54-63.86,30.39-19.33,6.75-39.2,10.5-58.14,13.85-23.97,4.24-48.11,7.15-71.62,14.1-20.7,6.12-40.97,14.83-58.65,29.31-16.83,13.79-29.63,31.5-45.99,45.24-6.32,5.31-12.67,9.49-19.09,12.82-22.57,11.71-46,12.76-72.23,18.22-1.98,.41-3.98,.85-5.98,1.32-40.42,9.43-75.8,36.26-99.9,69.72Z"/><path class="cls-1" d="M1021.78,2239.53c-30.85,42.97-45.01,95.85-50.89,148.27-1.06,9.39-1.92,18.95-2.79,28.57-4.54,50.6-10.66,101.57-40.95,140.54-14.07,18.1-29.39,34.48-41.63,54.47-1.08,1.76-2.11,3.53-3.1,5.32-9.56,17.21-14.92,35.02-14.83,53.25,.09,17.77,5.58,37.32,19.07,51.29,14.95,15.47,35.33,21.75,55.65,28.9,18.76,6.6,36.55,14.52,53.71,18.78,27.28,6.77,56.48,7.01,83.83,18.61,4.09,1.74,8.13,3.68,12.1,5.91,29.78,16.69,47.11,43.75,63.67,71.15,8.74,14.36,17.45,28.82,28.02,41.57,47.67,57.69,138.13,77.98,213.81,54.04,50.71-16.04,95.05-48.8,132.86-87.74,16.43-16.91,31.5-34.73,44.75-53.25,7.5-10.49,14.64-21.38,21.96-32.14,16.1-23.71,33.2-46.86,57.61-62.99,47.28-31.23,109.08-27.2,162.01-46.44,61.95-22.52,109.77-77.19,132.44-139.05,22.18-60.52,22.26-127.59,13.22-191.93-2.93-20.86-6.72-41.8-8.15-62.73-1.18-16.89-.85-33.74,2.36-50.5,6.99-36.31,27.2-70.13,27-106.85-.03-5.07-.45-10.12-1.22-15.14-2.73-17.85-9.76-34.99-18.11-51.06-9.34-17.97-21.35-35.42-35.31-50.8-11.83-13.04-25.45-24.65-40.19-31.8-17.36-8.5-34.94-11.27-54.34-10.58-4.92,.19-9.92,.58-14.99,1.21-20.64,2.56-40.64,9.13-61.29,9.13-3.08,0-6.14-.14-9.19-.41-28.35-2.51-56.44-15.58-84.92-18.11-3.14-.27-6.26-.44-9.37-.47-38.5-.3-72.6,18.94-108.73,36.41-4.73,2.29-9.37,4.76-13.96,7.26-20.75,11.32-41.09,24.46-63.8,32.25-19.56,6.71-39.97,9.5-59.6,11.7-25.4,2.85-51.41,4.4-76.36,10.46-22.02,5.28-43.24,13.68-61.42,28.64-17.29,14.22-29.95,33.01-46.47,47.71-6.41,5.7-12.85,10.19-19.37,13.78-23.05,12.71-47.03,14.03-74.13,19.73-2.04,.43-4.09,.88-6.16,1.36-41.6,9.73-78.07,37.25-102.82,71.7Z"/><path class="cls-1" d="M1009.85,2235.32c-32.24,44.96-46.71,100.46-52.24,155.43-.99,9.84-1.78,19.87-2.57,29.96-4.14,53.11-9.2,107.23-42.63,146.93-14.32,17.01-31.51,31.27-43.34,50.44-1.04,1.68-2.02,3.39-2.94,5.12-8.91,16.68-12.33,34.96-10.32,53.06,1.9,17.59,9.04,35.7,21.96,49.1,14.34,14.87,33.12,23.05,52.61,29.97,17.98,6.38,36.14,12,53.79,14.6,29.05,4.29,59.91,2.5,87.74,13.48,4.16,1.64,8.25,3.55,12.25,5.78,30.03,16.79,45.75,46.47,60.92,76.67,7.99,15.83,15.91,31.82,25.87,45.99,44.97,64.11,136.91,89.11,214.78,67.82,53.29-14.57,99.95-47.42,138.28-88.26,16.64-17.72,31.64-36.82,44.64-56.77,7.36-11.3,14.31-23.05,21.48-34.65,15.78-25.56,32.67-50.37,57.57-67.36,48.23-32.91,112.43-26.98,167.65-45.38,63.56-21.18,113.4-75.26,138.25-137.46,24.58-61.54,26.62-130.42,17.19-196.3-3.05-21.31-7.22-42.73-9.13-64.12-1.57-17.33-1.66-34.62,1.36-51.82,6.54-37.19,27.33-71.73,27.41-109.37,.01-5.2-.38-10.37-1.11-15.5-2.61-18.29-9.57-35.92-17.81-52.54-9.14-18.25-20.96-36.1-34.89-51.75-11.81-13.28-25.32-25.02-39.99-33.11-17.33-9.61-35.63-14.36-55.38-14.42-4.99,0-10.05,.28-15.18,.88-20.9,2.47-40.92,10.28-61.86,11.08-3.13,.12-6.24,.08-9.33-.08-28.8-1.59-56.94-14.6-85.78-18.3-3.17-.4-6.34-.71-9.52-.88-39.13-2.08-75.62,15.12-111.02,34.14-4.71,2.53-9.34,5.21-13.9,7.93-20.63,12.32-40.77,26.38-63.73,34.11-19.79,6.66-40.72,8.48-61.06,9.55-26.8,1.42-54.69,1.7-81.09,6.81-23.33,4.48-45.5,12.54-64.19,27.96-17.75,14.65-30.24,34.55-46.95,50.17-6.5,6.1-13.03,10.91-19.65,14.75-23.51,13.73-48.06,15.3-76.03,21.24-2.09,.44-4.2,.91-6.33,1.41-42.78,10.02-80.33,38.25-105.74,73.67Z"/><path class="cls-1" d="M997.92,2231.11c-33.63,46.95-48.41,105.08-53.58,162.6-5.81,64.54-2.96,136.81-46.64,184.67-14.58,15.97-33.62,28.06-45.05,46.42-20.1,32.29-10.13,77.29,16.25,104.69,26.38,27.4,65.45,39.39,103.43,41.47,35.32,1.93,73.15-3.23,104.04,14,46.16,25.75,54.7,87.26,81.88,132.6,42.28,70.54,135.68,100.31,215.76,81.6,80.08-18.71,146.1-78.42,188.22-149.06,23.13-38.78,41.6-82.93,78.53-108.91,49.17-34.59,115.77-26.79,173.28-44.31,65.17-19.86,117.05-73.32,144.05-135.87,27-62.55,30.98-133.25,21.17-200.67-5.74-39.45-16.05-79.28-9.76-118.65,6.08-38.08,27.46-73.33,27.81-111.89,.22-24.31-8.03-47.95-18.52-69.88-27.61-57.74-82.46-111.98-146.06-104.82-21.15,2.38-41.2,11.44-62.43,13.04-35.91,2.7-69.94-16.06-105.78-19.54-45.14-4.38-89.12,15.77-127.15,40.47-20.51,13.32-40.45,28.3-63.67,35.97-20.02,6.61-41.44,7.43-62.52,7.4-53.1-.08-111.9-3.42-152.79,30.46-18.21,15.09-30.57,36.05-47.43,52.64-31.94,31.44-64.52,30.57-104.36,39.92-43.96,10.32-82.6,39.25-108.67,75.65Z"/></g><path class="cls-2" d="M627.96,2395.5c-36.16,13.55-64.34,41.89-93.45,67.26-29.11,25.37-62.86,49.43-101.44,51.09-12.41,.53-24.84-1.31-37.23-.52-28.79,1.84-55.55,18.27-73.33,40.99s-27.15,51.21-30.31,79.89c-.97,8.8-1.29,18.13,2.72,26.02,8.85,17.42,32.57,18.97,50.07,27.67,23.82,11.84,36.59,38.06,45.2,63.22,8.61,25.17,15.31,52.12,32.94,72.03,28.23,31.88,79.21,36.38,117.66,18.07,38.45-18.31,65.4-55.04,82.01-94.25,5.58-13.17,10.3-26.98,19.1-38.25,31.06-39.8,100-34.1,127.98-76.13,11.77-17.68,13.32-40.03,14.5-61.24,1.25-22.44,2.5-44.88,3.76-67.32,.67-12.01,1.22-24.65-4.12-35.43-6.97-14.08-19.45-26.84-27.36-40.43-8.71-14.96-8.45-16.66-24.7-22.87-32.92-12.58-69.4-22.79-104.01-9.82Z"/><path class="cls-2" d="M406.84,2342.03c12.58,11.95,32.28,13.12,49.03,8.61,16.75-4.52,31.75-13.79,47.66-20.72s34.03-11.51,50.51-6.08c7.49,2.47,14.27,6.9,21.91,8.87,17.35,4.47,35.17-4.47,50.18-14.25,74.52-48.52-54.08-94.6-98.22-87-28.75,4.95-61.85,18.82-78.34,43.38-3.15,4.69-35.53,74.02-42.73,67.18Z"/><path class="cls-2" d="M1684.61,1073.15c25.35-10.02,54.51,7.31,68.74,30.55,14.24,23.25,18.03,51.14,25.11,77.47,8.54,31.7,22.25,62,40.44,89.33,4.45,6.69,9.28,13.46,10.88,21.34,1.6,7.88-1.07,17.29-8.3,20.79-3.52,1.7-7.58,1.8-11.49,1.62-39.87-1.84-76.81-31.94-86.67-70.62-7-27.44-2.87-60.5-23.4-80-12.04-11.43-29.52-14.67-46.02-16.48-16.5-1.81-33.77-2.89-48.05-11.35-14.28-8.46-24.15-27.18-16.69-42.01,3.34-6.64,9.47-11.36,15.4-15.85,18.71-14.16,42.44-29.05,63.99-19.77,7.45,3.21,13.53,9.03,20.95,12.29,12.41,5.47,28.02,2.62,37.7-6.87"/></g></svg>