<?xml version="1.0" encoding="UTF-8"?><svg id="Layer_2" xmlns="http://www.w3.org/2000/svg" viewBox="0 0 305.66 663.26"><defs><style>.cls-1{fill:#1f1f22;}.cls-2{fill:#b8c1d2;}</style></defs><g id="Penguin"><g><path class="cls-2" d="M285.06,71.98c-3.35,1.73-7.46,.68-10.88-.91-9.43-4.39-16.61-12.37-23.53-20.15,1.19,1.33,1.59,4.69,1.96,6.4,.5,2.31,.79,4.67,.87,7.03,.14,4.12-.34,8.29-1.57,12.23-2.44,7.82-7.69,14.32-14.2,19.18,0,0-9.1-1.4-3.85-38.51,0,0-19.96,38.51,31.86,101.88,17.15,29.75,8.05,52.51,8.05,52.51,.15-.37,2.19-1.35,2.57-1.69,2.56-2.32,4.28-5.57,5.65-8.69,2.91-6.65,4.41-13.91,5.47-21.05,.83-5.58,1.33-11.21,1.65-16.84,.35-6.18-.2-12.62,.97-18.72,.4-2.09,1.03-4.13,2-6.02,2.95-5.75,8.77-9.67,11.51-15.51,4.66-9.92,.42-23.81-2.57-33.77-2.92-9.72-7.14-19.04-12.47-27.68-10.29-16.68-24.62-30.74-41.14-41.22-15.69-9.96-33.5-16.86-51.95-19.4C190.67,.37,185.84,.02,181,0c-52.51-.18-97.33,43.94-114.48,76.85-17.15,32.91-55.67,100.13-42.36,248.57,13.3,148.44,59.52,165.95,44.81,244.37C47.97,632.44,.03,588.01,0,587.99c.74,.68,1.15,2.96,1.53,3.87,1.4,3.34,2.94,6.61,4.59,9.83,4.8,9.31,10.62,18.29,18.02,25.75,7.81,7.87,17.82,14.03,29.19,14.24,15.66,.29,29.28-10.11,39.64-20.83,8.48-8.78,17.54-18.83,21.37-30.64,3.03-9.34,2.52-19.33,1.58-28.96-.95-9.74-3.28-19.09-6.26-28.4-6.33-19.76-15.31-38.64-20.21-58.86-2.53-10.47-3.84-21.55-3.15-32.32,.45-6.93,1.03-14.22,3.22-20.86,1.6-4.86,4.27-9.53,8.19-12.9,1.94-1.66,4.13-2.44,5.91-4.28,2.1-2.17,3.95-4.59,5.52-7.18,7.58-12.51,8.55-27.99,7.17-42.21-1.06-10.85-3.54-21.55-6.72-31.96-23.11-75.62-16.45-90.33-16.45-90.33,0,0,7.7,50.06,22.06,78.07,9.06,17.68,10.74,38.87,9.87,58.42-.11,2.43-.26,4.86-.49,7.28-.04,.47-.36,1.53-.2,1.97,.77,2.1,4.84,1.22,6.43,.43,2-1,3.55-2.71,4.83-4.54,13.4-19.18,22.22-42.08,25.67-65.17,3.96-26.56,1.38-55.43-7.71-80.74-2.37-6.59-5.23-12.98-7.86-19.46-3.6-8.84-6.89-17.94-8.32-27.42-1.29-8.56-1.44-19.38,3.49-26.93,1.22-1.87,2.79-3.51,4.62-4.78,.57-.4,1.18-.78,1.54-1.38,.36-.61,.39-1.35,.41-2.06,.57-20.56,1.21-41.31,6.07-61.39,.95-3.95,2.07-7.85,3.37-11.7,3.46-10.24,8.35-20.51,16.18-28.16,7.71-7.53,18.29-10.83,28.93-10.35,10.52,.47,23.26,4.25,31.15,11.49,3.73,3.42,6.3,8.54,5.33,13.51,2.55-10.37-1.56-21.61-8.77-29.48-7.22-7.87-17.17-12.75-27.37-15.93,17.97,.05,35.89,5.75,50.59,16.11,14.69,10.35,26.1,25.31,32.19,42.22-.02,0-.03,.02-.05,.02Z"/><path class="cls-2" d="M234.57,104.95s51.81,147.3-10.15,285.41c0,0,65.64-90.85,27.83-256.27l-17.68-29.14Z"/><path class="cls-2" d="M224.41,390.36c.19,18.98-.96,38.07-2.88,56.94-1.62,15.94-3.92,31.87-7.71,47.45-4.03,16.53-10.73,30.68-19.45,45.23-13.87,23.15-21.65,52.01-17.92,79.16,0,0,30.11-18.91,43.41,25.21,0,0-22.06-11.9-22.41-6.3,0,0,11.9,11.55,7.7,25.21,0,0-14.54-23.81-29.33-12.25-14.79,11.55-57.97,1.97-65.09-52.58v-14.64s-1.86,31.16,27.19,56.37c0,0,14.35-4.2,12.6-22.41-1.75-18.21,.7-50.76,20.66-93.13,19.95-42.36,10.16-76.31,10.15-76.32,3.18,11.01,4.98,22.44,4.96,33.91-.01,9.62-2.1,19.08-5.24,28.14-3.18,9.18-8.26,17.67-11.36,26.8-4.85,14.29-9.34,28.93-12,43.84-1.86,10.45-7.24,42.96,12.35,40.17,0,0-4.2-44.64,23.37-89.54,27.57-44.9,30.98-141.26,30.98-141.26Z"/><path class="cls-2" d="M230.82,74.05c-1.06-7.63-6.87-14.05-13.99-16.68-7.21-2.96-15.4-.75-21.22,4.11-17.84,14.87-23.77,39.56-22.97,61.96,.85,22.96,8.21,44.91,14.33,66.89,13.07,45.45,16.26,90.4-3.41,134.6-6.34,13.82-15.54,26.82-28.47,35.15,6.38-4.21,11.9-9.62,16.52-15.67,13.79-18.37,20.28-41.14,23.77-63.57,4.38-30.32-1.14-61.04-9.37-90.25-8.07-29.12-18.34-59.47-12.41-89.99,1.5-7.5,3.81-14.9,7.45-21.65,6.64-12.66,20.06-28.08,35.87-21.8,7.12,2.71,12.92,9.24,13.9,16.9h0Z"/><path class="cls-2" d="M181.44,173.92c-2.18-21.99-2.18-45.29,7.45-65.68,1.77-3.75,3.95-7.71,7.63-9.94,6.51-3.87,14.58,.23,18.54,5.89,22.05,33.22,19.6,93.25,5.57,129.42-3.85,10.44-8.73,20.46-13.98,30.25,5.21-9.81,10.04-19.85,13.86-30.3,13.84-36.08,16.12-95.94-5.95-129-3.18-4.34-8.38-7.72-13.91-7-12.65,1.49-18.42,32.36-19.04,43.04-.87,11.05-.32,22.18,.83,33.21,0,0-.99,.1-.99,.1h0Z"/><path class="cls-2" d="M181.86,168.56s1.03,8.01,1.69,10.11c.66,2.1-2.23-5.38-2.23-5.38l.54-4.73Z"/><path class="cls-1" d="M128.25,132.91c-2.45-9.65-7.05-21.68-18.71-21.96-6.81,.12-11.12,6.46-13.64,12.1-3.68,8.35-4.56,17.71-3.47,26.73,3.23,26.47,21.46,47.36,33.57,70.25,10.14,18.43,18.38,38.23,21.59,59.12,1.59,10.07,2.36,22.33-5.54,30.07,0,0-.14-.14-.14-.14,3.64-3.8,5.25-9.04,5.57-14.19,.6-23.97-12.03-52.97-23.22-73.91-11.87-23.11-30.01-44.39-32.98-71.07-1.02-9.19-.03-18.75,3.84-27.21,2.68-5.84,7.31-12.33,14.41-12.35,11.98,.44,16.52,12.6,18.9,22.51,0,0-.19,.05-.19,.05h0Z"/><path class="cls-2" d="M240.56,359.42s-14.22,31.29-14.22,32.86-3.29,38.59-3.83,44.62l-1.42,1.94,3.33-48.49,16.15-30.94Z"/><path class="cls-1" d="M280.78,192.73s6.65-22.06,2.63-62.14c0,0-9.28,40.09-2.63,62.14Z"/></g></g></svg>