<?xml version="1.0" encoding="UTF-8"?><svg id="Layer_2" xmlns="http://www.w3.org/2000/svg" viewBox="0 0 329.78 577.47"><defs><style>.cls-1{fill:#1f1f22;}.cls-2{fill:#b8c1d2;}</style></defs><g id="Penguin"><g><path class="cls-2" d="M203.15,.3s34.84-4.5,74.18,21.14c0,0,38.56-3.52,52.45,14.48,0,0-75.16,6.07-78.29,55.78,0,0-8.22-32.1,39.53-49.71,0,0-42.27-5.48-51.87-2.74l36.21-13.9s-104.12-11.35-116.45,27.4c-4.5,25.64,35.62,26.23,65.17,48.73,29.55,22.51-2.74,56.95-2.74,56.95,0,0,6.33,94.66,15.2,115.02,8.87,20.35,33.92,122.13-39.67,157.1,0,0-9.92,7.31-5.74-47.49,4.18-54.8-10.44-110.65-25.57-99.69-15.14,10.96,76.2,187.37-67.33,270.35l10.96-25.05s-17.22,31.84-54.28,44.36c0,0,37.45-35.88,39.01-52.71,0,0-30.53,52.06-93.94,57.15,0,0,105.3-46.58,105.69-108.43,.39-61.85-22.7-175.75-1.57-230.95,21.14-55.19,8.22-86.12,20.75-133.09C137.39,58.04,141.31,10.68,203.15,.3Z"/><path class="cls-2" d="M192.19,74.48s93.55-13.31,106.47,134.65c12.92,147.96-34.45,250.91-75.55,299.06,0,0-3.72,24.07,13.9,14.48s39.93-.2,40.51,15.46c0,0-14.68-6.85-17.61,0,0,0,12.72,5.68,4.7,19.96,0,0-4.31-18.4-34.25,1.37-28.18,3.52-45.99-26.62-45.99-26.62,0,0-34.33,14.52-66.68,8.04,0,0,103.08,13.1,152.01-145.04,48.93-158.14,19.57-319.41-77.5-321.37Z"/><path class="cls-2" d="M180.03,33.05s-6.62,3.47,38,13.84c44.62,10.37,40.94,22.53,40.94,22.53l-5.13,10.35s5.29-24.46-40.11-30.53c-45.41-6.07-43.84-8.42-49.71-13.5l16.02-2.68Z"/><path class="cls-2" d="M211.53,34.16s13.03-2.09,19.16-.52c0,0-8.18,9.92-19.16,.52Z"/><path class="cls-2" d="M238.38,180.56c1.45-6.06,4.92-13.09,11.75-14.08,3.88-.74,7.98,.36,11.09,2.79,11.15,9,15.15,28.74,17.69,42.29,4.5,25.51,4.72,51.54,4.11,77.36-.81,30.93-1.33,62.27-9.05,92.41,7.19-30.25,7.38-61.51,8.14-92.43,.61-26.47,1.32-108.28-24.44-121.22-2.34-1.02-4.97-1.32-7.48-.9-6.75,.88-10.25,7.81-11.8,13.78h0Z"/><path class="cls-1" d="M155.66,96.53c23.13,6.34,39.59,26.13,40.7,50.23,.67,9.25-.67,18.86-5.35,27-6.81,12.18-18.65,20.38-28.06,30.19-11.67,11.69-18.73,25.28-20.47,41.75-1.2,11.35-.21,22.77,1.7,34.02-2.63-12.25-4.1-25.05-2.41-37.56,1.87-15.43,9.05-28.54,19.88-39.48,9.4-9.93,20.82-17.94,27.71-29.86,4.56-7.8,5.87-17.05,5.29-25.96-.87-23.79-16.5-43.06-38.98-50.33h0Z"/></g></g></svg>