<?xml version="1.0" encoding="UTF-8"?><svg id="Layer_2" xmlns="http://www.w3.org/2000/svg" viewBox="0 0 1652.59 4159.7"><defs><style>.cls-1{fill:none;stroke:#8fd4d7;stroke-miterlimit:10;stroke-width:3px;}.cls-2{opacity:.14;}</style></defs><g id="Penguin"><g class="cls-2"><path class="cls-1" d="M1321.75,.04c-3.33,115.55-8.62,232.75-44.28,342.7-35.66,109.96-105.79,213.51-209.34,264.9-49.98,24.8-108.07,38.16-146.32,78.78-67.26,71.43-42.19,189.95-87,277.24-40.2,78.33-129.51,118.01-215.22,138.14-85.71,20.13-176.03,27.25-254.66,66.87-158.59,79.91-228.64,271.92-236.63,449.33-3.49,77.54,2.58,157.6,35.93,227.69,104.4,219.39,421.36,255.93,550.67,461.63,117.1,186.28,37.67,439.47,123.52,642.06,76.9,181.47,266.39,282.7,435.98,383.13,169.58,100.43,347.37,238.13,368.21,434.11,2.84-13.27,5.67-26.54,8.51-39.81"/><path class="cls-1" d="M1295.1,4.02c-.69,118.07-4.95,238.65-43.14,350.34-35.59,104.08-104.05,198.42-199.03,252.87-52.39,30.03-101.45,57.61-144.36,102.41-68.64,72.23-57.97,179.56-104.87,266.97-39.14,72.97-121.78,111.03-202.09,130.96-81.92,20.32-168.73,27.74-244.73,64.98-158.29,77.57-231.02,267.32-238.33,443.66-3.17,84.16,10.44,169.15,48.64,243.57,106.11,206.7,401.85,247.44,526.5,443.97,113.87,179.22,44.07,421.71,126.33,617.5,74.03,176.37,252.6,277.54,407.41,381.11,156.53,104.72,311.71,245.23,324.56,438.13-6.6,5.04-10.53,12.6-4.31,19.61"/><path class="cls-1" d="M1268.45,8c1.95,120.59-1.21,244.54-42.01,357.98-35.33,98.24-101.88,184.71-188.71,240.84-55.01,35.56-94.99,76.91-142.4,126.03-70.25,72.8-73.69,169.15-122.74,256.71-37.91,67.67-114.04,104.09-188.95,123.78-78.13,20.53-161.45,28.2-234.79,63.09-158.01,75.18-233.98,262.7-240.04,437.98-3.14,90.76,18.14,180.66,61.35,259.45,106.64,194.43,382.34,238.95,502.34,426.32,110.64,172.16,50.46,403.95,129.14,592.93,71.16,171.27,238.89,272.63,378.85,379.09,143.61,109.23,276.05,252.33,280.91,442.14-16.03,23.36-26.74,51.74-17.12,79.03"/><path class="cls-1" d="M1241.8,11.97c4.59,123.11,2.62,250.43-40.87,365.61-34.9,92.44-99.27,172.08-178.4,228.82-57.74,41.4-88.43,96.31-140.44,149.66-71.69,73.54-89.32,158.72-140.61,246.44-36.51,62.44-106.3,97.19-175.82,116.6-74.35,20.76-154.19,28.62-224.86,61.21-157.78,72.75-236.51,258.09-241.75,432.31-2.93,97.37,25.68,192.18,74.06,275.32,106.22,182.56,362.83,230.46,478.17,408.66,107.41,165.09,56.86,386.19,131.95,568.36,68.29,166.17,225.2,268.01,350.29,377.08,130.78,114.03,240.4,259.43,237.26,446.16-25.46,41.67-42.95,90.88-29.93,138.45"/><path class="cls-1" d="M1215.15,15.95c7.22,125.63,6.54,256.33-39.74,373.25-34.31,86.69-96.23,160.31-168.08,216.79-60.47,47.53-81.85,115.72-138.48,173.29-73.1,74.31-104.86,148.29-158.49,236.17-34.96,57.29-98.56,90.32-162.68,109.42-70.58,21.01-146.95,29-214.93,59.32-157.58,70.27-238.98,253.49-243.46,426.64-2.69,103.98,33.05,203.73,86.77,291.2,105.04,171.03,343.32,221.97,454.01,391.01,104.18,158.03,63.26,368.43,134.76,543.8,65.42,161.07,211.49,263.75,321.72,375.06,118.01,119.16,204.74,266.53,193.62,450.17-34.89,59.98-59.15,130.02-42.74,197.86"/><path class="cls-1" d="M1188.5,19.93c9.86,128.15,10.58,262.24-38.6,380.88-33.57,80.98-92.8,149.19-157.77,204.76-63.1,53.98-75.26,135.15-136.52,196.91-74.49,75.09-120.3,137.88-176.36,225.91-33.25,52.2-90.82,83.51-149.55,102.23-66.81,21.3-139.74,29.35-205,57.43-157.42,67.73-241.4,248.89-245.17,420.97-2.42,110.59,40.23,215.36,99.48,307.08,103.24,159.83,323.81,213.48,429.85,373.35,100.95,150.96,69.66,350.67,137.57,519.23,62.55,155.97,197.67,259.87,293.16,373.04,105.19,124.67,169.09,273.63,149.97,454.19-44.33,78.3-75.36,169.15-55.56,257.28"/><path class="cls-1" d="M1161.85,23.9c12.5,130.67,14.75,268.2-37.47,388.52-32.69,75.33-89.02,138.58-147.45,192.74-65.55,60.75-68.65,154.6-134.56,220.54-75.86,75.9-135.61,127.5-194.23,215.64-31.39,47.2-83.07,76.75-136.41,95.05-63.05,21.64-132.54,29.66-195.07,55.54-157.3,65.11-243.77,244.29-246.88,415.3-2.13,117.2,47.21,227.09,112.19,322.96,100.93,148.91,303.97,205.21,405.68,355.7,97.41,144.11,76.05,332.9,140.38,494.66,59.68,150.87,183.65,256.39,264.59,371.02,92.21,130.58,133.43,280.73,106.32,458.2-53.76,96.61-91.56,208.29-68.37,316.7"/><path class="cls-1" d="M1135.2,27.88c15.13,133.19,19.08,274.2-36.33,396.15-31.68,69.72-84.92,128.35-137.14,180.71-67.69,67.88-62.03,174.05-132.6,244.17-77.22,76.71-150.77,117.2-212.11,205.38-29.4,42.27-75.31,70.06-123.28,87.87-59.28,22.02-125.36,29.93-185.13,53.65-157.22,62.4-246.11,239.7-248.58,409.63-1.8,123.82,53.95,238.97,124.9,338.84,98.22,138.25,284.44,196.74,381.52,338.04,94.16,137.06,82.45,315.14,143.19,470.1,56.8,145.77,169.31,253.27,236.03,369.01,78.92,136.89,97.78,287.83,62.67,462.22-63.19,114.92-107.77,247.43-81.18,376.12"/><path class="cls-1" d="M1108.55,31.85c17.77,135.71,23.6,280.29-35.2,403.79-30.55,64.16-80.53,118.39-126.82,168.69-69.42,75.42-55.39,193.52-130.64,267.79-78.56,77.54-165.74,107-229.98,195.11-27.28,37.42-67.53,63.44-110.14,80.69-55.51,22.48-118.2,30.15-175.2,51.77-157.18,59.59-248.41,235.1-250.29,403.95-1.45,130.43,60.43,251.05,137.61,354.71,95.17,127.84,264.93,188.25,357.35,320.39,90.93,130,88.85,297.38,146,445.53,53.93,140.67,154.55,250.44,207.46,366.99,65.15,143.52,62.12,294.93,19.03,466.23-72.62,133.24-123.98,286.57-93.99,435.53"/><path class="cls-1" d="M1081.89,35.83c20.41,138.23,28.34,286.5-34.06,411.43-29.3,58.66-75.86,108.62-116.51,156.66-70.56,83.4-48.74,213.01-128.68,291.42-79.9,78.38-180.46,96.98-247.85,184.84-25.04,32.65-59.73,56.91-97.01,73.51-51.71,23.03-111.05,30.34-165.27,49.88-157.2,56.66-250.68,230.5-252,398.28-1.08,137.05,66.61,263.38,150.32,370.59,91.87,117.66,245.44,179.75,333.19,302.73,87.71,122.93,95.24,279.62,148.81,420.96,51.06,135.57,139.32,247.76,178.9,364.97,50.77,150.35,26.47,302.03-24.62,470.25-82.05,151.55-140.18,325.71-106.81,494.95"/><path class="cls-1" d="M1055.24,39.81c23.04,140.75,33.38,292.86-32.93,419.06-27.96,53.22-70.93,98.94-106.19,144.63-70.91,91.89-42.09,232.5-126.72,315.05-81.23,79.23-194.84,87.23-265.73,174.58-22.7,27.97-51.88,50.49-83.87,66.33-47.86,23.71-103.92,30.47-155.34,47.99-157.25,53.58-252.94,225.9-253.71,392.61-.67,143.66,72.43,276.03,163.02,386.47,88.35,107.71,225.97,171.24,309.03,285.08,84.52,115.85,101.64,261.86,151.63,396.4,48.19,130.47,123.59,245.08,150.34,362.95,35.68,157.21-9.19,309.13-68.27,474.26-91.49,169.86-156.39,364.85-119.62,554.37"/><path class="cls-1" d="M1028.59,43.78c25.68,143.28,38.77,299.44-31.79,426.7-26.53,47.84-65.74,89.28-95.88,132.61-70.22,100.95-35.28,252.15-124.76,338.67-82.43,80.21-208.74,77.93-283.6,164.31-20.26,23.38-43.98,44.17-70.73,59.15-43.91,24.58-96.81,30.56-145.4,46.1-157.36,50.32-255.17,221.3-255.42,386.94-.23,150.27,77.83,289.1,175.73,402.35,84.69,97.97,206.53,162.71,284.86,267.42,81.35,108.74,108.04,244.1,154.44,371.83,45.32,125.37,107.39,242.23,121.77,360.94,19.86,163.91-44.85,316.23-111.92,478.28-100.92,188.17-172.59,403.99-132.43,613.79"/><path class="cls-1" d="M1001.94,47.76c28.32,145.8,44.63,306.34-30.66,434.33-25.02,42.53-60.29,79.55-85.56,120.58-68.16,110.63-28.66,271.6-122.8,362.3-83.81,81.01-221.93,69.36-301.47,154.04-17.76,18.9-35.97,37.98-57.6,51.97-39.76,25.71-89.69,30.6-135.47,44.21C110.87,1262.03,11.19,1431.9,11.26,1596.47c.42,156.88,82.75,302.69,188.44,418.22,80.94,88.47,187.23,154.06,260.7,249.77,78.34,101.51,114.44,226.34,157.25,347.27,42.45,120.27,90.82,239.06,93.21,358.92,3.39,170.24-80.5,323.34-155.57,482.29-110.35,206.49-188.8,443.12-145.24,673.2"/><path class="cls-1" d="M975.29,51.74c30.95,148.32,51.11,313.69-29.52,441.97-23.45,37.31-54.56,69.64-75.25,108.55-64.3,120.93-22.05,291.06-120.84,385.93-85.19,81.81-234,62.13-319.34,143.78-15.22,14.56-27.81,31.91-44.46,44.79-35.22,27.25-82.59,30.59-125.54,42.32C102.62,1262.16,.76,1431.18,1.5,1594.67c.74,163.5,87.07,316.98,201.15,434.1,77.15,79.21,167.72,145.57,236.54,232.11,75.11,94.45,120.83,208.58,160.06,322.7,39.58,115.17,74,235.48,64.64,356.9-13.57,176.1-116.16,330.44-199.21,486.31-119.78,224.8-205.01,482.26-158.06,732.62"/></g></g></svg>