<?xml version="1.0" encoding="UTF-8"?><svg id="Layer_2" xmlns="http://www.w3.org/2000/svg" viewBox="0 0 2104.78 651.31"><defs><style>.cls-1{fill:none;stroke:#8fd4d7;stroke-miterlimit:10;stroke-width:3px;}.cls-2{opacity:.14;}</style></defs><g id="Climate"><g class="cls-2"><path class="cls-1" d="M.09,188.78c22.5-1.33,44.64-8.23,63.91-19.91C130.22,128.75,156.52,38.49,227.04,6.53c7.49-3.39,15.75-6.07,23.84-4.63,33.06,5.88,22.83,60.45,47.12,83.64,22.89,21.85,60.48,4.03,85.03-15.93s56.5-43.05,84.63-28.55c8.21,4.23,14.6,11.22,20.8,18.07,42.83,47.28,86.42,95.71,111.75,154.26,17.94,41.47,27.84,89.46,62.29,118.68,30.82,26.15,75.47,30.77,114.88,21.8,39.41-8.98,74.94-29.81,109.75-50.35,17.78,43.46,39.69,85.22,65.36,124.54,7.24,11.09,15.44,22.55,27.66,27.68,11.25,4.73,24.02,3.28,36.13,1.74,65.17-8.25,130.34-16.49,195.51-24.74,65.36-8.27,131.59-16.76,192.55-41.74,68.63-28.12,127.12-75.66,187.38-118.9,12.41-8.91,25.68-17.94,40.88-19.47,20.73-2.09,39.84,10.06,57.84,20.55,95.64,55.72,211.42,75.97,320.3,56.04,19.45-3.56,39.69-8.9,53.8-22.76"/><path class="cls-1" d="M4.7,214.28c20.89-1.01,41.47-7.14,59.48-17.64,61.8-36.07,88.58-116.88,152.83-148.72,7.75-3.84,15.97-7.45,24.14-7.18,15.69,.53,22.61,11.03,28.98,24.01,7.06,14.39,13.48,32.32,27.98,43.72,14.98,11.79,34.19,12.48,52.25,8.62,12.81-2.74,25.08-7.71,36.22-14.16,10.2-5.91,21.68-13.47,33.26-19.79,18.87-10.35,38.54-17.1,57.1-10.47,2.55,.9,4.98,2.02,7.3,3.3,5.62,3.1,10.7,7.12,15.71,11.2,11.67,9.43,23.48,19.57,34.68,31.07,4.63,4.76,9.17,9.75,13.84,14.22,12.66,12.1,23.86,20.42,35.21,31.37,10.52,10.17,21.09,22.76,29.9,36.68,5.38,8.5,10.18,17.43,14.51,26.66,2.76,5.86,5.34,11.86,7.87,17.9,16.16,38.57,30.39,78.97,61.49,106.33,32.21,28.33,77.44,38.08,118.42,32.4,32.81-4.55,62.96-18.94,92.67-34.37,4.75-2.47,9.48-4.98,14.2-7.52,13.09,25.7,27.77,50,43.93,73.45,8.02,11.65,16.43,23.08,25.21,34.29,7.46,9.53,15.78,19.39,27.67,23.64,10.96,3.91,23.26,2.35,34.99,.73,63.18-8.76,126.45-17.07,189.63-24.24,35.89-4.06,71.99-7.81,107.29-13.72,27.05-4.56,53.59-10.42,79.25-19.1,36.12-12.19,69.59-29.57,102.35-49.75,27.68-17.02,54.54-36.05,81.65-54.67,12.18-8.37,25.1-16.93,39.74-18.85,19.93-2.61,38.41,7.36,55.91,15.88,15.09,7.34,30.66,13.86,46.6,19.6,82.39,29.62,175.47,38.49,264.07,24.31,17.18-3.89,35.06-9.36,47.48-22.4"/><path class="cls-1" d="M9.31,239.78c19.29-.69,38.3-6.04,55.04-15.37,57.38-32.03,84.49-103.85,142.63-135.09,8.02-4.31,16.19-8.83,24.43-9.72,15.69-1.7,23.65,5.63,31.84,15.4,9.18,10.95,18.72,25.84,34.95,36.44,16.53,10.8,36.54,12.97,54.71,12.12,12.95-.6,25.1-2.65,37.18-7.29,11.16-4.29,23.79-11.42,36.17-17.84,19.96-10.41,40.3-18.3,59.92-14.12,2.71,.58,5.31,1.34,7.83,2.26,6.08,2.24,11.75,5.38,17.39,8.67,13.15,7.67,26.58,16.61,38.97,28.13,5.12,4.77,10.08,9.96,15.38,14.07,14.34,11.13,26.19,14.41,39.07,22.49,11.93,7.51,24.62,19.46,34.73,33.55,6.17,8.59,11.54,17.87,16.39,27.5,3.09,6.12,5.98,12.39,8.83,18.68,18.17,40.15,35.19,81.66,67.6,111.1,33.59,30.52,79.18,45.21,121.95,43,31.49-1.63,60.84-13.58,90.02-26.86,4.67-2.12,9.32-4.32,13.96-6.56,14.3,22.37,29.94,42.69,46.8,62.28,8.36,9.73,17.07,19.28,26.12,28.65,7.68,7.96,16.12,16.23,27.69,19.59,10.66,3.1,22.5,1.42,33.84-.29,61.19-9.27,122.56-17.65,183.74-23.74,34.81-3.45,69.77-6.2,103.95-10.26,26.13-3.16,51.73-7.15,76.57-13.66,35-9.12,67.71-22.92,100.07-40.38,27.39-14.72,53.9-32.11,80.56-49.57,11.94-7.83,24.52-15.91,38.59-18.23,19.14-3.14,36.99,4.66,53.98,11.2,14.67,5.63,29.75,10.57,45.17,14.9,79.79,22.31,169.88,28.54,255.87,16.88,14.9-4.22,30.42-9.82,41.17-22.05"/><path class="cls-1" d="M13.93,265.28c17.68-.38,35.12-4.95,50.61-13.1,52.96-27.98,80.24-91.21,132.43-121.47,8.28-4.8,16.4-10.2,24.72-12.27,15.69-3.91,24.81,.25,34.7,6.78,11.42,7.54,23.94,19.37,41.92,29.16s38.9,13.48,57.18,15.63c13.11,1.54,25.13,2.43,38.15-.42,12.13-2.65,25.89-9.38,39.08-15.89,21.06-10.46,42.09-19.54,62.74-17.77,2.87,.25,5.64,.65,8.36,1.21,6.54,1.37,12.81,3.63,19.07,6.14,14.65,5.88,29.67,13.66,43.26,25.2,5.61,4.77,11,10.17,16.92,13.92,16.03,10.16,28.51,8.41,42.93,13.61,13.34,4.85,28.15,16.17,39.56,30.41,6.96,8.69,12.9,18.31,18.27,28.33,3.42,6.37,6.62,12.92,9.78,19.46,20.18,41.74,40,84.34,73.72,115.86,34.97,32.71,80.95,57.91,125.48,53.6,29.93-2.9,58.73-8.22,87.38-19.35,4.59-1.78,9.16-3.66,13.72-5.6,15.51,19.03,32.11,35.37,49.67,51.11,8.7,7.82,17.72,15.49,27.04,23,7.9,6.4,16.46,13.06,27.7,15.55,10.36,2.29,21.74,.49,32.69-1.31,59.2-9.79,118.67-18.22,177.85-23.24,33.73-2.84,67.55-4.58,100.61-6.79,25.21-1.76,49.87-3.87,73.88-8.22,33.88-6.06,65.82-16.27,97.78-31.01,27.11-12.43,53.27-28.17,79.46-44.46,11.71-7.3,23.94-14.9,37.45-17.61,18.34-3.66,35.56,1.96,52.04,6.53,14.24,3.93,28.84,7.28,43.74,10.2,77.18,15,164.29,18.59,247.67,9.46,12.63-4.55,25.79-10.28,34.85-21.69"/><path class="cls-1" d="M18.54,290.78c16.08-.06,31.95-3.86,46.17-10.83,48.55-23.93,75.84-78.91,122.23-107.85,8.53-5.32,16.61-11.55,25.02-14.82,15.69-6.1,26.07-5.21,37.57-1.84,13.78,4.04,29.15,12.93,48.89,21.87,19.58,8.87,41.27,14.01,59.64,19.14,13.26,3.7,25.16,7.52,39.11,6.45,13.11-1,27.99-7.34,42-13.95,22.15-10.52,43.87-20.8,65.55-21.42,3.02-.09,5.98-.03,8.89,.17,7.01,.51,13.87,1.87,20.76,3.61,16.16,4.09,32.77,10.7,47.55,22.27,6.1,4.78,11.91,10.38,18.46,13.78,17.72,9.19,30.84,2.4,46.79,4.73,14.75,2.19,31.68,12.87,44.39,27.27,7.76,8.79,14.27,18.75,20.15,29.17,3.75,6.63,7.25,13.45,10.74,20.25,22.19,43.32,44.8,87.02,79.83,120.63,36.35,34.89,82.27,58.68,129.01,64.2,28.58,3.37,56.61-2.87,84.74-11.85,4.51-1.43,9-2.99,13.47-4.64,16.72,15.7,34.28,28.06,52.54,39.94,9.04,5.91,18.36,11.69,27.95,17.36,8.12,4.83,16.79,9.9,27.72,11.5,10.06,1.48,20.98-.43,31.54-2.33,57.21-10.3,114.78-18.8,171.97-22.74,32.65-2.23,65.34-2.97,97.28-3.33,24.29-.36,48.01-.59,71.2-2.77,32.77-2.99,63.94-9.62,95.49-21.65,26.82-10.13,52.64-24.24,78.37-39.36,11.47-6.76,23.37-13.89,36.3-16.99,17.54-4.19,34.13-.74,50.11,1.86,13.81,2.22,27.92,3.99,42.31,5.5,74.57,7.69,158.71,8.64,239.47,2.03,10.35-4.88,21.15-10.74,28.53-21.34"/><path class="cls-1" d="M23.15,316.28c14.48,.26,28.78-2.76,41.73-8.57,44.13-19.89,71.28-66.89,112.03-94.22,8.77-5.88,16.83-12.9,25.31-17.37,15.7-8.27,27.35-9.94,40.43-10.46,16.15-.64,34.35,6.5,55.86,14.59s43.62,14.56,62.11,22.65c13.41,5.87,25.2,12.62,40.08,13.32,14.08,.66,30.1-5.3,44.91-12,23.25-10.58,45.66-22.07,68.37-25.08,3.18-.42,6.31-.72,9.42-.87,7.47-.35,14.93,.11,22.44,1.09,17.66,2.29,35.86,7.75,51.84,19.34,6.59,4.78,12.83,10.59,20,13.63,19.41,8.22,33.16-3.61,50.65-4.15,16.17-.48,35.21,9.57,49.22,24.13,8.55,8.89,15.63,19.19,22.03,30.01,4.08,6.88,7.89,13.98,11.69,21.03,24.2,44.9,49.61,89.7,85.94,125.39,37.73,37.08,83.79,64.9,132.54,74.8,27.12,5.51,54.5,2.49,82.1-4.34,4.43-1.09,8.84-2.33,13.23-3.68,17.93,12.37,36.45,20.75,55.41,28.77,9.38,4,19.01,7.89,28.86,11.72,8.34,3.27,17.13,6.74,27.73,7.46,9.76,.67,20.21-1.36,30.39-3.35,55.22-10.81,110.89-19.38,166.08-22.24,31.58-1.61,63.12-1.35,93.94,.13,23.37,1.04,46.15,2.69,68.52,2.67,31.65,.07,62.05-2.97,93.2-12.28,26.53-7.84,52-20.3,77.28-34.25,11.24-6.23,22.79-12.88,35.16-16.38,16.75-4.71,32.71-3.44,48.18-2.81,13.39,.52,27.01,.7,40.88,.81,71.96,.38,153.12-1.31,231.27-5.39,8.08-5.2,16.51-11.2,22.22-20.98"/><path class="cls-1" d="M27.77,341.78c12.87,.58,25.61-1.67,37.3-6.3,39.71-15.84,66.57-55.11,101.83-80.6,8.98-6.49,17.06-14.24,25.61-19.92,15.71-10.43,28.57-16.43,43.29-19.07,18.47-3.32,39.54,.08,62.83,7.31,22.6,7.01,45.97,15.12,64.58,26.16,13.56,8.04,25.23,17.74,41.04,20.19s32.2-3.26,47.83-10.05c24.35-10.64,47.44-23.34,71.19-28.73,3.34-.76,6.65-1.4,9.95-1.92,7.93-1.21,15.99-1.66,24.12-1.44,19.17,.44,38.96,4.79,56.13,16.4,7.08,4.79,13.74,10.8,21.54,13.48,21.09,7.26,35.49-9.61,54.51-13.03,17.58-3.14,38.74,6.27,54.05,20.99,9.35,8.99,16.99,19.63,23.91,30.84,4.41,7.14,8.53,14.51,12.65,21.81,26.21,46.48,54.41,92.38,92.06,130.16,39.12,39.26,85.43,70.74,136.08,85.4,25.72,7.45,52.38,7.84,79.45,3.17,4.35-.75,8.68-1.67,12.99-2.73,19.14,9.03,38.62,13.43,58.27,17.6,9.72,2.08,19.65,4.1,29.77,6.08,8.55,1.7,17.47,3.57,27.75,3.41,9.46-.15,19.45-2.29,29.24-4.37,53.22-11.33,107-19.96,160.19-21.74,30.5-1,60.9,.26,90.6,3.6,22.44,2.44,44.29,5.97,65.84,8.12,30.54,3.13,60.16,3.68,90.91-2.91,26.25-5.54,51.37-16.36,76.19-29.15,11-5.69,22.21-11.86,34.01-15.76,15.95-5.24,31.28-6.14,46.25-7.48,12.96-1.18,26.1-2.59,39.44-3.89,69.36-6.93,147.53-11.26,223.07-12.82,5.81-5.53,11.88-11.66,15.9-20.63"/><path class="cls-1" d="M32.38,367.28c11.27,.9,22.44-.57,32.86-4.03,35.29-11.8,61.7-43.5,91.63-66.97,9.13-7.16,17.29-15.58,25.9-22.46,15.74-12.59,29.73-22.09,46.16-27.69,20.72-7.07,44.74-6.32,69.8,.02,24.11,6.1,48.3,15.67,67.04,29.66,13.69,10.22,25.25,22.86,42.01,27.06,16.01,4.02,34.3-1.22,50.74-8.1,25.44-10.69,49.2-24.67,74.01-32.38,3.49-1.1,6.98-2.09,10.48-2.96,8.4-2.07,17.05-3.42,25.8-3.97,20.67-1.35,42.06,1.84,60.42,13.47,7.57,4.8,14.66,11.01,23.08,13.33,22.78,6.29,37.81-15.62,58.37-21.91,18.99-5.8,42.27,2.98,58.88,17.85,10.14,9.08,18.35,20.07,25.79,31.68,4.74,7.39,9.17,15.04,13.6,22.6,28.22,48.07,59.22,95.06,98.17,134.92,40.5,41.45,87.29,76.18,139.61,96,24.42,9.25,50.27,13.2,76.81,10.67,4.26-.4,8.51-1,12.75-1.77,20.35,5.7,40.79,6.12,61.14,6.43,10.06,.17,20.29,.3,30.69,.44,8.77,.14,17.81,.41,27.76-.63,9.16-.96,18.69-3.21,28.1-5.38,51.23-11.84,103.11-20.53,154.31-21.24,29.42-.39,58.68,1.87,87.27,7.06,21.52,3.84,42.43,9.24,63.16,13.56,29.42,6.2,58.28,10.33,88.63,6.46,25.96-3.25,50.74-12.42,75.1-24.04,10.77-5.15,21.63-10.85,32.87-15.14,15.16-5.76,29.85-8.84,44.32-12.15,12.53-2.89,25.19-5.88,38.01-8.59,66.75-14.25,141.95-21.21,214.87-20.25,3.53-5.86,7.24-12.12,9.59-20.27"/><path class="cls-1" d="M36.99,392.78c9.67,1.22,19.26,.52,28.43-1.76,30.88-7.75,56.67-32.03,81.43-53.35,9.2-7.92,17.52-16.91,26.19-25.01,15.78-14.75,30.86-27.74,49.02-36.31,22.92-10.81,49.94-12.7,76.77-7.26,25.62,5.2,50.61,16.26,69.51,33.17,13.81,12.42,25.26,28.02,42.97,33.94,16.96,5.73,36.41,.82,53.65-6.15,26.54-10.75,50.98-25.93,76.83-36.04,3.65-1.43,7.31-2.77,11.01-4,8.86-2.94,18.1-5.18,27.49-6.5,22.17-3.15,45.15-1.12,64.71,10.54,8.06,4.8,15.57,11.22,24.62,13.19,24.47,5.32,40.13-21.62,62.22-30.79,20.4-8.46,45.81-.32,63.71,14.71,10.93,9.18,19.72,20.51,27.67,32.52,5.07,7.65,9.8,15.57,14.56,23.38,30.23,49.65,64.02,97.74,104.29,139.69,41.88,43.64,89.43,81.27,143.14,106.6,23.25,10.96,48.15,18.56,74.17,18.18,4.18-.06,8.35-.34,12.51-.81,21.57,2.36,42.96-1.2,64.01-4.74,10.4-1.74,20.94-3.5,31.6-5.2,8.99-1.43,18.14-2.75,27.78-4.68,8.86-1.77,17.93-4.14,26.95-6.4,49.24-12.36,99.22-21.11,148.42-20.74,28.34,.22,56.46,3.49,83.93,10.53,20.6,5.24,40.57,12.52,60.48,19.01,28.3,9.26,56.39,16.98,86.34,15.83,25.67-.95,50.11-8.48,74.01-18.94,10.53-4.62,21.05-9.84,31.72-14.52,14.36-6.29,28.43-11.54,42.38-16.82,12.11-4.59,24.28-9.17,36.58-13.29,64.14-21.56,136.36-31.16,206.67-27.67,1.26-6.19,2.61-12.58,3.27-19.91"/><path class="cls-1" d="M41.6,418.27c35.07,6.72,69.53-14.42,95.22-39.22,25.7-24.79,47.48-54.58,78.37-72.49,48.9-28.34,116.65-18.71,155.72,22.14,13.95,14.58,25.28,33.12,43.94,40.81,17.93,7.39,38.51,2.86,56.57-4.2,31.55-12.34,59.81-31.95,91.18-44.73s68.64-18.03,98.17-1.42c8.55,4.81,16.49,11.43,26.16,13.04,26.16,4.35,42.46-27.63,66.08-39.67,21.82-11.12,49.34-3.62,68.54,11.57,19.2,15.19,32.03,36.79,45.06,57.52,65.78,104.55,149.71,200.58,257.07,261.66,22.21,12.63,46.04,23.91,71.53,25.69,27.03,1.88,53.5-7.04,79.15-15.76,100.02-34.02,209.12-67.01,309.23-33.23,47.72,16.1,91.56,46.99,141.85,49.65,64.49,3.41,120.62-39.78,179.09-67.21,61.53-28.87,130.77-41.11,198.48-35.1-1.01-6.52-2.03-13.04-3.04-19.56"/></g></g></svg>