<?xml version="1.0" encoding="UTF-8"?><svg id="Layer_2" xmlns="http://www.w3.org/2000/svg" viewBox="0 0 2852.3 3090.07"><defs><style>.cls-1,.cls-2{fill:none;stroke:#8fd4d7;stroke-miterlimit:10;stroke-width:3px;}.cls-2{opacity:.27;}.cls-3{opacity:.26;}</style></defs><g id="Climate"><g class="cls-3"><path class="cls-1" d="M1.45,1058.54c29.56,89.21,148.7,134.76,230.24,88.04,37.89-21.71,65.04-57.77,97.85-86.58,32.82-28.82,77.9-51.31,119.29-37.36,42.09,14.18,66.99,61.62,109.81,73.39,43.3,11.9,86.87-17.05,119.08-48.35,32.2-31.3,63.41-68.34,107.15-78.53,32.36-7.54,66.81,1.15,99.23-6.11,57.22-12.81,91.4-69.22,127.14-115.71,154.24-200.6,456.52-269.71,682.61-156.07,64.54,32.44,122.7,77.59,190.12,103.51,73.86,28.39,154.73,32.12,233.86,31.29,246.83-2.61,491.17-46.25,734.14-89.76"/><path class="cls-1" d="M20,1047.11c25.7,70.12,111.71,107.94,182.72,88.45,11.19-3.07,22.02-7.55,32.23-13.54,34.85-20.45,60.12-53.64,90.13-80.74,16.43-14.84,35.97-28.08,56.42-35.45,16.9-6.07,34.43-8.11,51.33-3.75,37.98,9.75,61.3,48.05,100.03,55.84,39.16,7.88,78.62-19.22,108.38-48.26,29.77-29.05,59.01-62.05,98.51-73.81,19.91-5.93,40.73-7.52,61.95-7.06,13.08,.29,25.7,1.26,37.63,.58,11.97-.68,22.62-2.89,32.2-6.32,18.96-6.78,34.26-18.17,50.76-31.94,13.37-11.16,27.43-24.44,41.75-38.04,13.54-12.86,27.95-26.11,42.57-39.42,30.7-27.9,62.6-55.43,96.43-79.53,33.74-24.05,69.85-45.06,108.98-59.93,12-4.56,24.31-8.56,36.14-13.08,22.02-8.41,41.36-17.48,61.94-24.74,41.84-14.76,90.08-23.07,138.49-20.48,10.58,.57,21.23,1.6,31.55,1.92,12.26,.38,23.54,.02,34.81,.24,41.62,.78,84.67,7.85,126.6,22.13,29.32,9.97,58.07,23.1,86.91,37.27,36.59,17.97,73.2,37.53,111.5,53.38,35.1,14.53,70.86,25.62,105.97,34.67,23.99,6.21,47.73,11.46,72.44,15.19,16.36,2.46,33.29,4.26,50.36,4.88,8.7,.32,17.46,.34,26.22-.05,26.55-1.17,51.91-5.62,77.62-9.42,25.57-3.79,53.02-6.8,78-5.38,23.14,1.3,42.23,4.17,63.58,5.97,43.48,3.72,95.44,.57,144.92-6.65,49.73-7.25,99.92-16.9,148.88-20.32,38.71-2.7,75.19-2.02,113.95-5.31,26.74-2.27,54.28-6.75,80.63-13.21"/><path class="cls-1" d="M38.56,1035.68c25.86,63.17,105.5,94.33,170.27,74.78,10.21-3.08,20.08-7.39,29.38-13,31.8-19.18,55.19-49.51,82.4-74.89,14.9-13.9,32.35-26.52,50.56-34.21,15.03-6.3,30.59-9.24,45.64-6.82,33.88,5.32,55.61,34.49,90.25,38.28,35.02,3.85,70.36-21.38,97.69-48.17,27.34-26.8,54.59-56.11,89.87-69.09,19.8-7.29,40.56-11.93,62.32-11.13,13.48,.5,26.05,2.87,37.6,4.3,11.45,1.42,21.39,1.87,29.99,1.41,17.1-.92,30.14-5.14,46.81-12.42,13.6-5.93,29.31-14.96,45.46-25.87,15.13-10.22,31.16-21.99,46.82-34.69,32.92-26.65,64.84-56.12,98.11-82.5,33.2-26.34,68.67-50.34,108.67-66.04,12.27-4.82,25.02-8.88,36.67-14.36,21.71-10.2,37.66-23.03,55.85-33.59,37-21.5,85.87-35.68,135.64-34.01,10.86,.37,21.91,1.39,32.32,.69,12.37-.83,22.85-3.55,33.37-5.53,38.89-7.36,81.79-7.75,124.94,.34,30.18,5.64,60.47,15.13,90.85,26.96,38.54,15.01,76.96,33.62,115.86,50.83,35.62,15.75,71,30.05,104.45,43.62,22.88,9.31,44.96,18.27,68.96,25.1,15.88,4.5,32.89,8.06,50.27,9.49,8.89,.74,17.88,.9,26.88,.31,27.21-1.77,52.08-9.68,77.65-15.88,25.46-6.19,54.72-10.44,79.06-5.51,22.53,4.54,36.97,12.53,55.96,18.62,38.68,12.52,94.38,12.33,145.23,4.74,51.05-7.61,103.09-19.27,152.73-18.04,39.25,.97,74.06,8.97,113.49,9.13,27.2,.11,56.03-4.14,82.47-12.36"/><path class="cls-1" d="M57.11,1024.25c26.02,56.23,99.29,80.71,157.82,61.11,9.23-3.09,18.13-7.23,26.54-12.47,28.76-17.91,50.27-45.38,74.67-69.04,13.37-12.97,28.73-24.96,44.71-32.98,13.15-6.53,26.75-10.32,39.95-9.89,29.77,.97,49.91,20.92,80.46,20.73,30.88-.18,62.1-23.55,86.99-48.09,24.9-24.55,50.11-50.51,81.23-64.37,19.7-8.78,40.39-16.34,62.7-15.21,13.87,.71,26.39,4.45,37.57,8.02s20.2,6.66,27.79,9.13c15.3,4.99,26.11,7.92,42.87,7.11,13.89-.67,31.15-5.5,49.17-13.7,16.68-7.6,34.37-17.87,51.07-29.96,35.15-25.4,67.08-56.81,99.8-85.46,32.66-28.63,67.5-55.62,108.36-72.15,12.54-5.07,25.72-9.21,37.21-15.64,21.4-11.99,33.95-28.58,49.77-42.45,32.16-28.23,81.66-48.29,132.79-47.54,11.15,.17,22.59,1.17,33.09-.55,12.48-2.04,22.15-7.12,31.93-11.29,36.15-15.5,78.91-23.35,123.28-21.45,31.05,1.31,62.88,7.16,94.79,16.65,40.48,12.05,80.72,29.7,120.21,48.27,36.13,16.98,71.14,34.49,102.94,52.56,21.77,12.42,42.19,25.08,65.48,35.01,15.4,6.54,32.5,11.87,50.17,14.09,9.07,1.15,18.3,1.47,27.54,.68,27.87-2.37,52.24-13.74,77.69-22.34,25.36-8.6,56.42-14.09,80.11-5.63,21.91,7.79,31.71,20.9,48.33,31.28,33.88,21.32,93.33,24.09,145.53,16.14,52.36-7.97,106.26-21.64,156.58-15.77,39.78,4.63,72.94,19.96,113.03,23.58,27.67,2.5,57.78-1.53,84.32-11.52"/><path class="cls-1" d="M75.66,1012.82c26.18,49.29,93.08,67.1,145.37,47.44,8.25-3.1,16.18-7.07,23.69-11.93,25.72-16.64,45.35-41.25,66.94-63.2,11.84-12.04,25.1-23.44,38.86-31.74,11.26-6.79,22.91-11.44,34.26-12.96,25.68-3.45,44.22,7.36,70.68,3.18,26.74-4.21,53.84-25.71,76.29-48,22.47-22.31,45.54-45.24,72.59-59.65,19.56-10.42,40.22-20.75,63.07-19.29,14.26,.92,26.74,5.99,37.54,11.74,10.38,5.52,19.01,11.5,25.58,16.86,13.49,10.99,22.09,21.09,38.93,26.63,14.21,4.68,32.98,3.93,52.87-1.53,18.22-5,37.59-13.76,55.31-25.23,37.38-24.15,69.32-57.5,101.48-88.43,32.12-30.91,66.33-60.91,108.05-78.26,12.81-5.33,26.42-9.53,37.74-16.92,21.09-13.78,30.25-34.13,43.68-51.31,27.32-34.96,77.45-60.9,129.93-61.07,11.44-.03,23.27,.95,33.86-1.79,12.58-3.26,21.45-10.69,30.49-17.06,33.42-23.63,76.04-38.96,121.63-43.24,31.92-3.02,65.28-.82,98.72,6.35,42.43,9.09,84.48,25.79,124.57,45.72,36.65,18.21,71.28,38.93,101.42,61.51,20.65,15.52,39.41,31.89,62,44.92,14.92,8.58,32.1,15.68,50.08,18.7,9.25,1.57,18.72,2.04,28.2,1.04,28.53-2.97,52.41-17.79,77.73-28.8,25.25-11,58.12-17.74,81.16-5.76,21.3,11.04,26.45,29.26,40.7,43.93,29.07,30.12,92.27,35.85,145.83,27.54,53.68-8.33,109.43-24,160.43-13.5,40.32,8.3,71.82,30.95,112.57,38.02,28.13,4.88,59.52,1.08,86.16-10.68"/><path class="cls-1" d="M94.22,1001.39c26.34,42.34,86.86,53.49,132.92,33.77,7.26-3.11,14.23-6.91,20.85-11.39,22.67-15.37,40.43-37.12,59.22-57.35,10.32-11.11,21.48-21.88,33.01-30.5,9.38-7.02,19.08-12.57,28.57-16.04,21.59-7.89,38.52-6.21,60.9-14.37,22.6-8.23,45.58-27.88,65.6-47.92,20.03-20.06,40.82-40.23,63.95-54.93,19.3-12.27,40.05-25.16,63.44-23.36,14.65,1.13,27.11,7.52,37.51,15.45,9.87,7.53,17.77,16.35,23.38,24.58,11.6,17.02,18.01,34.32,34.99,46.16,14.46,10.08,34.81,13.32,56.58,10.63,19.76-2.44,40.8-9.64,59.56-20.5,39.6-22.91,71.56-58.19,103.17-91.4,31.58-33.2,65.15-66.19,107.74-84.36,13.08-5.58,27.13-9.85,38.28-18.2,20.78-15.57,26.54-39.68,37.6-60.16,22.48-41.69,73.24-73.51,127.08-74.6,11.72-.24,23.95,.74,34.63-3.02,12.69-4.47,20.76-14.26,29.05-22.82,30.69-31.77,73.16-54.56,119.97-65.03,32.78-7.36,67.69-8.79,102.66-3.96,44.38,6.12,88.24,21.88,128.93,43.17,37.16,19.44,71.42,43.36,99.91,70.46,19.54,18.63,36.64,38.7,58.51,54.83,14.43,10.62,31.71,19.48,49.98,23.3,9.43,1.98,19.13,2.6,28.86,1.41,29.19-3.58,52.57-21.85,77.76-35.26,25.15-13.41,59.82-21.39,82.21-5.88,20.68,14.28,21.19,37.62,33.08,56.59,24.27,38.92,91.22,47.62,146.14,38.94,55-8.69,112.6-26.37,164.28-11.22,40.85,11.97,70.7,41.94,112.11,52.46,28.59,7.26,61.27,3.68,88-9.83"/><path class="cls-1" d="M112.77,989.96c26.5,35.4,80.65,39.88,120.46,20.1,6.28-3.12,12.28-6.75,18-10.86,19.63-14.1,35.51-33,51.49-51.5,8.79-10.18,17.88-20.29,27.16-29.27,7.52-7.23,15.24-13.71,22.88-19.11,17.49-12.36,32.83-19.77,51.11-31.93,18.46-12.26,37.32-30.05,54.9-47.83,17.6-17.81,35.9-35.43,55.31-50.21,18.85-14.35,39.88-29.57,63.82-27.44,15.04,1.34,27.5,9.03,37.48,19.17,9.38,9.54,16.51,21.19,21.18,32.31,9.66,23.03,13.87,47.55,31.05,65.68,14.66,15.48,36.64,22.69,60.29,22.8,21.31,.1,44.01-5.52,63.81-15.78,41.83-21.66,73.8-58.87,104.85-94.37,31.05-35.49,63.98-71.47,107.44-90.47,13.35-5.84,27.83-10.17,38.81-19.48,20.47-17.36,22.84-45.23,31.51-69.02,17.64-48.43,69.03-86.12,124.23-88.13,12.01-.44,24.63,.52,35.4-4.26,12.8-5.68,20.06-17.83,27.61-28.59,27.96-39.91,70.28-70.16,118.31-86.82,33.65-11.69,70.09-16.76,106.6-14.27,46.32,3.16,92,17.97,133.28,40.62,37.68,20.67,71.57,47.8,98.4,79.4,18.43,21.73,33.87,45.52,55.03,64.74,13.95,12.66,31.31,23.29,49.89,27.91,9.61,2.39,19.55,3.17,29.52,1.77,29.85-4.18,52.73-25.91,77.8-41.72,25.04-15.81,61.52-25.04,83.27-6.01,20.07,17.53,15.93,45.98,25.45,69.24,19.47,47.72,90.17,59.38,146.44,50.34,56.31-9.05,115.77-28.74,168.13-8.95,41.39,15.64,69.58,52.94,111.66,66.9,29.05,9.65,63.01,6.29,89.85-8.99"/><path class="cls-1" d="M131.33,978.53c26.66,28.46,74.44,26.26,108.01,6.44,33.57-19.83,56.68-52.93,80.23-84.01,44.84-59.2,94.9-114.45,149.4-164.9,18.06-16.72,39.71-33.98,64.19-31.52,29.87,3,48.71,33.91,56.42,62.92s9.7,60.75,27.11,85.21c28.16,39.56,88,44.33,132.06,23.92,44.06-20.41,76.03-59.56,106.54-97.34,30.51-37.77,62.8-76.76,107.13-96.58,13.62-6.09,28.53-10.49,39.35-20.76,20.16-19.15,19.13-50.79,25.42-77.88,12.81-55.16,64.82-98.73,121.37-101.66,12.29-.64,25.31,.3,36.17-5.5,12.91-6.9,19.36-21.4,26.17-34.35,42.9-81.72,134.89-133.57,227.18-133.19s181.74,50.69,234.52,126.41c17.31,24.84,31.09,52.33,51.55,74.65,20.46,22.32,50.07,39.34,79.98,34.65,30.51-4.78,52.9-29.96,77.83-48.18,24.93-18.22,63.21-28.68,84.32-6.14,19.45,20.78,10.67,54.35,17.82,81.89,14.66,56.52,89.11,71.14,146.74,61.74,57.63-9.4,118.94-31.11,171.98-6.67,41.92,19.31,68.45,63.93,111.2,81.35,29.52,12.03,64.76,8.9,91.69-8.15"/></g><g class="cls-3"><path class="cls-1" d="M1.45,917.34c29.56,109.05,148.7,164.74,230.24,107.62,37.89-26.54,65.04-70.61,97.85-105.84,32.82-35.22,77.9-62.72,119.29-45.67,42.09,17.33,66.99,75.32,109.81,89.71,43.3,14.55,86.87-20.84,119.08-59.1,32.2-38.26,63.41-83.54,107.15-95.99,32.36-9.21,66.81,1.4,99.23-7.47,57.22-15.66,91.4-84.62,127.14-141.45,154.24-245.22,456.52-329.7,682.61-190.78,64.54,39.66,122.7,94.85,190.12,126.53,73.86,34.71,154.73,39.26,233.86,38.24,246.83-3.19,491.17-56.54,734.14-109.72"/><path class="cls-1" d="M20,903.37c24.19,80.17,101.11,125.38,168.92,111.37,16.37-3.33,32.25-10.09,46.85-20.62,34.78-25.13,60-65.81,90-98.98,13.12-14.49,28.23-27.72,44.22-37.01,20.42-11.78,42.27-17.02,63.17-10.33,37.9,12.12,61.22,58.89,99.9,68.48,39.08,9.74,78.46-23.26,108.14-58.66,29.78-35.52,59.02-76.24,98.53-90.25,24.13-8.55,49.5-8.01,74.89-8.91,7.61-.26,15.07-.61,22.33-1.71,23.37-3.53,42.18-13.75,58.39-27.71,19.91-17.14,36.16-39.64,54.78-61.3,1.83-2.13,3.7-4.26,5.59-6.38,25.79-28.81,58.84-58.89,92.33-89.01,39.82-36.1,81.69-69.68,125.61-96.8,45.44-27.91,93.58-49.33,144.19-60.22,15.12-3.28,30.48-5.71,45.31-8.34,31.03-5.5,59.21-9.62,88.05-10.61,52.97-1.82,109.84,8.7,164.76,35.53,7.83,3.82,15.87,7.69,23.42,10.82,9.94,4.12,18.77,7.38,27.69,10.8,44.51,17.05,92.96,39.77,146.58,57.35,10.47,3.43,21.1,6.58,31.79,9.68,69.52,20.15,142.26,32.23,208.78,44.45,22.64,4.16,44.8,8.05,67.84,11.12,21.23,2.83,43.72,4.75,66.25,2.47,23.32-2.36,45.46-8.57,67.95-13.81,21.79-5.17,45.45-8.94,66.68-7.7,22.37,1.3,40.76,3.67,61.33,5.78,37.01,3.79,82.37,.89,125.36-7.3,41.57-7.92,83.64-18.23,124.46-21.06,34.23-2.37,66.2-.89,100.5-3.85,22.49-1.94,45.8-6.41,67.91-13.39"/><path class="cls-1" d="M38.56,889.39c24.6,72.6,96.62,109.65,158.77,94.12,14.87-3.71,29.27-10.33,42.52-20.24,31.67-23.72,54.97-61,82.15-92.11,11.85-13.55,25.33-26.11,39.59-35.27,18.05-11.6,37.37-17.54,55.91-13.75,33.75,6.91,55.44,42.46,89.99,47.25,34.87,4.93,70.05-25.69,97.21-58.23,27.35-32.78,54.61-69.22,89.92-84.51,23.34-10.11,47.86-13.6,73.1-13.84,7.63-.06,15.01,.23,22.09,.08,22.45-.47,40.04-4.74,54.57-11.78,17.8-8.63,31.66-20.82,50.17-33.73,1.82-1.27,3.71-2.55,5.64-3.84,26.39-17.55,63.29-41.68,97.97-70.78,40.64-34.11,80.69-70.29,122.43-100.5,42.89-31.04,88.45-56.74,138.01-69.86,14.87-3.97,30.12-6.97,44.31-11.18,29.16-8.65,52.64-18.11,77.61-24.7,46.5-12.29,102.08-11.96,157.53,8.9,8.53,3.21,17.44,6.4,25.55,7.89,10.44,1.93,18.88,1.86,27.43,2,43.13,.7,95.01,9.76,152.29,21.5,11.27,2.31,22.73,4.6,34.22,7.22,73.34,16.71,148.73,37.36,213.07,62.79,21.71,8.58,42.58,17.25,65.13,24.47,21.17,6.78,44.78,11.97,68.54,9.11,24.52-2.94,46.72-13.18,69.6-21.32,22.33-7.95,48.31-13.08,69.62-7.67s35.94,13.86,54.08,21.5c33.68,14.18,83.5,15.23,128.93,6.5,44.25-8.51,89.49-21.4,132.38-18.91,35.49,2.06,66.59,12.2,102.28,13.36,23.67,.77,48.96-3.53,71.87-12.82"/><path class="cls-1" d="M57.11,875.42c25.02,65.04,92.14,94.05,148.62,76.87,13.38-4.07,26.29-10.57,38.2-19.85,28.56-22.31,49.94-56.19,74.3-85.25,10.59-12.61,22.44-24.46,34.96-33.53,15.71-11.38,32.5-18.08,48.64-17.16,29.64,1.68,49.67,25.83,80.08,26.03,30.65,.19,61.63-28.11,86.27-57.8,24.92-30.04,50.16-62.47,81.3-78.78,22.55-11.81,46.23-19.19,71.32-18.78,7.64,.14,14.93,1.05,21.86,1.87,21.5,2.54,38.12,3.26,50.75,4.15,15.89,1.12,27.31-2.03,45.55-6.15,1.83-.41,3.73-.84,5.69-1.3,27.17-6.28,67.67-24.55,103.61-52.56,41.36-32.22,79.72-70.82,119.25-104.2,40.38-34.1,83.32-64.16,131.83-79.5,14.62-4.67,29.76-8.2,43.32-14.02,27.28-11.71,46.14-26.75,67.17-38.8,40.16-23.01,94.57-33.02,150.3-17.73,9.28,2.54,18.99,4.8,27.67,4.97,10.9,.21,19.03-3.71,27.18-6.8,41.89-15.88,97.08-20.3,157.99-14.35,12.08,1.18,24.35,2.63,36.65,4.76,77.14,13.35,155.21,42.37,217.36,81.14,20.79,12.97,40.36,26.52,62.41,37.83,21.1,10.82,45.83,19.2,70.83,15.76,25.71-3.52,47.97-17.85,71.24-28.84,22.87-10.8,51.16-17.35,72.56-7.64,21.2,9.62,31.13,24.3,46.82,37.22,30.36,24.99,84.62,29.58,132.49,20.29,46.92-9.11,95.34-24.64,140.3-16.76,36.74,6.44,66.99,25.33,104.07,30.58,24.85,3.52,52.12-.65,75.83-12.25"/><path class="cls-1" d="M75.66,861.45c25.43,57.48,87.68,78.48,138.47,59.62,11.88-4.41,23.31-10.81,33.88-19.46,25.44-20.91,44.91-51.38,66.45-78.39,9.33-11.66,19.56-22.81,30.33-31.79,13.36-11.15,27.65-18.64,41.38-20.57,25.57-3.6,43.88,9.53,70.17,4.8,26.43-4.76,53.22-30.53,75.33-57.36,22.5-27.31,45.61-55.99,72.69-73.04,21.71-13.67,44.6-24.78,69.54-23.72,7.66,.34,14.85,1.86,21.63,3.66,20.55,5.47,36.27,13.55,46.94,20.08,14.21,8.7,23.08,16.95,40.94,21.43,1.85,.46,3.75,.88,5.73,1.25,28.06,5.18,72.02-7.45,109.26-34.33,42.06-30.36,78.77-71.34,116.08-107.9,37.89-37.13,78.19-71.58,125.66-89.14,14.37-5.36,29.41-9.39,42.33-16.86,25.42-14.7,39.58-35.56,56.73-52.9,33.71-34.06,87.2-54.48,143.07-44.37,10.04,1.82,20.54,3.92,29.8,2.05,11.37-2.29,19.15-9.32,26.93-15.6,40.53-32.69,99.15-49.96,163.69-50.2,12.89-.05,25.97,.68,39.08,2.31,80.92,10.06,161.74,47.3,221.65,99.49,19.89,17.33,38.1,35.86,59.7,51.18,21,14.9,46.89,26.42,73.12,22.41,26.91-4.1,49.22-22.53,72.89-36.35,23.4-13.66,54.06-21.72,75.5-7.6,20.66,13.61,26.17,34.87,39.57,52.94,26.75,36.07,85.74,43.93,136.05,34.09,49.6-9.71,101.2-27.93,148.22-14.61,38.01,10.77,67.38,38.5,105.85,47.79,26.04,6.29,55.28,2.23,79.8-11.67"/><path class="cls-1" d="M94.22,847.48c25.84,49.91,83.22,62.96,128.32,42.37,10.39-4.75,20.33-11.06,29.55-19.08,22.33-19.5,39.88-46.58,58.59-71.53,8.07-10.72,16.68-21.14,25.7-30.06,11.03-10.9,22.82-19.26,34.12-23.98,21.52-8.99,38.08-6.88,60.26-16.43,22.2-9.56,44.8-32.96,64.4-56.93,20.07-24.57,40.91-49.75,64.07-67.3,20.75-15.71,42.97-30.36,67.76-28.65,7.68,.55,14.78,2.64,21.39,5.45,19.63,8.35,34.19,22.99,43.12,36.01,12.16,17.74,18.73,36.09,36.33,49,1.85,1.36,3.77,2.62,5.78,3.79,28.83,16.84,76.36,9.63,114.9-16.1,42.74-28.53,77.92-71.77,112.9-111.59,35.49-40.09,73.06-78.99,119.48-98.78,14.12-6.05,29.09-10.55,41.34-19.7,23.61-17.63,32.87-44.45,46.3-67,26.96-45.27,79.84-76.28,135.84-71,10.81,1.02,22.11,2.72,31.92-.88,11.86-4.35,19.24-14.95,26.67-24.4,38.99-49.54,101.21-80.54,169.4-86.05,13.69-1.11,27.59-1.27,41.52-.15,84.71,6.81,168.35,52.19,225.94,117.83,19.01,21.67,35.8,45.22,56.98,64.54,20.86,19.02,47.95,33.64,75.4,29.06,28.11-4.68,50.42-27.27,74.54-43.87,23.89-16.57,57.04-26.16,78.44-7.57,20.19,17.55,21.07,45.44,32.32,68.66,22.86,47.17,86.87,58.27,139.62,47.88,52.28-10.3,107.09-31.27,156.14-12.46,39.29,15.07,67.75,51.7,107.63,65.01,27.21,9.08,58.44,5.11,83.76-11.1"/><path class="cls-1" d="M112.77,833.51c26.25,42.35,78.8,47.5,118.17,25.12,8.91-5.07,17.35-11.3,25.23-18.69,19.22-18.09,34.84-41.77,50.74-64.67,6.81-9.78,13.82-19.46,21.07-28.32,8.71-10.64,17.93-19.95,26.86-27.4,17.38-14.5,32.34-23.24,50.35-37.66,18.01-14.3,36.39-35.38,53.46-56.49,17.64-21.83,36-43.69,55.45-61.56,19.57-17.97,41.34-35.95,65.97-33.59,7.69,.75,14.72,3.41,21.16,7.25,18.75,11.18,31.99,32.32,39.31,51.94,9.94,26.65,14.24,55.21,31.72,76.58,1.84,2.25,3.78,4.36,5.82,6.33,29.44,28.5,80.63,26.6,120.55,2.13,43.35-26.81,76.98-72.29,109.72-115.29,33-43.13,67.93-86.41,113.3-108.42,13.87-6.75,28.79-11.69,40.34-22.54,21.86-20.53,26.03-53.3,35.86-81.1,19.95-56.41,72.41-96.52,128.6-97.63,11.56-.23,23.7,1.54,34.04-3.8,12.37-6.39,19.3-20.56,26.42-33.2,37.35-66.33,103.24-110.8,175.1-121.89,14.49-2.28,29.21-3.19,43.95-2.61,88.49,3.78,175.17,56.97,230.23,136.18,18.2,25.98,33.46,54.6,54.27,77.89,20.67,23.15,49.01,40.86,77.69,35.71,29.31-5.26,51.66-31.95,76.19-51.38,24.41-19.42,60.1-30.61,81.38-7.54,19.8,21.47,15.89,55.96,25.07,84.39,18.8,58.18,87.99,72.62,143.18,61.67,54.95-10.9,113-34.64,164.06-10.31,40.59,19.34,68.08,64.99,109.41,82.22,28.35,11.94,61.6,7.99,87.73-10.53"/><path class="cls-1" d="M131.33,819.53c26.66,34.78,74.44,32.1,108.01,7.87,33.57-24.24,56.68-64.7,80.23-102.69,44.84-72.36,94.9-139.9,149.4-201.58,18.06-20.44,39.71-41.54,64.19-38.53,29.87,3.67,48.71,41.45,56.42,76.91s9.7,74.26,27.11,104.15c28.16,48.35,88,54.19,132.06,29.24,44.06-24.95,76.03-72.81,106.54-118.99,30.51-46.18,62.8-93.83,107.13-118.06,13.62-7.44,28.53-12.82,39.35-25.38,20.16-23.41,19.13-62.08,25.42-95.19,12.81-67.42,64.82-120.68,121.37-124.27,12.29-.78,25.31,.37,36.17-6.72,12.91-8.43,19.36-26.15,26.17-41.99C1253.79,64.42,1345.77,1.04,1438.06,1.5c92.3,.46,181.74,61.97,234.52,154.52,17.31,30.36,31.09,63.97,51.55,91.25,20.46,27.28,50.07,48.09,79.98,42.36,30.51-5.84,52.9-36.63,77.83-58.9,24.93-22.27,63.21-35.06,84.32-7.5,19.45,25.4,10.67,66.43,17.82,100.11,14.66,69.09,89.11,86.96,146.74,75.47,57.63-11.5,118.94-38.02,171.98-8.16,41.92,23.61,68.45,78.14,111.2,99.44,29.52,14.7,64.76,10.88,91.69-9.96"/></g><path class="cls-2" d="M338.44,1453.88c3.24-.4,.71,5.99-2.19,4.49-2.9-1.49-2.79-5.62-2.18-8.83,16.31-84.99,103.51-150.02,189.62-141.41,75.08,7.51,139.73,62.41,215.05,67.01,99.55,6.07,183.22-77.92,225.96-168.03,42.74-90.11,59.41-191.34,106.73-279.13,56.52-104.86,153.69-183.51,260.5-236.26,67.13-33.15,140.51-57.38,215.35-55.55,238.21,5.82,405.76,262.21,642.03,293.12,107.91,14.12,221.46-24.29,298.66-101"/><path class="cls-2" d="M2442,980.64c-18.01,78.56-77.55,146.32-153.14,174.28-47.35,17.52-99.06,19.92-149.43,16.31-205.42-14.73-392.89-124.47-596.49-155.47-107.56-16.37-217.76-10.32-324.71,9.67-102.38,19.14-204.26,51.97-288.26,113.54-93.64,68.63-158.95,167.96-232.12,258.09-84.95,104.64-182.66,198.92-290.26,280.09-82.95,62.57-183.96,119.79-285.52,97.87"/><path class="cls-2" d="M184.04,2396.16c63.93-74.64,137.21-154.49,234.79-166.18,81.16-9.72,162.56,30.92,243.39,18.81,95.91-14.37,168.78-99.21,263.9-118.08,85.81-17.02,171.21,22.35,254.91,47.81,226.37,68.88,489.9,30.03,668.15-125.58,140.33-122.51,220.79-305.42,370.92-415.68,161.48-118.59,380.84-133.11,575.76-86.82"/><path class="cls-2" d="M202.41,2377.53c45.13-45.03,92.4-89.04,148.14-119.97,55.75-30.94,121.35-48.02,183.92-35.76,43.87,8.6,84.57,31.1,129.06,35.55,75.63,7.56,145.1-37.41,217.22-61.38,80.34-26.7,169.13-27.26,249.8-1.57,79.3,25.25,148.64,74.2,224.05,109.4,105.3,49.15,223.15,71.11,339.08,63.18,55.22-3.78,111.32-14.73,158.57-43.55,92.55-56.46,134.26-169.18,214.66-241.9,116.9-105.74,291-109.24,448.62-106.87"/><path class="cls-2" d="M1089.65,2911.74c21.58-11.38,48.08,3.12,64.53,21.15,16.44,18.03,29.29,40.62,50.99,51.79,44.05,22.68,99.4-12.72,146.34,3.11,25.72,8.67,43.86,31.04,64.66,48.48,70.19,58.88,172.67,61.33,261.81,40.13,89.13-21.2,172.58-62.58,262.04-82.37,153.29-33.91,313.07-2.39,464.87,37.64,36.07,9.51,72.27,19.55,109.46,22.5"/></g></svg>