<?xml version="1.0" encoding="UTF-8"?><svg id="Layer_2" xmlns="http://www.w3.org/2000/svg" viewBox="0 0 828.28 593.39"><defs><style>.cls-1{fill:#b9c2d3;}</style></defs><g id="Seals"><g id="Seals-2"><path class="cls-1" d="M659.21,312.47c-49.31-17.17-169.73,45.8-169.73,45.8l.96-5.17c139.09-70.26,168.78-40.63,168.78-40.63h0Z"/><path class="cls-1" d="M663.88,325.57c-2.4,38.75-65.97,66.63-65.97,66.63,0,0,18.78-8.24,49.5-38.28,30.41-41.18-1.14-44.08-1.14-44.08,0,0,19.78-2.65,17.6,15.73Z"/><path class="cls-1" d="M591.27,396.21c53.28,27.4,81.85,13.61,81.85,13.61-57.79,38.12-99.65-3.96-99.65-3.96,2.16-.66,17.78-9.63,17.78-9.63h.02Z"/><path class="cls-1" d="M672.65,410.51c1.73,5.56,3.34,11.74,.99,17.09-2.24,5.12-7.54,8.15-12.61,10.5-15.21,7.09-31.47,11.62-47.33,17.1-24.94,8.61-48.86,19.86-72,32.49-10.55,5.76-21.03,12.09-29.98,20.19-7.94,7.2-14.09,16.59-20.81,24.34-6.72,7.75-14.43,14.73-22.46,21.1-19.25,15.3-41.54,26.44-65.26,32.91-19.93,5.43-40.68,7.61-61.31,7.09-30.74-.78-59.91-11.33-90.64-13.04-15.93-.88-32.81-.98-48.2,3.77-28.52,8.79-19.82-1.84-69.04-10.16-2.36-.36-4.74-.7-7.1-.99-30.39-3.87-61.33-2.28-91,5.4-8.43,2.18-16.65,4.92-24.91,7.67-2.25,.75-4.6,1.71-6.95,2.09-3.04,.49-4.76-1.18-1.5-3.92,19.07-16.01,42.14-27.73,66.99-31.05,9.83-1.33,19.89-1.33,29.69,.21,3.56,.55,7.59,2.46,11.12,2.62,0,0-12.95-.59-9.14-9.35,10.27-17.98,53.31-8.11,53.31-8.11,0,0-14.97-4.99-11.76-14.75,11.43-15.94,45.24-6.85,45.24-6.85-5.58-4.07-44.59-62.95-44.59-62.95,0,0,23.81,2.17,42.72-2.56,18.91-4.73-32.74-52.28-32.74-52.28,0,0,38.56,26.97,72.71,87.93s97.25,62.87,170.26-6.12c73.03-69,87.2-58.83,87.2-58.83-9.59,11.5-18.76,25.12-21.01,40.26-2.28,15.55,5.34,29.85,20.05,35.77,6.08,2.46,12.89,3.38,19.38,2.33,2.89-.46,6.02-1.29,8.55-2.85,12.43-7.6,24.16-16.25,36.96-22.76,12.81-6.52,26.08-12.1,39.43-17.42,18.61-7.42,37.61-13.9,56.8-19.73,6.95-2.12,14.1-4.2,19.91-8.52s10.14-11.45,9.01-18.6h.01Z"/><path class="cls-1" d="M489.46,358.28l.96-5.17c-31.57-4.47-74.73,35.6-86.12,48.16-11.39,12.56-59.85,63.46-59.85,63.46l61.6-58.81c61.58-58.82,83.44-47.67,83.44-47.67h-.02Z"/><path class="cls-1" d="M158.92,454.4c-57.15-15.89-140.38-72.11-144.11-136.65,13.11-21.64,37.61,23.3,37.61,23.3,2.22-7.47-10.21-28.52-10.21-28.52,21.86-21.02,38.87,23.5,38.87,23.5,.16-.72,.33-1.42,.5-2.12,1.41-5.49,3.52-12.32,8.11-16.01,8.37-6.73,15.95,6.54,18.56,12.66,3.09,7.25,7.44,14.27,13.14,19.77,2.71,2.62,6.65,6.23,10.44,7.08-1.09-2.6-2.88-5.06-4.24-7.54-3.68-6.64-7.06-13.43-10.19-20.35-2.58-5.73-3.91-11.78-6.42-17.52-2.76-6.36-7.29-12.91-14.41-14.65-4.72-1.16-9.67,.04-13.96,2.13-.38,.19-6.4,3.59-6.18,3.94-30.06-45.55-40.23,1.87-40.23,1.87-8.1-19.66-65.84-33.17-16.44,55.29,49.41,88.46,123.59,93.32,123.59,93.32"/><path class="cls-1" d="M204.95,399.01c-.42-.8-.8-1.61-1.18-2.42-4.69-10.3-7.25-21.68-8.74-32.83-2.65-19.72-1.45-39.96,2.33-59.46,3.35-17.4,8.47-33.53,15.48-50.74,7-17.21,15.02-34.19,25.89-49.32,9.71-13.52,21.8-25.16,34.8-35.48,16.88-13.37,35.41-25.6,54.17-36.16,17.09-9.64,34.99-17.91,53.53-24.37,21.08-7.35,42.98-12.34,65.21-14.4,18.1-1.68,36.39-1.43,54.45,.9,14.08,1.8,28,4.88,41.53,9.24,9.07,2.92,17.95,6.4,26.47,10.61,2.92,1.44,6.79,2.86,9.25,5.04-72.53-64.07-241.05-46.66-348.57,43.96-107.52,90.63-74.5,189.45-78.25,189.24-3.75-.21-12.52,1.3-12.52,1.3,19.81,.04,66.13,44.87,66.13,44.87h.03Z"/><path class="cls-1" d="M375.33,432.19c3.72-3.25,7.42-6.52,11.14-9.77-6.53-6.34-15.1-10.3-23.99-12.21-8.88-1.91-18.1-1.83-27.14-.84-3.04,.34-6.08,.77-9.14,1.15-10.85,1.37-24.31,2.35-34.75-1.06-18.44-6.03-31.04-19.37-44.84-32.75-3.83-3.71-7.89-7.56-11.12-11.83,36.61,48.31,48.34,53.8,89.12,51.4,1.32-.07,2.65-.13,3.98-.16,8.37-.22,16.63,.55,24.78,2.46,4.3,1.01,8.45,2.74,12.2,5.09,.91,.56,10.39,7.96,9.75,8.52h0Z"/><path class="cls-1" d="M390.63,418.39c-2.45,2.4-4.9,4.79-7.35,7.19-9.76-9.07-16.69-20.88-21.53-33.31-8.65-22.17-14.2-48.03-7.65-70.66,6.55-22.63,22.55-41.32,40.7-55.75,6.63-5.27,13.66-10.07,20.98-14.35,2.88-1.69,6.17-2.98,8.93-4.82-22.74,15.16-44.83,33.91-58.01,58.29-9.15,16.91-12.93,36.17-9.48,55.17,4.04,22.33,16.97,42.93,33.4,58.23v.02Z"/><path class="cls-1" d="M350.9,397.81c-48.39-11.53-109.27-80.3-99.95-120.66,9.31-40.36,47.31-83.34,146.76-100.02,99.45-16.67,129.35-22.05,129.35-22.05-52.59,28.07-189.05,6.7-217.8,109.57-28.75,102.87,41.66,133.14,41.66,133.14h-.02Z"/><path class="cls-1" d="M489.25,221.72c8.09-5.04,17.14-8.41,26.3-10.88l.14-.04c19.62-5.27,39.92-7.3,60.2-7.66,26.36-.47,52.67,1.83,78.99,3,7.09,.32,14.18,.31,21.28,.06,28.65-.99,56.95-7.53,85.61-7.82,9.41-.09,18.96,1.38,28.27-.27,5.17-.91,11.13-3.66,11.65-8.91,.52-5.37-5.03-9.26-10.11-11.07-10.81-3.85-22.52-4.05-33.98-4.21,20.31-3.96,36.98-6.77,56.16-14.54,6.34-2.56,10.92-1.03,12.58,5.93,1.62,6.74,2.52,13.81,1.55,20.71-.76,5.42-2.82,11.43-6.94,15.25-5.17,4.79-12.35,6.6-19.08,7.94-8.68,1.74-18.19,1.71-26.93,.64,7.21,.5,19.21,1.82,23.44,8.57-6.39,8.94-17.29,8.5-27.02,6.5-9.94-2.06-20.13-3.61-30.29-3.74-10.83-.12-21.66,.49-32.49,.31-29.98-.52-59.78-4.23-89.42-8.55-95.8-13.92-129.93,8.8-129.93,8.8l.03-.03Z"/><path class="cls-1" d="M769.68,165.95c18.63-3.62,16.63-50.89-12.25-23-34.37,38.55-77.42,20.92-77.42,20.92,31.4,3.21,52.9-17.09,69.04-37.82,6.04-7.77,12.54-17.44,21.82-21.63,8.26-3.72,20.09-.94,26.44,5.4,3.83,3.83,5.72,9.27,6.21,14.65,1.04,11.68-2.28,23.06-11.45,30.76-5.53,4.64-14.84,10.37-22.4,10.72v.02Z"/><path class="cls-1" d="M681.64,151.82s38.4-21.15,40.6-43.78c2.2-22.63-27.88,17.73-27.88,17.73,30.5-42.55-33.77-122.69-35.52-82.94-1.75,39.74-.18,47.53-.18,47.53-4.45-33.83-52.09-39.9-34.27-4.32,26.43,39.5,2.01,59.18,2.01,59.18,30.74-48.08-46.55-69.67-38.86-89.63,16-27.01,59.99,6.78,59.99,6.78,0,0-30.16-66.99,7.13-62.11,55.47,23.86,54.86,94.79,54.86,94.79,7.06-7.97,35.35-13.37,26.28,14.23-9.06,27.6-54.16,42.56-54.16,42.56v-.02Z"/><path class="cls-1" d="M548.79,365.47c6.51-14.83,18.2-5.42,18.2-5.42,2.77,16.03-20.31,16.28-18.2,5.42Z"/><path class="cls-1" d="M634.38,315.49c-.06,.45,.27,.86,.78,1.52,1.24,1.69,2.88,3.04,4.74,4,3.73,1.94,8.22,2.38,12.29,1.37-.02,.01-6.2,1.53-10.12-5.88-.86-1.61-2.28-3.72-4.36-3.58-1.17,.08-2.06,.83-2.82,1.66-.32,.34-.47,.61-.5,.88v.03Z"/><path class="cls-1" d="M582.61,336.22h0c7.92-4.46,17.39-6.76,26.47-5.13,10.89,1.81,24.66,13.42,16.17,24.83-7.33,9.27-20.23,11.58-31.39,11.78-4.43-.26-9.51-.53-12.89-3.77,8.97,6.51,29.84,1.61,38.37-4.34,14.84-10.61,3.27-24.24-10.5-27.32-8.79-1.85-18.15,.14-26.23,3.92v.03Z"/><path class="cls-1" d="M570.31,359.02c1.39,13.38-5.81,31.93-22.65,27.26l.02-.16c16.24,1.11,22.38-13.04,22.63-27.1h0Z"/><path class="cls-1" d="M661.7,325.45h0c10.92-2.45,27.04-.83,32.5,10.84l-.14,.07c-7.81-9.44-20.62-12.28-32.37-10.91h0Z"/><path class="cls-1" d="M662.07,332.1c11.58,2.55,24.81,10.34,28.79,22.46l-.15,.06c-6.68-10.52-16.7-18.74-28.64-22.51h0Z"/><path class="cls-1" d="M659.29,339c9.65,6.78,27.73,23.49,21.63,36.86l-.15-.06c2.53-14.28-11.69-28.09-21.48-36.8h0Z"/><path class="cls-1" d="M671.93,409.8h0c-1.71-5.08-6.05-8.67-10.04-11.99l1.28-.6c-.45,5.83-.33,12.13-2.82,17.49,.51-1.39,.57-2.87,.68-4.33,.24-2.99,.46-10.13,.57-13.22l.06-1.57c4.51,3.61,9.67,8.1,10.29,14.21h-.02Z"/><path class="cls-1" d="M660.38,414.73h0c-3.41-5.64-6.59-12.4-12.65-15.42l1.04-.78c.03,5.57,.68,11.62-1.57,16.83,.78-2.71,.44-5.58,.44-8.36-.05-.66-.46-9.22-.49-9.58,7.33,2.51,10.76,10.55,13.21,17.27v.05Z"/><path class="cls-1" d="M647.98,415.34h0c-4.15-3.73-8.05-8.41-12.07-12.2l1.2-.67c-.06,4.23,.32,8.83-1.42,12.78,.48-1.81,.17-4.49,.16-6.34-.06-1.18-.33-6.99-.37-8.04,5.16,3.95,8.83,9.21,12.5,14.48h0Z"/><path class="cls-1" d="M633.06,413.12h0c-2.37-2.18-4.3-4.88-6.19-7.39l1.34-.54c-.04,2.23-.22,4.74-1.7,6.52,.63-2.84,.14-5.85,.04-8.71,2.75,2.99,5.02,6.34,6.52,10.11h0Z"/><path class="cls-1" d="M389.67,459.99c3.9-3.82-2.01-9.87-5.92-6.05-3.9,3.82,2.03,9.85,5.92,6.05h0Z"/><path class="cls-1" d="M368.69,453.69c1.95-1.91-1.01-4.93-2.96-3.03s1.01,4.93,2.96,3.03h0Z"/><path class="cls-1" d="M306.85,460.41c3.9-3.82-2.01-9.87-5.92-6.05s2.03,9.85,5.92,6.05h0Z"/><path class="cls-1" d="M243.04,461.83c3.9-3.82-2.01-9.87-5.92-6.05-3.9,3.82,2.03,9.85,5.92,6.05h0Z"/><path class="cls-1" d="M217.98,407.46c2.92-2.86-1.52-7.39-4.44-4.54s1.52,7.39,4.44,4.54h0Z"/><path class="cls-1" d="M244.03,441.68c4.87-4.76-2.52-12.33-7.4-7.57-4.87,4.76,2.52,12.33,7.4,7.57h0Z"/><path class="cls-1" d="M338.63,475.56c2.92-2.86-1.52-7.39-4.44-4.54s1.52,7.39,4.44,4.54h0Z"/><path class="cls-1" d="M333.03,458.99c.97-.95-.51-2.46-1.48-1.51s.51,2.46,1.48,1.51h0Z"/><path class="cls-1" d="M309.33,487.34c1.95-1.91-1.01-4.93-2.96-3.03s1.01,4.93,2.96,3.03h0Z"/><path class="cls-1" d="M298.66,437.37c1.95-1.91-1.01-4.93-2.96-3.03-1.95,1.91,1.01,4.93,2.96,3.03h0Z"/><path class="cls-1" d="M260.13,483.09c.97-.95-.51-2.46-1.48-1.51s.51,2.46,1.48,1.51h0Z"/><path class="cls-1" d="M248.56,414.89c.97-.95-.51-2.46-1.48-1.51s.51,2.46,1.48,1.51h0Z"/><path class="cls-1" d="M273.47,465.82c.97-.95-.51-2.46-1.48-1.51s.51,2.46,1.48,1.51h0Z"/><path class="cls-1" d="M280.17,488.42c.97-.95-.51-2.46-1.48-1.51s.51,2.46,1.48,1.51h0Z"/><path class="cls-1" d="M272.32,442.97c1.95-1.91-1.01-4.93-2.96-3.03s1.01,4.93,2.96,3.03h0Z"/><circle class="cls-1" cx="479.8" cy="138.35" r="5.04"/><circle class="cls-1" cx="479.71" cy="138.47" r="5.04"/><circle class="cls-1" cx="539.49" cy="137.23" r="2.79"/><circle class="cls-1" cx="483.25" cy="117.4" r="2.79"/><circle class="cls-1" cx="453.1" cy="122.55" r="1.61"/><circle class="cls-1" cx="448.08" cy="109.09" r="1.21"/><circle class="cls-1" cx="432.99" cy="134.46" r="1.21" transform="translate(29.39 341.03) rotate(-44.36)"/><circle class="cls-1" cx="407.51" cy="135.67" r="1.61" transform="translate(21.28 323.56) rotate(-44.36)"/><circle class="cls-1" cx="453.94" cy="134.7" r="2.79"/><circle class="cls-1" cx="502.2" cy="126.64" r="2.16"/><circle class="cls-1" cx="504.38" cy="132.11" r="1.21"/><circle class="cls-1" cx="390.28" cy="138.72" r="1.21" transform="translate(14.24 312.38) rotate(-44.36)"/></g></g></svg>