<?xml version="1.0" encoding="UTF-8"?><svg id="Layer_2" xmlns="http://www.w3.org/2000/svg" viewBox="0 0 664.12 595.98"><defs><style>.cls-1{fill:#b8c1d2;}</style></defs><g id="Seals"><g><path class="cls-1" d="M471.48,195.45s22.7-58.77,135.82-82.62c9.29-1.98,18.55-4.06,27.78-6.29,2.83-.68,5.66-1.38,8.48-2.1,4.43-1.13,8.43-2.51,12.23,1.12,7.99,7.63-1.94,20.97-6.94,27.38,0,0,9.23,15.97-31.74,50.02-13.03,10.82-23.86,24.2-33.7,37.9-10.02,13.96-19.04,28.61-27.62,43.49-6.29,10.9-12.13,22.08-18.59,32.88-9,15.04-19.86,29.34-31.69,42.27-7.85,8.58-16.37,16.55-25.43,23.84-11.23,9.05-23.3,17.05-35.94,23.99-15.3,8.4-31.43,15.23-48.02,20.65-14.36,4.69-29.05,8.31-43.91,11.02-18.01,3.28-36.47,4.66-54.74,3.04-15.28-1.36-30.41-4.85-44.5-10.98-12.5-5.44-24.08-12.94-34.05-22.25-9.49-8.86-17.46-19.29-23.67-30.69-6.2-11.37-10.65-23.66-13.39-36.31-3.06-14.12-3.98-28.65-2.92-43.05,.76-10.29,2.71-20.42,4.36-30.59l6.16,5.77s-18.47,177.75,157.36,150.82c0,0-68.2-2.79-81.47-30.78,.17,.36,1.38,.77,1.7,.95,1.65,.88,3.33,1.69,5.03,2.46,6.19,2.82,12.62,5.09,19.16,6.95,9.74,2.77,19.75,4.57,29.83,5.45,12.9,1.13,25.92,.72,38.73-1.1,15.76-2.24,31.17-6.62,45.87-12.69,18.25-7.53,35.38-17.62,51.25-29.32,17.55-12.93,34.22-27.61,48.27-44.31,8.92-10.61,17.21-21.77,26.06-32.45,9.4-11.5,18.91-22.91,28.55-34.2,10.02-11.73,20.19-23.33,30.66-34.65,7.77-8.39,15.82-16.37,23.99-24.36,4.81-4.71,10.18-8.79,15.14-13.33,2.51-2.29,5.07-4.71,7.13-7.42,1.45-1.9,3.93-4.88,3.39-7.44-.8-3.83-7.34-.59-9.2,.39-4.33,2.29-8.28,5.59-11.22,9.51,0,0,40.98-51.94,22.8-48.77-18.18,3.17-123.31,22.41-171.02,85.8Z"/><path class="cls-1" d="M471.93,194.42s-130.11,161.09-298.34-9.74c-19.05-19.76-40.24-37.63-63.75-51.87-16.85-10.21-34.91-18.55-53.86-24.03-12.4-3.58-25.22-5.98-38.13-6.58-5.3-.25-10.59,.04-15.88,.39-.26,.02-.54,.04-.75,.2-.25,.19-.34,.53-.4,.85-3.33,16.58,3.52,34.3,17.62,43.79,8.95,6.02,19.63,9.08,30.19,10.7,0,0-18.76,25.97,20.49,22.8,0,0-13.85,24.24,35.2,32.9,0,0-12.7,23.66,30.3,23.66,0,0-2.02,17.03,27.41,15.29,29.43-1.73,59.73,15.29,68.97,61.46,4.42,22.1,21.11,41.14,42.95,47.49,21.36,6.22,50.93,1.72,62.3-19.8,5.19-9.82,.16-18.81-9.14-23.36,4.05,4.53,7.2,10.47,6.26,16.48-.54,3.47-2.41,6.62-4.72,9.27-7.54,8.65-20.93,14.47-32.34,14.93-9.34,.38-18.62-2.89-25.58-9.15-14.74-13.28-14.28-34.86,.09-48.25,29.14-33.76,157.78-13.99,201.09-107.41Z"/><path class="cls-1" d="M431.96,393.6s-69.56,38.28-66.67,90.61c2.89,52.33,0,82.91-35.59,111.77,0,0,31.74-25.39,26.74-87.15-5-61.75,4.23-70.22,54.44-109.65l21.08-5.58Z"/><path class="cls-1" d="M315.28,582.32s-11.16-30.97,27.32-87.53c0,0-23.85,30.59-29.82,19.05-5.96-11.54,17.89-39.24,17.89-39.24,0,0-13.47,10.2-17.7,4.81-4.23-5.39,5.39-22.51,16.74-30.59,0,0-18.84,13.66-17.89,3.08s11.92-21.16,11.92-21.16c0,0-32.51,12.89-17.51,31.93,0,0-15.39,26.55,.19,34.05,0,0-18.08,40.78,.77,41.36,0,0-7.12,34.82,8.08,44.25Z"/><path class="cls-1" d="M194.21,204.15s9.1-36.79,37.58-63.34c0,0-30.72,35.78-31.32,68.68l-6.25-5.34Z"/><path class="cls-1" d="M287.95,257.43s-48.09-30.04-26.54-116.61c0,0-27.49,61.76,10.49,111.49l16.05,13.94v-8.82Z"/><path class="cls-1" d="M231.54,166.57c-.14-.43-.25-.91-.33-1.43-1.8-11.36-1.7-23.25-1.06-34.71,.47-8.41,1.44-16.8,2.89-25.1,1.7-9.74,4.09-19.37,7.16-28.77,3.46-10.58,7.79-20.88,12.99-30.72,5.78-10.95,12.62-21.33,20.39-30.96,4.18-5.18,8.63-10.15,13.32-14.88,0,0-18.04,30.78-12.12,33.86,4.81,2.5,19.81-19.62,19.81-19.62,0,0-14.17,20.08-11.17,26.36,1.93,4.04,16.17-15.2,16.17-15.2,0,0-17.51,23.85-14.81,28.09,2.69,4.23,20.58-18.66,20.58-18.66,0,0-8.08,15.01-4.62,16.93s12.5-10.97,12.5-10.97l-41.72,72.14s26.71-35.2,75.96-35.59c0,0-34.05,11.54-28.86,15.39,0,0,30.4-2.12,36.94,1.15,0,0-64.88,18.23-60.41,23.28,0,0,31.45-6.06,44.29,0-2.24,.42-4.48,.9-6.71,1.39-5.7,1.25-11.37,2.63-17.01,4.14-7.62,2.04-15.18,4.3-22.64,6.86-8.02,2.76-15.95,5.86-23.59,9.56-12.37,5.99-24.52,13.42-30.57,26.3-.57,1.21-1.17,2.4-1.71,3.61-.07,.16-.15,.34-.3,.44-.18,.13-.41,.15-.63,.16-2.68,.11-4.09-.92-4.77-3.05Z"/><path class="cls-1" d="M535.88,168.23s-17.31-2.74-26.98,12.41l8.37-1.44-4.91,14.57,23.52-25.54Z"/><path class="cls-1" d="M570.51,149.04s7.5-21.64,20.63-12.41c0,0-.43,16.02-20.63,13.13"/><path class="cls-1" d="M503.39,241.51s10.67-16.86,10.67-16.86c0,0,5.33-8.43,5.33-8.43,.87-1.4,1.78-2.88,3.23-3.82,7.5-3.84,1.96,18.95,1.26,21.91-1.64,6.46-3.93,12.75-6.64,18.83-4.72,10.64-10.82,20.69-17.38,30.28-6.42,9.43-13.97,19.01-21.66,27.4-3.06,3.52-7.06,7.53-10.37,10.81-4.07,4.1-10.31,9.78-14.76,13.46-18.38,15.6-39.13,28.58-61.08,38.52-1.98,.86-9.49,3.96-11.52,4.83,0,0-9.39,3.41-9.39,3.41l-2.35,.85c-3.46,1.08-8.47,2.6-11.93,3.68-7.91,1.94-16.27,4.64-24.51,4.26,0,0,0-.1,0-.1,4.95,.05,9.98-.73,14.74-2.08,2.44-.68,7.2-1.91,9.63-2.57,3.47-1.1,8.42-2.68,11.87-3.77,1.31-.51,10.12-3.76,11.67-4.36,3.37-1.47,10.54-4.43,13.68-5.99,2.25-1.11,6.7-3.27,8.94-4.38,4.19-2.3,8.97-4.77,13.07-7.22,0,0,8.51-5.17,8.51-5.17,15.21-9.84,29.92-21.23,42.85-33.95,8.32-8.04,16.1-16.86,23.28-25.91,9.97-13.1,19.49-27.17,26.25-42.2,2.74-6.05,5.04-12.3,6.71-18.72,.89-3.48,6-25.03-.73-21.57-1.37,.89-2.29,2.32-3.16,3.72,0,0-5.37,8.4-5.37,8.4-.09-.05-10.69,17.07-10.83,16.75h0Z"/><path class="cls-1" d="M616.94,141.06c-22.08,10.52-40.92,29.12-48.45,52.73,0,0-.1-.03-.1-.03,6.94-23.19,25.78-44.52,48.54-52.7h0Z"/><path class="cls-1" d="M612.72,147.59c-15.02,14.66-24.22,34.95-26.61,55.72-2.29,21,2.57,42.19,11.04,61.38-4.55-9.22-7.85-19.69-10.04-29.93-3.23-15.51-3.14-31.82,1.1-47.13,4.3-15.07,12.55-30.02,24.51-40.04h0Z"/><path class="cls-1" d="M312.93,388.87s24.42,3.43,41.95-3.13l-15.01,10.11-23.45-3.32-3.5-3.65Z"/><path class="cls-1" d="M423.29,360.34c1.64-2.36,3.89-4.25,6.16-5.99,3.06-2.36,6.13-4.68,9.36-6.82,.58-.39,1.17-.77,1.76-1.15l-15.87,8.56-.29,1.02c-32.75,23.31-83.65,34.03-83.65,34.03l8.8,5.14c76.95,8.66,125.69-62.88,125.69-62.88-7.96,5.99-15.98,11.89-24.16,17.58-5.18,3.6-10.42,7.14-15.85,10.35-2.9,1.72-5.9,3.47-9.09,4.61-1.47,.52-4.61,1.51-4.37-1.2,.05-.57,.29-1.11,.55-1.61,.29-.56,.62-1.1,.98-1.62Z"/><path class="cls-1" d="M613.55,150.54c-9.12,26.33-24.84,83.98,15.97,89.85,11.62,1.69,23.59-1.18,34.59-4.07-11.16,3.37-22.96,6.02-34.66,4.57-41.29-5.54-26.97-64.36-15.9-90.35h0Z"/><path class="cls-1" d="M612.73,160.87c-3.52,22.79-4.65,60.31,25.34,63.94,4.18,.53,8.51,.27,12.69-.23,0,0,.01,.1,.01,.1-4.19,.57-8.53,.91-12.74,.46-30.09-3.04-31.02-41.74-25.3-64.27h0Z"/></g></g></svg>