<?xml version="1.0" encoding="UTF-8"?><svg id="Layer_2" xmlns="http://www.w3.org/2000/svg" viewBox="0 0 643.77 455.02"><defs><style>.cls-1{fill:none;stroke:#b8c1d2;stroke-miterlimit:10;}.cls-2{fill:#b8c1d2;}</style></defs><g id="Seals"><g><path class="cls-2" d="M154.95,17.06c-.42-.1-.84-.26-1.25-.38-1.19-.35-2.39-.69-3.59-1.01-1.87-.5-3.74-.98-5.62-1.43-2.45-.59-4.9-1.13-7.37-1.64-2.93-.6-5.87-1.14-8.81-1.63-3.31-.54-6.63-1.02-9.96-1.41-3.6-.42-7.2-.75-10.82-.97-3.79-.23-7.58-.35-11.38-.32s-7.77,.19-11.64,.54c-3.89,.35-7.77,.87-11.61,1.61s-7.59,1.69-11.28,2.9c-3.66,1.2-7.23,2.65-10.66,4.4-3.42,1.74-6.69,3.78-9.74,6.11-3.11,2.38-5.97,5.08-8.53,8.04-2.7,3.13-5.04,6.55-7.01,10.18-1.97,3.63-3.55,7.46-4.81,11.39-.64,1.98-1.19,3.99-1.68,6.02-.23,.98-.47,1.96-.66,2.94-.13,.66-.49,1.52-.23,2.19,.1,.27,.3,.49,.49,.7,1.46,1.7,2.37,3.82,2.73,6.03,.18,1.1,.22,2.21,.12,3.32s-.57,2.11-.65,3.15c0,0-9.91,31.07,17.88,35.18,0,0-29.86-12.16-9.15-44.12,7.4-18.27-7.94-6.96-7.94-6.96,0,0,7.94-73.66,133.19-44.84Z"/><path class="cls-2" d="M220.67,2.81s91.08-21.21,184.17,52.91c13.83,11.01,26.1,23.88,37.06,37.72,11.14,14.07,20.96,29.16,29.76,44.79,8.56,15.2,16.16,30.92,23.01,46.96,6.19,14.51,11.77,29.28,16.8,44.22,4.07,12.08,7.78,24.29,11.13,36.59,2.31,8.49,3.96,17.09,6.13,25.61,.58,2.3,1.28,4.61,2.61,6.57,3.8,5.58,11.86,4.71,17.7,4.16,6.76-.65,13.41-2.39,19.87-4.46s13.38-4.79,19.88-7.63c52.68-22.99,60.89,5.5,51.77,14.53-9.12,9.03-22.47,18.48-22.47,18.48,0,0,20.59,7.53,12.2,17s-21.83,16.88-35.18,17.06c0,0,11.99,19.52-7.97,30.59-19.96,11.06-22.39-16.57-22.39-16.57,0,0,2.36,33.21-8.46,50.49-10.81,17.26-14.03-8.48-14.03-8.52,.16,1.26-1.28,3.7-1.71,4.85-1.47,3.94-3.09,7.82-4.89,11.61-3.92,8.3-8.96,18.22-17.05,23.2-13.32,8.19-25.24-10.05-26.77-21.52-1.6-11.98,5-22.06,8.48-32.99,2.9-9.09,3.62-18.49,1.63-27.86-3.23-15.13-12.05-28.72-21.44-40.73-12.25-15.67-27.28-29.76-41.72-43.4-16.07-15.17-32.97-29.81-52.07-41.06-19.04-11.22-40.28-15.59-61.81-19.03-22.39-3.58-44.9-6.38-67.48-8.37-26.08-2.3-52.13-4.55-78.32-5.51,0,0,29.43,45.34,23.41,55.26,.39-.65-4.32-5.46-4.69-5.86-5.94-6.53-12.73-12.32-19.62-17.82-18.16-14.5-37.83-26.95-57.73-38.89-17.9-10.74-35.6-20.85-51.03-35.1-14.5-13.39-29.23-31.11-32.02-51.4-.07-.49-.02-5.83-.29-5.99,0,0,33.07,5.92,56.96-34.54,0,0-43.51,81.53,78,108.25,121.51,26.72,216.17-14.16,130.07-45.22-25.18-8-58.77,9.02-58.78,9.03,3.12-1.58,5.9-4.15,9.05-5.81,8.7-4.58,18.24-7.54,27.9-9.29,28.44-5.16,57.03,.22,84.14,9.05,4.07,1.33,8.25,2.73,12.51,2.4,2.09-.16,4.25-.81,5.7-2.33,2.07-2.18,2.17-5.6,1.49-8.53-1.3-5.68-4.9-10.55-8.72-14.95-24.64-28.42-62.72-44.52-100.26-42.75-15.21,.72-34.85-.71-47.7-10.14-8.71-6.39-6.88-14.68,1.66-20.22,7.19-4.66,15.87-7.08,24.13-8.99,14.05-3.25,28.49-4.76,42.86-5.68,16.43-1.05,32.92-1.2,49.38-.87,0,0-20.97-24.64-124.86-29.25Z"/><path class="cls-2" d="M80.49,61.14s-8.44-14.93-18.69-.29c-.23,10.41,16.42,7.11,18.69,.29Z"/><path class="cls-2" d="M37.34,84.37s-5.1-5.7-6.01,.7c-.91,6.4,6.85,9.37,6.85,9.37,0,0,11.07-10.67,7.5-14.2-3.57-3.53-8.34,4.13-8.34,4.13Z"/><path class="cls-2" d="M37.01,93.92s-3.96,1.62-7.72,9.65l8.56-7.35,15.01,9.23s-6.62-8.73-13.19-12.53l-2.66,1Z"/><circle class="cls-2" cx="149.17" cy="60.48" r="4.78"/><circle class="cls-2" cx="146.25" cy="88.14" r="3.93"/><circle class="cls-2" cx="172.61" cy="80.3" r="3.93"/><circle class="cls-2" cx="135.44" cy="68.04" r="2.62"/><circle class="cls-2" cx="160.61" cy="73.01" r="2.62"/><circle class="cls-2" cx="177.77" cy="66.54" r="1.56"/><circle class="cls-2" cx="163.94" cy="49.5" r="1.56"/><circle class="cls-2" cx="138.02" cy="46.76" r=".93"/><circle class="cls-2" cx="169.92" cy="66.12" r=".93"/><circle class="cls-2" cx="181.05" cy="92.66" r=".93"/><circle class="cls-2" cx="167.36" cy="93.99" r="1.56"/><circle class="cls-2" cx="58.22" cy="91" r=".93"/><circle class="cls-2" cx="54.36" cy="94.57" r=".93"/><circle class="cls-2" cx="59.66" cy="96.13" r=".93"/><path class="cls-1" d="M86.67,132.34c.69-4.7-.16-9.49-.05-14.24,.11-4.75,1.46-9.91,5.33-12.67,2.65-1.89,6.1-2.35,9.32-1.96,6.74,.8,12.67,4.97,17.22,10,4.54,5.04,7.95,10.97,11.74,16.6,16.29,24.15,40.48,42.88,67.93,52.61,17.7,6.28,36.9,8.86,55.44,5.87s36.36-11.78,48.88-25.78"/><path class="cls-1" d="M131.4,130.42c7.92,9.33,16.04,18.82,26.49,25.17,12.55,7.62,28.7,10.49,43.01,6.8,6.77-1.75,13.15-5.06,18.41-9.67,4.63-4.05,8.63-9.32,9.68-15.5,.91-5.39-.17-11.14-3.25-15.69-4.4-6.53-12.64-10.24-20.45-9.22"/><path class="cls-2" d="M75.64,50.71c-3.08,.65-6.3,1.62-8.63,3.77-1.97,1.89-3.76,4.54-3.71,7.34,1.41,5.85,9.27,8.13,14.32,10.46-6.57-.25-15.72-2.51-17.29-10.04-.31-3.77,2.25-7.53,5.26-9.6,2.96-2.05,6.61-2.5,10.05-1.92h0Z"/><path class="cls-2" d="M29.54,69.23c.36-3.48,2.48-7.52-.16-10.34-.83-.78-2.02-1.46-3.34-2.23,3.24-1.16,7.34,.82,7.57,4.56,.2,3.33-1.48,6.19-4.07,8.01h0Z"/><path class="cls-2" d="M29.82,61.98l2.41-.23-.63,3.48s-1.13,2.86-2.63,4.76,.84-8.02,.84-8.02Z"/><path class="cls-1" d="M30.35,91.26s-22.35,0-29.9,14.63"/><path class="cls-1" d="M26.2,95.64s-17.47,9.15-23.09,26.6"/><path class="cls-1" d="M27.12,101.22s-10.27,10.65-11.76,27.29"/></g></g></svg>