<?xml version="1.0" encoding="UTF-8"?><svg id="Layer_2" xmlns="http://www.w3.org/2000/svg" viewBox="0 0 1632.82 4708.34"><defs><style>.cls-1{fill:none;stroke:#8fd4d7;stroke-miterlimit:10;stroke-width:3px;}.cls-2{opacity:.14;}</style></defs><g id="Seals"><g class="cls-2"><path class="cls-1" d="M4.37,.08C-3.25,140.78-3.03,301.78,101.29,396.49c30.39,27.59,67.87,47.31,94.74,78.34,65.2,75.32,48.61,187.99,60.22,286.93,18.3,155.93,147.49,311.15,303.94,297.97,51.51-4.34,103.44-26,153.33-12.48,107.64,29.17,118.22,187.51,210.94,249.48,30.78,20.57,68.07,28.52,101.81,43.75,114.53,51.7,175.97,186.87,166.85,312.2-9.12,125.33-77.47,239.88-163.19,331.77-85.72,91.89-188.99,165.18-286.43,244.53-165.31,134.63-318.57,293.02-402.05,489.19-83.48,196.17-86.84,436.03,33.16,612.24,123.85,181.86,355.15,270.49,471.32,457.35,73.15,117.68,91.81,262.76,78.49,400.68-13.32,137.92-86.37,372.79-129.14,504.59"/><path class="cls-1" d="M14.53,3.89C5.29,128.46,2.91,269.15,73.49,367.41c10.63,14.81,22.89,28.61,36.8,41.36,20.03,18.37,42.77,33.71,63.19,51.26,11.13,9.56,21.53,19.73,30.58,31.24,48.93,62.23,47.1,147.2,55.41,227.48,2.34,21.88,5.28,43.08,9.53,63.36,9.56,45.66,29.44,89.67,56.27,129.57,60.74,90.58,159.07,161.2,267.73,159.22,51.6-.88,102.77-15.99,152.26-.61,99.84,31.03,111.47,176.5,198,235.56,28.72,19.6,63.45,27.57,94.86,42.26,106.66,49.9,164.03,176.95,155.86,294.91-8.17,118.02-72.7,224.95-151.33,313.17-80.41,90.22-182.2,159.76-278.37,234.07-4.44,3.43-8.87,6.88-13.29,10.35-169.67,133.21-322.42,298.57-398.86,498.94-76.42,200.87-66.41,441.13,62.7,611.25,42.53,56.16,95.83,102.48,150.99,148.42,117.21,97.6,237.96,188.56,313.63,319.63,24.79,42.89,43.71,88.76,58.19,135.91,15.98,51.97,26.56,105.29,30.84,159.55,2.84,35.74,2.8,71.81,.72,107.57-2.52,43.35-10.54,95.35-21.49,150.35-24.86,124.09-62.44,267.79-88.12,361.94"/><path class="cls-1" d="M24.68,7.7c-11.85,126.92-15.9,270.74,56.93,371.17,10.94,15.09,23.56,29.12,37.67,42.19,20.39,18.89,43.24,35.01,63.25,53.65,10.91,10.15,20.92,20.94,29.54,33.01,46.59,65.21,41.99,152.84,55.25,232.76,3.64,21.91,8.39,42.53,14.41,61.99,13.5,43.62,37.31,84.05,67.04,121.1,67.12,84.1,168.32,153.32,277.01,158.52,51.69,2.58,102-6.07,151.19,11.26,92.06,32.43,104.71,165.49,185.06,221.65,26.67,18.64,58.82,26.61,87.91,40.76,98.79,48.11,152.1,167.02,144.88,277.62-7.21,110.7-67.74,210.26-139.46,294.58-78.89,92.74-184.5,160.84-283.25,234.09-4.56,3.38-9.11,6.79-13.64,10.22-174.03,131.8-326.27,304.13-395.67,508.7-69.37,205.57-45.99,446.23,92.23,610.27,45.41,54.1,101.33,98.07,157.28,144.54,118.96,98.82,228.27,199.1,300.65,334.2,23.7,44.13,42.46,90.79,58.19,138.11,17.39,52.21,31.04,104.84,37.83,159.08,4.5,35.75,5.76,72.05,5,108.21-.93,44.44-7.3,97.05-16.5,152.34-20.95,124.34-51.89,270.76-73.6,367.65"/><path class="cls-1" d="M34.83,11.5c-14.46,129.26-20.19,276.22,54.9,378.81,11.25,15.37,24.23,29.63,38.55,43.01,20.75,19.41,43.7,36.31,63.32,56.03,10.69,10.74,20.31,22.15,28.5,34.78,44.24,68.2,37.04,158.47,55.09,238.04,4.97,21.93,11.48,41.99,19.29,60.61,17.42,41.57,45.19,78.42,77.81,112.63,73.5,77.62,177.56,145.43,286.3,157.81,51.78,6.03,101.14,3.76,150.12,23.13,84.31,33.34,97.96,154.49,172.13,207.73,24.62,17.67,54.19,25.66,80.96,39.27,90.92,46.31,140.17,157.09,133.9,260.33-6.25,103.39-62.57,195.81-127.6,275.99-77.36,95.39-186.79,161.93-288.13,234.11-4.68,3.34-9.35,6.7-13.99,10.09-178.39,130.38-330.12,309.68-392.48,518.45-62.32,210.28-25.56,451.33,121.77,609.28,48.28,52.03,106.84,93.65,163.57,140.67,120.71,100.03,218.58,209.64,287.66,348.78,22.6,45.37,41.21,92.82,58.19,140.3,18.8,52.46,35.52,104.38,44.82,158.6,6.17,35.76,8.74,72.3,9.29,108.84,.68,45.53-4.06,98.76-11.5,154.33-17.04,124.59-41.34,273.72-59.07,373.37"/><path class="cls-1" d="M44.98,15.31c-17.08,131.6-24.47,281.7,52.87,386.46,11.55,15.66,24.9,30.14,39.43,43.84,21.11,19.92,44.16,37.6,63.39,58.41,10.47,11.33,19.7,23.36,27.46,36.56,41.89,71.18,32.12,164.11,54.93,243.33,6.32,21.95,14.56,41.44,24.16,59.24,21.32,39.52,53.13,72.73,88.58,104.16,80.02,70.97,186.81,137.55,295.58,157.11,51.87,9.49,100.21,13.47,149.05,35,76.65,33.78,91.21,143.48,159.19,193.81,22.56,16.7,49.56,24.7,74.01,37.77,83.05,44.52,128.23,147.17,122.91,243.04-5.3,96.07-57.2,181.58-115.73,257.39-75.8,98.18-189.09,163.01-293,234.13-4.8,3.29-9.58,6.61-14.34,9.96-182.75,128.97-333.97,315.23-389.3,528.2-55.27,214.98-5.13,456.43,151.3,608.3,51.16,49.97,112.34,89.24,169.86,136.79,122.46,101.24,208.89,220.17,274.68,363.35,21.5,46.61,39.96,94.86,58.18,142.5,20.21,52.7,40,103.93,51.81,158.12,7.83,35.77,11.74,72.56,13.57,109.47,2.31,46.63-.82,100.47-6.5,156.32-13.13,124.84-30.79,276.69-44.54,379.08"/><path class="cls-1" d="M55.13,19.12c-19.69,133.95-28.76,287.18,50.84,394.1,11.86,15.94,25.56,30.65,40.3,44.67,21.47,20.44,44.63,38.9,63.46,60.8,10.25,11.91,19.09,24.57,26.41,38.33,39.55,74.17,27.22,169.74,54.77,248.61,7.67,21.97,17.63,40.89,29.04,57.87,25.19,37.47,61.01,67.09,99.34,95.69,86.4,64.46,196.05,129.67,304.87,156.4,51.96,12.95,99.23,23.05,147.98,46.87,69.09,33.76,84.46,132.47,146.26,179.89,20.51,15.74,44.94,23.75,67.06,36.28,75.18,42.72,116.3,137.24,111.93,225.75-4.34,88.76-51.62,167.56-103.86,238.8-74.16,101.13-191.38,164.1-297.88,234.14-4.92,3.24-9.82,6.52-14.69,9.84-187.11,127.56-337.82,320.78-386.11,537.95-48.21,219.68,15.29,461.53,180.84,607.31,54.03,47.9,117.85,84.82,176.15,132.92,124.21,102.46,199.2,230.71,261.7,377.92,20.41,47.85,38.71,96.89,58.18,144.7,21.62,52.95,44.48,103.47,58.79,157.65,9.5,35.78,14.75,72.81,17.85,110.11,3.97,47.74,2.42,102.17-1.51,158.31-9.22,125.09-20.24,279.66-30.01,384.79"/><path class="cls-1" d="M65.28,22.93c-22.3,136.29-33.05,292.66,48.81,401.75,12.17,16.23,26.23,31.16,41.18,45.5,21.83,20.96,45.09,40.2,63.52,63.18,10.03,12.5,18.48,25.78,25.37,40.1,37.2,77.15,22.35,175.37,54.6,253.89,9.03,21.99,20.69,40.35,33.92,56.5,29.03,35.44,68.88,61.46,110.11,87.22,92.77,57.96,205.3,121.79,314.15,155.69,52.05,16.41,98.24,32.46,146.91,58.74,61.66,33.29,77.7,121.47,133.32,165.98,18.46,14.77,40.31,22.79,60.11,34.78,67.31,40.93,104.37,127.32,100.95,208.46-3.39,81.44-45.82,153.73-92,220.21-72.42,104.25-193.68,165.19-302.76,234.16-5.04,3.19-10.06,6.42-15.04,9.71-191.47,126.14-341.66,326.34-382.92,547.71-41.16,224.38,35.72,466.63,210.38,606.33,56.91,45.84,123.35,80.4,182.44,129.04,125.96,103.67,189.51,241.25,248.71,392.5,19.31,49.09,37.46,98.92,58.18,146.9,23.04,53.19,48.96,103.02,65.78,157.17,11.16,35.79,17.78,73.07,22.13,110.74,5.64,48.84,5.65,103.88,3.49,160.3-5.31,125.34-9.69,282.63-15.49,390.5"/><path class="cls-1" d="M75.44,26.74c-24.91,138.64-37.33,298.14,46.78,409.39,12.47,16.51,26.9,31.67,42.06,46.32,22.19,21.47,45.56,41.49,63.59,65.56,9.82,13.09,17.87,26.99,24.33,41.88,34.85,80.14,17.5,180.98,54.44,259.17,10.4,22.01,23.74,39.81,38.8,55.12,32.86,33.42,76.74,55.84,120.88,78.75,99.13,51.47,214.54,113.91,323.44,154.99,52.14,19.87,97.29,41.68,145.84,70.6,54.38,32.4,70.95,110.46,120.39,152.06,16.41,13.8,35.68,21.84,53.16,33.29,59.43,39.13,92.43,117.39,89.96,191.17-2.43,74.13-39.81,140.1-80.13,201.61-70.49,107.55-195.97,166.27-307.63,234.18-5.16,3.14-10.29,6.33-15.39,9.58-195.83,124.73-345.51,331.89-379.74,557.46-34.11,229.09,56.15,471.73,239.91,605.34,59.79,43.77,128.86,75.99,188.73,125.17,127.71,104.88,179.82,251.78,235.73,407.07,18.21,50.33,36.21,100.95,58.18,149.09,24.45,53.44,53.44,102.56,72.77,156.69,12.83,35.8,20.83,73.32,26.41,111.37,7.33,49.94,8.89,105.58,8.48,162.29-1.4,125.59,.86,285.59-.96,396.22"/><path class="cls-1" d="M85.59,30.54c-27.53,140.98-41.62,303.62,44.75,417.03,12.78,16.8,27.57,32.18,42.94,47.15,22.55,21.99,46.02,42.79,63.66,67.95,9.6,13.68,17.26,28.2,23.29,43.65,32.51,83.13,12.67,186.59,54.28,264.45,11.77,22.02,26.79,39.28,43.68,53.75,36.68,31.42,84.57,50.31,131.65,70.28,105.39,45.21,223.79,106.03,332.72,154.28,52.23,23.32,96.43,50.65,144.77,82.47,47.29,31.13,64.2,99.46,107.45,138.14,14.35,12.83,31.06,20.89,46.21,31.79,51.56,37.34,80.5,107.46,78.98,173.88-1.48,66.82-33.58,126.62-68.27,183.02-68.31,111.07-198.27,167.36-312.51,234.2-5.28,3.09-10.53,6.24-15.74,9.45-200.19,123.31-349.36,337.44-376.55,567.21-27.06,233.79,76.58,476.83,269.45,604.36,62.66,41.7,134.36,71.57,195.03,121.29,129.46,106.09,170.14,262.32,222.74,421.65,17.11,51.57,34.96,102.98,58.18,151.29,25.86,53.68,57.92,102.11,79.76,156.22,14.49,35.81,23.89,73.57,30.69,112.01,9.04,51.03,12.13,107.29,13.48,164.28,2.5,125.84,11.41,288.56,13.57,401.93"/><path class="cls-1" d="M95.74,34.35c-30.14,143.33-45.9,309.1,42.72,424.68,13.09,17.08,28.23,32.69,43.81,47.98,22.91,22.51,46.48,44.09,63.73,70.33,9.38,14.27,16.65,29.41,22.25,45.42,30.16,86.11,7.85,192.18,54.12,269.74,13.15,22.03,29.83,38.77,48.55,52.38,40.49,29.44,92.45,44.69,142.42,61.81,111.77,38.72,233.03,98.15,342.01,153.58,52.32,26.78,95.76,59.32,143.7,94.34,40.4,29.52,57.45,88.45,94.51,124.23,12.3,11.87,26.43,19.93,39.26,30.3,43.69,35.54,68.57,97.54,68,156.59-.52,59.5-27.13,113.29-56.4,164.43-65.73,114.85-200.56,168.45-317.39,234.22-5.4,3.04-10.77,6.15-16.09,9.32-204.55,121.9-353.21,342.99-373.36,576.96-20.01,238.49,97,481.93,298.98,603.37,65.54,39.64,139.86,67.16,201.32,117.42,131.21,107.31,160.45,272.86,209.76,436.22,16.02,52.81,33.71,105.01,58.17,153.49,27.27,53.93,62.4,101.65,86.74,155.74,16.16,35.82,26.96,73.81,34.98,112.64,10.76,52.12,15.37,109,18.47,166.27,6.41,126.09,21.96,291.53,28.1,407.64"/><path class="cls-1" d="M105.89,38.16c-32.75,145.67-50.19,314.58,40.68,432.32,13.4,17.36,28.9,33.2,44.69,48.81,23.27,23.02,46.95,45.38,63.8,72.72,9.16,14.86,16.04,30.62,21.21,47.2,27.81,89.1,3.04,197.76,53.96,275.02,14.52,22.04,32.87,38.26,53.43,51.01,44.3,27.47,100.32,39.07,153.19,53.34,118.15,32.24,242.28,90.26,351.29,152.87,52.41,30.24,95.43,67.57,142.63,106.21,33.75,27.64,50.69,77.44,81.58,110.31,10.25,10.9,21.8,18.98,32.3,28.81,35.82,33.75,56.63,87.61,57.01,139.3,.44,52.19-20.46,100.07-44.54,145.83-62.57,118.93-202.86,169.53-322.27,234.24-5.52,2.99-11,6.06-16.44,9.19-208.91,120.49-357.06,348.55-370.17,586.72-12.95,243.19,117.43,487.03,328.52,602.39,68.41,37.57,145.37,62.74,207.61,113.54,132.96,108.52,150.76,283.4,196.78,450.79,14.92,54.06,32.46,107.04,58.17,155.69,28.68,54.17,66.88,101.2,93.73,155.26,17.82,35.83,30.04,74.05,39.26,113.27,12.5,53.2,18.61,110.7,23.47,168.26,10.32,126.34,32.51,294.49,42.62,413.35"/><path class="cls-1" d="M116.04,41.97c-35.37,148.02-54.47,320.06,38.65,439.97,13.7,17.65,29.57,33.7,45.57,49.64,23.63,23.54,47.41,46.68,63.86,75.1,8.94,15.44,15.43,31.83,20.16,48.97,25.47,92.08-1.76,203.32,53.8,280.3,15.91,22.04,35.92,37.75,58.31,49.63,48.11,25.52,108.2,33.44,163.96,44.88,124.53,25.76,251.52,82.38,360.58,152.17,52.5,33.7,95.69,75.27,141.56,118.08,27.39,25.56,43.94,66.44,68.64,96.39,8.19,9.93,17.17,18.02,25.35,27.31,27.95,31.95,44.7,77.68,46.03,122.01,1.39,44.87-13.56,86.93-32.67,127.24-58.5,123.39-205.16,170.62-327.14,234.25-5.64,2.94-11.24,5.96-16.79,9.06-213.27,119.07-360.91,354.1-366.99,596.47-5.9,247.9,137.86,492.13,358.05,601.4,71.29,35.51,150.87,58.33,213.9,109.67,134.71,109.73,141.07,293.93,183.79,465.37,13.82,55.3,31.21,109.08,58.17,157.88,30.09,54.41,71.36,100.74,100.72,154.79,19.49,35.84,33.13,74.29,43.54,113.91,14.26,54.28,21.84,112.41,28.46,170.25,14.23,126.59,43.06,297.46,57.15,419.07"/><path class="cls-1" d="M126.19,45.77c-37.98,150.36-58.76,325.54,36.62,447.61,14.01,17.93,30.24,34.21,46.44,50.46,23.99,24.06,47.87,47.98,63.93,77.48,8.73,16.03,14.82,33.04,19.12,50.74,23.12,95.07-6.46,208.81,53.64,285.58,17.31,22.02,38.95,37.29,63.19,48.26,51.9,23.66,116.07,27.82,174.73,36.41,130.91,19.28,260.77,74.5,369.86,151.46,52.59,37.16,96.93,82.24,140.49,129.95,21.36,23.4,37.19,55.43,55.71,82.48,6.14,8.97,12.55,17.07,18.4,25.82,20.08,30.16,32.77,67.76,35.05,104.72,2.35,37.56-6.42,73.81-20.81,108.65-52.99,128.34-207.45,171.7-332.02,234.27-5.76,2.89-11.47,5.87-17.14,8.94-217.64,117.66-364.76,359.65-363.8,606.22,1.15,252.6,158.28,497.23,387.59,600.42,74.17,33.44,156.38,53.91,220.19,105.79,136.46,110.95,131.38,304.47,170.81,479.94,12.73,56.54,29.96,111.11,58.17,160.08,31.5,54.66,75.84,100.29,107.7,154.31,21.15,35.84,36.3,74.5,47.82,114.54,16.13,55.32,25.08,114.11,33.46,172.24,18.14,126.84,53.61,300.43,71.68,424.78"/><path class="cls-1" d="M136.35,49.58c-40.59,152.7-63.05,331.02,34.59,455.25,35.55,45.24,85.1,79.94,111.32,131.16,54.18,105.84-5.32,252.68,71.56,343.38,58.64,69.18,163.26,66.41,253.56,74.82,203.57,18.97,397.07,128.15,518.57,292.58,57.53,77.85,100.23,178.62,69.35,270.36-45.06,133.87-209.75,172.79-336.9,234.29-231.75,112.09-386.3,367.48-378.1,624.78,8.2,257.3,178.71,502.33,417.13,599.43,77.04,31.38,161.88,49.5,226.48,101.92,182.7,148.26,95.03,454.98,215.99,656.79,32.91,54.9,80.32,99.83,114.69,153.83,54.65,85.87,73.16,189.12,90.56,289.4,22.05,127.09,64.16,303.4,86.21,430.49"/></g></g></svg>