<?xml version="1.0" encoding="UTF-8"?><svg id="Layer_2" xmlns="http://www.w3.org/2000/svg" viewBox="0 0 477.79 198.01"><defs><style>.cls-1{fill:#b8c1d2;}</style></defs><g id="Whales"><g><path class="cls-1" d="M0,15.58S-.3,1.14,29.07,.06c14.77-.54,29.7,2.56,43.86,6.51,17.55,4.89,33.65,13.82,50,21.66,7.23,3.46,14.42,7,21.66,10.43,10.78,5.09,21.61,10.09,32.52,14.9,2.38,1.05,5.09,2.24,7.42,3.11-6.48-2.38-12.9-4.9-19.32-7.45-18.06-7.17-35.92-14.75-53.35-23.33-12.94-6.37-25.73-13.4-39.8-16.97-6.92-1.76-14-2.88-21.11-3.49-11.28-.97-23.44-1.06-34.45,1.99-1.12,.31-8.1,2.35-6.63,4.21,.44,.55,2.79,.87,3.45,1.09,4.93,1.65,9.77,3.61,14.46,5.85,8.67,4.14,17.13,9.3,23.84,16.25,3.52,3.64,7.12,7.3,11.35,10.13,4.45,2.97,9.26,3.65,14.08,5.63,6.98,2.87,18.45,11.1,17.37,23.82,.33-3.87-1.91-7.49-3.85-10.59-2.88-4.61-7.64-7.76-12.48-10.02-5.62-2.62-11.65-4.31-17.13-7.2-5.16-2.72-9.73-6.44-14.7-9.49-7.68-4.7-16.37-7.77-25.3-8.93,6.75,4.08,12.79,9.32,17.78,15.43,2.66,3.26,5.03,6.75,7.75,9.95,5.99,7.04,13.63,12.55,21.74,17,8.63,4.74,17.96,7.72,26.77,11.99,2.74,1.33,5.4,2.84,8.03,4.37,5.87,3.4,11.58,7.07,17.11,11,5.63,4,11.12,8.26,16.1,13.05,3.76,3.61,7.71,7.73,9.67,12.65,.03,.08,.06,.15,.09,.23,6.27,16.48,34.93,68.96,55.16,69.85,0,0,6.81-1.97-10.57-29.91s-2.33-60.54-2.33-60.54c0,0-9.31,34.21,10.39,65.19,19.7,30.99,2.69,37.79-17.73,19.7-20.42-18.09-35.28-58.39-35.28-58.39-.17-.47-3.04-1.13-3.47-1.29-4.77-1.73-9.5-3.36-14.41-4.68s-10.28-2.75-14.99-5.22c-7.33-3.85-12.83-10.05-18.37-16.03-6.06-6.55-12.06-13.2-18.88-18.98-2.53-2.14-5.17-4.15-7.96-5.92C47.52,64.9,5.67,41.32,0,15.58Z"/><path class="cls-1" d="M233.97,65.97c1.94,.69,3.8,1.66,5.72,2.41,5.16,2.01,10.43,3.74,15.76,5.23,7.71,2.16,15.56,3.82,23.49,4.94,4.8,.68,9.63,1.16,14.47,1.42s9.34,.14,14.01,.31c8.06,.28,16.09,1.4,23.93,3.3,6.36,1.54,12.6,3.59,18.63,6.13,4.22,1.78,8.36,3.79,12.33,6.09,1.71,.99,3.42,2.02,5.03,3.17,.02,.02,.04,.03,.07,.05,0,0-143.39,51.83-180.5,11.81,0,0-5.11,14.29-2,22.67s-1,0-1,0c2.62,1.12,5.19,2.37,7.73,3.64,5.83,2.92,11.54,6.13,17.01,9.69,3.13,2.04,6.18,4.2,9.09,6.54s5.68,5.25,8.79,7.54c6.38,4.7,14.14,7.48,21.75,9.45,7,1.81,14.25,2.94,21.49,2.99,5.06,.03,11.12-.21,15.5-3.1,.88-.58,1.68-1.3,2.26-2.19,6.81-10.57-11.82-5.19-28.84-24.18,.19,.21,2.16-.28,2.41-.31,2.42-.35,4.82-.8,7.21-1.28,3.99-.81,7.95-1.74,11.9-2.75,5.53-1.43,11.02-3.02,16.47-4.74,7.04-2.22,14.02-4.65,20.93-7.23,8.47-3.17,16.87-6.54,25.14-10.18,3.71-1.63,7.37-3.31,10.98-5.14,1.79-.91,3.63-1.69,5.52-2.36,5.89-2.1,12.16-3.14,18.42-2.97,7.66,.21,15.17,2.29,21.97,5.81,26.33,13.61,44.42,39.22,78.09,16.3,.62-.42-3.9-3.1-4-3.15-4.1-2.06-8.49-3.46-12.88-4.76-2.34-.69-4.69-1.24-6.89-2.31-4.11-2-8.12-4.22-12.04-6.58-6.15-3.71-12.07-7.8-17.61-12.37-3.79-3.13-7.4-6.49-10.7-10.14-16.84-18.63-12.72-8.69-30.81-20.51-18.09-11.82-6.36-13.97-12.9-19.52s-9.85,17.37,4.66,32.51c0,0-21.22-5.46-53.28-4.66s-56.06-.45-87.31-11.55Z"/><path class="cls-1" d="M98.15,63.58s1.19,11.46,16.36,12.78c0,0-2.27-15.28-16.36-12.78Z"/><path class="cls-1" d="M48.63,31.91c6.53-8.7,18.49-11.31,28.77-9.19,10.49,2.02,19.83,7.61,28.59,13.47,8.79,5.89,17.34,12.12,25.96,18.23,42.09,29.26,89.33,62.97,142.68,62.42-52.39,1.71-102.04-32.6-143.16-61.74-8.59-6.16-17.1-12.44-25.85-18.36-8.69-5.88-17.92-11.45-28.32-13.54-10.16-2.26-22.07,.16-28.68,8.72h0Z"/><path class="cls-1" d="M42.02,26.7c13.73-9.98,32.66-10.74,47.94-3.93,5.18,2.15,9.95,5.13,14.67,8.08,9.42,5.97,18.65,12.21,28.08,18.13,46.49,29.9,100.15,52.92,156.43,50.03-56.31,3.7-110.48-19.17-156.88-49.32-9.41-5.98-18.62-12.27-27.99-18.27-4.7-2.97-9.42-5.95-14.54-8.1-15.15-6.77-33.9-6.32-47.71,3.39h0Z"/><path class="cls-1" d="M117.49,97.26c13.32,2.53,26.74-.8,26.08-16.87-.11-4.17-1.01-8.31-2.32-12.27,1.71,3.84,2.81,7.99,3.09,12.23,1.11,16.6-13.2,20.81-26.85,16.9h0Z"/><path class="cls-1" d="M155.34,124.24c12.79,3.19,20.28,15.95,24.42,27.58,2.02,6.06,3.75,12.15,6,18.11,1.08,2.99,2.3,5.92,3.64,8.8,1.39,2.81,2.71,5.85,5.09,7.96-2.47-2.03-3.92-5.04-5.42-7.8-1.42-2.85-2.71-5.78-3.85-8.75-4.68-11.72-6.87-24.72-14.85-34.85-3.87-4.91-8.86-9.42-15.04-11.04h0Z"/><path class="cls-1" d="M156.66,111.09c14.03,6.16,21.81,21.13,25.43,35.34,2.77,10.83,6.5,21.48,11.72,31.38,1.76,3.29,3.64,6.53,5.95,9.48-9.33-11.78-14.53-26.3-18.4-40.67-1.12-4.21-2.69-9.25-4.56-13.17-4.25-9.15-10.8-17.98-20.15-22.35h0Z"/></g></g></svg>