<?xml version="1.0" encoding="UTF-8"?><svg id="Layer_2" xmlns="http://www.w3.org/2000/svg" viewBox="0 0 168.54 68.1"><defs><style>.cls-1{fill:#b8c1d2;}</style></defs><g id="Whales"><g><path class="cls-1" d="M69.12,39.41c-10.62-.94-22.03-1.23-31.87,3.43-1.44,.61-2.68,1.52-4,2.36,1.19-1,2.38-2.04,3.77-2.79,9.61-5.41,21.58-5.22,32.1-3h0Z"/><g><path class="cls-1" d="M23.88,44.65S-.62,55.84,.01,67.75c2.9,2.83,12.67-12.4,26.55-14.46s20.24,.85,23.6-.76-7.25-7.66-16.88-7.39c0,0-3,4.52-5.82,5.73s-2.73-3.09-2.73-3.09c0,0-7.17,6.37-11.51,6.22s10.66-9.36,10.66-9.36Z"/><path class="cls-1" d="M61.59,35.17c-2.51-1.02-2.02-2.36-1.96-2.7,.16-1.01,1.3-1.75,2.14-2.18,1.21-.62,2.6-.92,3.95-.86,1.17,.05,2.39,.45,3.46,.92s2.1,1.19,2.64,2.26c.03,.07,.07,.14,.1,.21,1.31,3.08-1.47,6.51-3.9,8.07-3.02,1.94-5.82,4.22-8.1,7.02-2.11,2.58-3.95,5.88-3.43,9.33,.19,1.27,.71,2.46,1.43,3.53,.08,.12,3.72-1.94,4.3-2.26,1.22-.68,2.42-1.38,3.61-2.1,2.83-1.71,5.56-3.56,8.2-5.55s4.97-3.97,7.14-6.29c1.36-1.45,2.61-2.97,3.71-4.63-5.54,4.39-11.09,8.76-17.06,12.56-.67,.42-1.41,.86-2.19,.76-.79-.1-1.41-.76-1.63-1.5-.27-.88,.1-1.85,.47-2.65,.68-1.45,1.63-2.75,2.68-3.94s2.27-2.17,3.26-3.37c1.47-1.79,2.7-3.93,2.84-6.29,.03-.45,.01-.89-.05-1.33-.75-5.58-10.9-7.43-13.6-2.6-1.51,2.69,1.99,3.62,1.99,3.62Z"/><path class="cls-1" d="M26.11,29.59s-4.2,13.54-1.38,18.2"/><path class="cls-1" d="M95.65,1.26C52.79-4.23,42.04,9.98,42.04,9.98c0,0-8-6.81-16.24-2.51,.5-.26,1.98,.61,2.36,.85,1.73,1.09,2.57,3,2.75,4.99,.27,2.96-.53,5.92-1.61,8.65-.52,1.32-1.08,2.69-1.75,3.94-.69,1.29-1.46,3.16-1.61,4.67-.54,5.35,5.7,6.13,9.78,5.87,2.32-.15,4.65-.43,6.86-1.17,4.02-1.35,7.43-3.83,10.66-6.51,2.18-1.8,4.36-3.06,7.18-3.5,2.59-.4,5.27-.3,7.84,.16,.37,.07,.73,.14,1.09,.22,1.81,.42,3.6,1.01,5.24,1.88,.97,.51,1.85,1.06,1.48,.67-.47-.49-1.06-.87-1.59-1.29-1.09-.86-2.4-1.42-3.67-1.96-6.04-2.58-13.07-1.92-18.47,1.8-1.25,.86-2.44,1.8-3.74,2.59-3.33,2.04-8.23,5.09-12.29,2.89-1.95-1.06-2.35-3.44-2-5.46,1.02-5.98,6.62-9.64,12.37-9.91,3.54-.17,7.08,.23,10.57,.82,3.38,.57,6.71,1.32,9.95,2.45,1.67,.58,3.32,1.25,4.92,1.99,3.99,1.86,7.66,4.32,11.6,6.25,1.75,.86,3.58,1.69,5.49,2.13,2.05,.47,4.18,.61,6.28,.41-.28,.03-.79,.57-1,.76-.33,.28-.65,.58-.96,.88-1.37,1.35-2.64,2.73-4.2,3.86-.83,.6-4.17,3.39-5,3.96-.08,.06,.48,.18,.52,.19,1.17,.21,2.35,.37,3.52,.58,1.2,.22,2.4,.39,3.61,.51,2.39,.25,4.8,.23,7.15-.28,.08-.02,.17-.05,.25-.05,.71-.16,1.4-.36,2.08-.61,5.77-2.06,9.35-7.56,14.68-10.38,1.65-.88,3.36-1.35,5.1-1.57,3.5-.45,7.13,.13,10.71,.52,3.12,.34,6.24,.74,9.35,1.21,2.71,.41,5.4,1,8.03,1.78,.79,.24,1.62,.48,2.44,.76-4.06-5.1-9.46-9.1-15.46-11.67-11.18-4.85-23.83-5.71-35.92-4.81-4.03,.22-8.2,1.13-12.25,1.16-8.46,.3-16.87-4.25-18.55-13.04,1.83,8.65,10.2,13.01,18.54,12.53,4.04-.12,8.17-1.11,12.19-1.41,12.29-1.16,24.99-.56,36.57,4.18,7.65,3.1,14.42,8.39,18.94,15.33,.12,.12,.24,.22,.35,.35,3.37,4.3-14.88-2.6-31.72,1.11,3.02-.47,12.21-1,37.81,2.11,23.52-1.19-23.76-32.12-66.63-37.61Zm12.61,32.69c-2.26,.88-5.83,1.11-6.96-1.52,1.34,1.82,3.81,1.77,5.83,1.48,.71-.11,1.41-.27,2.14-.4-.33,.16-.67,.3-1.01,.45Zm-8.19-6.94c3.84-3.62,9.76-1.72,13,1.77-3.08-2.47-7.61-4.16-11.17-2.19,1.35-.18,2.72-.14,4.04,.23,1.88,.48,3.48,1.77,4.44,3.42-.62-.7-1.24-1.41-2.05-1.87-2.91-1.91-6.67-1.32-9.75-.16,0,0,1.49-1.2,1.49-1.2Z"/></g></g></g></svg>