<?xml version="1.0" encoding="UTF-8"?><svg id="Layer_2" xmlns="http://www.w3.org/2000/svg" viewBox="0 0 219.04 123.77"><defs><style>.cls-1{fill:#b8c1d2;}</style></defs><g id="Whales"><g><path class="cls-1" d="M130.87,55.65c-10.66,3.15-22.24,2.6-33,4.82-7.89,1.67-15.69,5.72-20.68,12.17-1.52,2.22-2.59,4.87-2.93,7.63-.06-1.4,.15-2.82,.53-4.18,1.87-7.07,8.31-11.7,14.53-14.89,7.76-3.68,16.5-3.92,24.9-4.33,4.17-.22,8.35-.44,12.51-.75,1.15-.13,3.03-.11,4.14-.48h0Z"/><path class="cls-1" d="M35.58,89.92c-1.45-10.98,9.24-18.29,18.61-20.85,.58-.15,1.33-.43,1.93-.49,1.66-.37,4.07,.4,3.82,2.57-.45,2.36-2.66,3.07-4.2,4.48-2.78,2.19-4.98,5.12-5.69,8.63-.5,2.28-.44,4.69,.08,7,0,0-.31-.51-.31-.51,7.31,5.53,28.59-3.48,36.62-6.68-8.36,4.41-29.44,14.58-37.88,8.13,0,0-.23-.2-.23-.2l-.07-.32c-1.24-5.1-.22-10.94,3.42-14.88,1.33-1.47,2.78-2.7,4.38-3.84,.81-.57,1.84-1.18,2.04-2.06,.01-.26-.09-.36-.34-.49-.83-.33-2.2,.06-3.09,.31-9.15,2.23-19.53,8.64-19.09,19.19h0Z"/><path class="cls-1" d="M172.3,36.42s0-6.03,5.97-5.79c0,0,.54,6.27-5.97,5.79Z"/><path class="cls-1" d="M150.99,51.69c3.83-1.25,8.96-1.22,11.6,2.3,2.4,3.33,2.86,8.71-.56,11.49,1.48-1.46,2.17-3.54,2.09-5.55-.41-7.57-6.47-9.8-13.14-8.24h0Z"/><path class="cls-1" d="M153.25,53.3c4.34-.42,8.12,2.28,8.38,6.77,.02,.57,0,1.14-.03,1.7-.11-.81-.18-1.69-.4-2.49-.75-3.7-4.37-5.83-7.96-5.99h0Z"/><path class="cls-1" d="M202.24,30.13c-11.01,26.42-29.42,51.92-55.6,64.8-3.76,1.77-7.67,3.2-11.65,4.34,31.83-10.74,53.4-39.8,67.25-69.13h0Z"/><path class="cls-1" d="M196.51,38.18c-10.18,19.62-25.17,38.21-45.09,48.49-2.89,1.39-5.86,2.6-8.91,3.54,23.83-9.23,41.22-30.64,54-52.03h0Z"/><path class="cls-1" d="M188.54,46.69c-8.74,14.24-21.11,27.58-36.81,34.03,1.84-1.05,3.77-1.92,5.51-3.12,12.52-7.83,22.61-19.07,31.29-30.91h0Z"/><path class="cls-1" d="M165.07,49.56c7.74-2.5,13.82-8.95,15.93-16.79-.25,.98-.44,1.98-.77,2.94-2.23,6.8-8.2,12.23-15.16,13.84h0Z"/><path class="cls-1" d="M183.62,41.17c3.53-1.16,6.12-4.18,7.43-7.57,1.14-2.97,1.7-6.33,3.53-9.03,.27-.36,.57-.8,1.04-.89-.45,.14-.69,.59-.93,.96-1.58,2.87-2.05,6.08-3.17,9.15-1.36,3.43-4.17,6.6-7.89,7.38h0Z"/><circle class="cls-1" cx="196.4" cy="19.49" r="1.19"/><circle class="cls-1" cx="202.15" cy="14.23" r="1.07"/><circle class="cls-1" cx="197.94" cy="14.23" r="1.07"/><circle class="cls-1" cx="198.51" cy="10.53" r=".81"/><circle class="cls-1" cx="206.34" cy="10.19" r=".81"/><circle class="cls-1" cx="202.3" cy="6.75" r=".81"/><path class="cls-1" d="M44,98.67c17.47,7.86,38.17,5.75,55.1-2.55,5.71-2.73,11.13-6.1,16.27-9.85-4.93,4.04-10.22,7.66-15.93,10.54-16.87,8.72-38.26,10.83-55.44,1.86h0Z"/><path class="cls-1" d="M48.17,101.97c15.1,5.9,32.83,9.77,48.29,3.13,5.03-2.24,9.41-5.8,12.92-10.1-.86,1.09-1.61,2.27-2.6,3.26-.75,.92-2.07,2.14-2.97,2.95-15.61,13.06-38.65,8.86-55.64,.77h0Z"/><path class="cls-1" d="M152.96,46.69c13.38-.1,29.94-5.85,29.12-21.85,0,0,.38-.03,.38-.03,.86,12.26-3.85,25.36-14.15,32.55,0,0-.21-.37-.21-.37,3.79-1.8,7.25-4.36,10.12-7.44,4.32-4.62,6.95-10.84,6.79-17.2-.14-5.21,.02-10.92,3.07-15.36,.63-.85,1.41-1.63,2.37-2.07-.96,.46-1.72,1.25-2.33,2.1-1.82,2.63-2.48,5.85-2.76,8.99-.42,4.22,.39,8.54-.79,12.68-2.07,8.38-8.69,14.98-16.3,18.7,0,0-.21-.37-.21-.37,10.09-7.17,14.81-20.07,14.03-32.16,0,0,.38-.03,.38-.03,.68,16.26-15.86,21.97-29.5,21.86h0Z"/><path class="cls-1" d="M217.7,7.73c-.72-1.88-1.79-3.66-3.28-5.04-1.69-1.56-3.84-2.45-6.13-2.65-2.61-.22-5.21,.37-7.64,1.29-4.25,1.6-8.15,4.2-11.87,6.79-2.54,1.77-5.02,3.62-7.48,5.51-2.67,2.06-5.3,4.16-7.91,6.3-2.66,2.18-5.29,4.39-7.91,6.62-2.5,2.14-4.99,4.3-7.46,6.47-2.2,1.94-4.39,3.89-6.57,5.85-1.75,1.58-3.5,3.17-5.24,4.76-1.16,1.06-2.32,2.13-3.47,3.2-.42,.39-.84,.78-1.26,1.17,0,0,51.66-42.78,62.72-46,1.28-.37,2.63-.55,3.95-.33,2.42,.4,4.24,2.13,5.45,4.18,1.76,2.99,4.61,7.01,2.77,10.26-1.37,2.42-3.43,4.14-5.47,5.98-1.76,1.59-3.02,3.3-4.25,5.3-1.38,2.22-2.28,4.82-3.21,7.26-1.88,4.95-2.7,10.07-5.3,14.73-5.45,9.75-12.28,18.65-20.31,26.42-7.45,7.22-15.83,13.46-24.78,18.7-6.47,3.78-13.24,7.07-20.23,9.75-2.01,.77-4.05,1.5-6.11,2.14-.25,.08-2.1,.41-2.21,.65,14.6-34.3,17.55-33.94,27.76-34.03,2.73-.02,5.78-.64,6.82-3.53,.41-1.15,.37-2.52-.36-3.5-.68-.92-1.78-1.34-2.8-1.77-1.24-.52-2.5-.98-3.79-1.38-4.56-1.39-9.23-1.86-13.93-.87-3.46,.73-6.83,1.88-10.26,2.74-5.36,1.35-10.83,2.2-16.34,2.66-26.96,2.24-36.36,12.9-36.36,12.9,7.88,1.61,21.31,.99,34.13-5.01,12.82-6,25.87-8.51,25.87-8.51-2.23,1.39-4.11,3.35-5.86,5.29-3.22,3.58-6.08,7.47-8.83,11.42-.88,1.29-1.75,2.58-2.6,3.89-2.57,3.97-4.91,8.13-7.72,11.94-2.5,3.39-5.62,6.15-9.07,8.54-3.5,2.44-7.36,4.36-11.51,5.4-4.6,1.15-9.4,1.3-14.08,.64-4.43-.62-8.74-1.92-12.86-3.66-3.69-1.48-7.25-3.42-10.59-5.56-2.84-1.81-5.56-3.82-8.13-6.01-1.21-1.03-2.33-2.35-3.66-3.21-1.34-.87-2.85-1.46-4.44-1.67-4.73-.61-8.87,2.39-12.05,5.56C7.19,116.72,0,117.19,0,117.19c1.11-.08,2.92,.95,4.1,1.14,1.3,.21,2.61,.28,3.93,.21,.9-.05,1.79-.15,2.68-.3,3.85-.66,7.48-2.31,10.65-4.57,1.6-1.15,2.98-2.51,4.43-3.82,2.42-2.19,5.63-3.26,8.86-3.37,1.49-.05,3.11,.04,4.56,.42,2.4,.63,4.72,1.53,6.86,2.79,3.57,2.1,6.78,4.74,10.31,6.89,6.92,4.22,15.5,5.43,23.42,6.39,18.38,2.21,37.14-.05,54.16-7.53,10.91-4.79,21.12-11.15,30.49-18.49,.66-.52,11.94-9.65,11.56-10.13,0,0,6.93,8.84,13.73,19.94,6.81,11.1,7.28,8.48,7.28,8.48,6.21-16.96-11.58-38.57-11.58-38.57,5.64-6.49,10.07-13.88,13.49-21.76,2.69-6.2,4.67-12.66,7.11-18.95,.8-2.07,1.67-4.11,2.72-6.07,1.64-3.07,4.12-5.54,6.28-8.23,1.62-2.03,3.1-4.28,3.78-6.81s-.21-4.76-1.1-7.11Z"/></g></g></svg>