<?xml version="1.0" encoding="UTF-8"?><svg id="Layer_2" xmlns="http://www.w3.org/2000/svg" viewBox="0 0 2484.36 4974.44"><defs><style>.cls-1{fill:none;stroke:#8fd4d7;stroke-miterlimit:10;stroke-width:3px;}.cls-2{opacity:.14;}</style></defs><g id="Whales"><g class="cls-2"><path class="cls-1" d="M702.27,4434.76c-51.06-127.51,8.51-288.97,130.15-352.76,78.67-41.26,171.14-42.88,259.55-51.53,195.45-19.12,400.39-86.5,516.63-244.79,36.45-49.63,63.45-107.21,109.41-148.18,97.76-87.13,270.07-91.04,320.98-211.69,26.92-63.8,6.9-136.47,7.26-205.72,.6-116.78,59.59-223.88,102.26-332.59s67.91-238.3,6.05-337.35c-64.02-102.5-197.08-134.83-317.39-146.16-120.31-11.33-249.47-13.21-348.23-82.85-87.67-61.82-135.03-167.86-152.88-273.64-17.85-105.78-10.19-213.93-10.19-321.2,0-212.8-154.98-465.05-214.94-669.23-43.7-148.82,20.06-255.96-78.47-375.75-147.11-178.85-364.83-282.6-579.34-369.86-115.9-47.14-349.31,25.36-452.29-45.7"/><path class="cls-1" d="M10.43,245.33c95.55,68.07,323.48,8.77,445.15,60.52,213.43,90.79,432.65,197.01,575.21,371.06,96.37,117.75,26.39,234.52,68.29,381.57,2.8,9.98,5.93,19.97,9.4,29.96,41.88,120.88,128.92,242.79,175.76,375.91,30.43,86.46,49.88,172.53,49.41,253.6-.38,70.68-3.79,141.73-.28,212.11,1.9,38.05,5.87,75.85,13.14,113.19,20.73,106.45,72.04,211.55,162.01,272.33,19.87,13.43,40.89,24.28,62.77,33.07,89.68,36.01,193.71,37.77,291.09,49.36,12.5,1.49,25.1,3.27,37.72,5.38,109.66,18.3,218.23,61.32,271.95,156.05,57.82,101.29,32.28,230.71-8.52,340.84-31.3,84.32-70.97,168.27-84.48,254.87-4.09,26.11-5.84,52.4-4.7,79.17,1.19,27.23,5.34,54.96,8.21,82.68,4.37,42.11,5.68,83.91-9.43,122.79-33.87,86.91-128.14,118.92-213.88,162.37-34.18,17.39-67.08,36.78-94.95,61.83-8.02,7.2-15.54,14.82-22.73,22.73-34.04,37.45-59.82,81.27-91.91,119.73-126.11,151.17-336.19,223.31-528.27,255.51-84.94,14.24-173.03,20.65-248.27,64.6-116.39,68.11-175.59,226.18-136.53,349.62"/><path class="cls-1" d="M20.02,224.91c88.13,65.08,310.6,18.89,438.01,75.35,212.42,94.11,433.07,203.02,571.08,372.27,94.22,115.71,18.54,241.96,58.12,387.38,2.78,10.2,5.92,20.34,9.59,30.35,44.07,120.82,150.52,228.96,197.37,361.81,30.78,87.24,48.18,174.65,47.25,257.55-.76,71.71-4.34,143.81,.06,215.08,2.38,38.55,7.19,76.76,15.48,114.33,23.62,107.11,78.87,211.29,171.14,271.01,20.35,13.19,41.84,23.83,64.16,32.38,91.62,35.05,197.27,35.55,295.33,49.63,12.61,1.82,25.28,3.97,37.94,6.54,109.82,22.08,213.74,72.77,264,170.16,53.5,103.67,27.93,232.78-10.99,344.34-29.82,85.14-66.75,170.48-75.61,256.96-2.7,26.05-2.92,52.07-.5,78.54,2.52,26.96,7.75,54.39,11.42,82.02,5.6,42,7.38,83.91-6.6,123.19-31.33,87.51-121.33,124.97-203.88,171.85-32.97,18.86-64.89,39.58-92.8,64.86-8.02,7.26-15.63,14.86-23,22.65-34.87,36.9-62.86,78.13-96.87,114.1-136.23,144.05-350.93,220.62-539.92,266.23-81.37,19.64-165.19,31.04-236.98,77.67-111.15,72.43-169.97,227.11-142.92,346.48"/><path class="cls-1" d="M29.6,204.49c80.7,62.08,297.73,28.94,430.88,90.17,211.47,97.25,433.49,209.03,566.95,373.48,92.06,113.68,10.33,249.5,47.94,393.2,2.73,10.42,5.91,20.71,9.77,30.75,46.25,120.76,172.12,215.12,218.98,347.7,31.13,88.02,46.49,176.78,45.08,261.5-1.13,72.75-4.9,145.89,.39,218.04,2.87,39.05,8.52,77.66,17.82,115.46,26.51,107.78,85.7,211.03,180.27,269.7,20.84,12.94,42.79,23.37,65.56,31.68,93.55,34.08,200.83,33.34,299.56,49.9,12.72,2.15,25.47,4.68,38.17,7.69,109.98,25.87,209.4,84.12,256.05,184.26,49.35,105.94,23.59,234.85-13.47,347.83-28.35,85.96-62.52,172.69-66.74,259.05-1.31,25.99,0,51.75,3.7,77.91,3.85,26.7,10.15,53.81,14.63,81.35,6.83,41.9,9.08,83.91-3.77,123.6-28.79,88.12-114.63,130.85-193.89,181.33-31.8,20.25-62.7,42.37-90.64,67.88-8.02,7.32-15.72,14.89-23.26,22.57-35.7,36.35-65.97,74.97-101.83,108.46-146.6,136.87-365.46,217.53-551.56,276.95-77.75,24.82-157.34,41.42-225.69,90.75-105.9,76.75-164.36,228.03-149.3,343.33"/><path class="cls-1" d="M39.18,184.07c73.27,59.09,284.9,38.91,423.74,105,210.58,100.24,433.91,215.04,562.82,374.69,89.9,111.64,2.08,257.06,37.77,399.01,2.68,10.65,5.9,21.08,9.96,31.14,48.44,120.7,193.73,201.29,240.59,333.6,31.48,88.8,44.79,178.9,42.92,265.44-1.51,73.78-5.46,147.96,.72,221.01,3.35,39.55,9.85,78.56,20.16,116.59,29.39,108.44,92.53,210.76,189.41,268.38,21.32,12.7,43.73,22.92,66.95,30.99,95.49,33.11,204.39,31.12,303.8,50.17,12.82,2.47,25.65,5.39,38.39,8.85,110.15,29.66,205.08,95.46,248.1,198.37,45.23,108.2,19.25,236.92-15.94,351.32-26.87,86.77-58.3,174.9-57.86,261.14,.08,25.93,2.92,51.42,7.9,77.28,5.18,26.43,12.56,53.24,17.83,80.69,8.05,41.79,10.78,83.91-.94,124.01-26.25,88.73-107.86,136.87-183.89,190.81-30.6,21.7-60.5,45.16-88.48,70.91-8.02,7.38-15.81,14.92-23.53,22.48-36.53,35.81-69.14,71.78-106.8,102.82-157.21,129.58-379.89,213.98-563.2,287.66-74.1,29.78-149.49,51.81-214.4,103.82-100.65,81.07-158.74,228.96-155.68,340.19"/><path class="cls-1" d="M48.76,163.65c65.85,56.1,272.1,48.81,416.61,119.83,209.76,103.09,434.33,221.05,558.69,375.89,87.75,109.6-6.22,264.64,27.59,404.83,2.62,10.88,5.89,21.44,10.15,31.53,50.62,120.64,215.33,187.45,262.2,319.5,31.83,89.58,43.09,181.03,40.75,269.39-1.89,74.82-6.02,150.04,1.06,223.97,3.84,40.05,11.18,79.46,22.5,117.73,32.28,109.11,99.36,210.5,198.54,267.07,21.81,12.46,44.68,22.47,68.34,30.29,97.42,32.14,207.95,28.9,308.04,50.43,12.93,2.8,25.83,6.1,38.61,10,110.31,33.44,200.78,106.78,240.15,212.48,41.13,110.44,14.9,238.99-18.41,354.81-25.39,87.59-54.08,177.1-48.99,263.23,1.48,25.87,5.84,51.09,12.1,76.65,6.51,26.16,14.97,52.66,21.04,80.03,9.28,41.68,12.48,83.91,1.89,124.41-23.71,89.34-101.08,142.91-173.9,200.29-29.39,23.16-58.31,47.95-86.33,73.94-8.02,7.44-15.9,14.95-23.79,22.4-37.37,35.26-72.36,68.55-111.76,97.19-168.03,122.14-394.34,209.96-574.85,298.38-70.47,34.52-141.64,62.2-203.11,116.9-95.41,85.39-153.12,229.88-162.06,337.04"/><path class="cls-1" d="M58.34,143.23c58.42,53.1,259.33,58.62,409.47,134.65,208.98,105.82,434.75,227.05,554.57,377.1,85.59,107.57-14.57,272.22,17.42,410.64,2.57,11.11,5.88,21.81,10.34,31.93,52.81,120.58,236.93,173.62,283.81,305.39,32.18,90.36,41.4,183.16,38.58,273.33-2.27,75.85-6.57,152.12,1.39,226.94,4.33,40.55,12.51,80.37,24.84,118.86,35.16,109.77,106.19,210.23,207.67,265.75,22.29,12.22,45.63,22.02,69.74,29.6,99.35,31.18,211.51,26.69,312.28,50.7,13.04,3.13,26.01,6.81,38.84,11.16,110.47,37.23,196.51,118.09,232.2,226.59,37.05,112.67,10.56,241.06-20.88,358.31-23.91,88.41-49.86,179.31-40.11,265.31,2.87,25.8,8.76,50.76,16.31,76.01,7.84,25.89,17.38,52.09,24.25,79.37,10.51,41.57,14.19,83.91,4.72,124.82-21.17,89.94-94.29,148.96-163.9,209.76-28.19,24.62-56.12,50.74-84.17,76.97-8.02,7.49-15.99,14.98-24.06,22.31-38.2,34.72-75.63,65.27-116.72,91.55-179.03,114.5-408.93,205.44-586.49,309.1-66.91,39.06-133.79,72.58-191.83,129.97-90.16,89.71-147.51,230.81-168.44,333.9"/><path class="cls-1" d="M67.93,122.81c50.99,50.11,246.61,68.37,402.34,149.48,208.26,108.46,435.17,233.06,550.44,378.31,83.43,105.53-22.96,279.82,7.25,416.46,2.51,11.34,5.87,22.18,10.52,32.32,54.99,120.52,258.53,159.78,305.41,291.29,32.53,91.14,39.7,185.28,36.42,277.28-2.65,76.89-7.13,154.2,1.72,229.9,4.81,41.05,13.84,81.27,27.17,119.99,38.05,110.44,113.02,209.97,216.8,264.43,22.77,11.97,46.57,21.56,71.13,28.9,101.29,30.21,215.07,24.47,316.52,50.97,13.15,3.45,26.19,7.51,39.06,12.32,110.63,41.01,192.27,129.39,224.25,240.7s6.22,243.13-23.35,361.8c-22.44,89.22-45.64,181.52-31.24,267.4,4.26,25.74,11.68,50.44,20.51,75.38,9.17,25.63,19.79,51.52,27.46,78.7,11.74,41.47,15.89,83.91,7.55,125.23-18.63,90.55-87.49,155.02-153.9,219.24-26.98,26.09-53.93,53.54-82.01,80-8.02,7.55-16.08,15.01-24.32,22.23-39.03,34.17-78.92,61.94-121.68,85.92-190.17,106.64-423.76,200.47-598.14,319.82-63.44,43.42-125.95,82.97-180.54,143.05-84.92,94.03-141.89,231.74-174.83,330.76"/><path class="cls-1" d="M77.51,102.39c43.57,47.12,233.92,78.05,395.2,164.3,207.58,111.02,435.59,239.07,546.31,379.52,81.28,103.49-31.4,287.43-2.93,422.27,2.44,11.57,5.86,22.55,10.71,32.71,57.18,120.46,280.13,145.95,327.02,277.19,32.88,91.92,38,187.41,34.25,281.22-3.03,77.93-7.69,156.28,2.06,232.87,5.3,41.55,15.16,82.17,29.51,121.13,40.93,111.1,119.85,209.7,225.94,263.12,23.26,11.73,47.52,21.11,72.52,28.21,103.22,29.24,218.63,22.26,320.75,51.24,13.26,3.78,26.38,8.22,39.29,13.47,110.8,44.8,188.05,140.68,216.3,254.81,28.99,117.1,1.87,245.2-25.82,365.29-20.96,90.04-41.42,183.73-22.36,269.49,5.65,25.68,14.6,50.11,24.71,74.75,10.5,25.36,22.2,50.94,30.67,78.04,12.97,41.36,17.59,83.91,10.38,125.64-16.09,91.16-80.69,161.09-143.91,228.72-25.76,27.56-51.73,56.33-79.86,83.02-8.02,7.61-16.17,15.05-24.59,22.15-39.87,33.62-82.24,58.56-126.65,80.28-201.4,98.55-438.95,195.1-609.78,330.53-60.09,47.64-118.1,93.35-169.25,156.12-79.67,98.35-136.27,232.66-181.21,327.61"/><path class="cls-1" d="M87.09,81.97c36.14,44.12,221.27,87.65,388.06,179.13,206.95,113.5,436.01,245.08,542.18,380.72,79.12,101.46-39.88,295.05-13.1,428.09,2.38,11.8,5.85,22.91,10.9,33.11,59.37,120.4,301.73,132.11,348.63,263.09,33.23,92.7,36.3,189.53,32.09,285.17-3.4,78.96-8.25,158.35,2.39,235.84,5.78,42.05,16.49,83.07,31.85,122.26,43.82,111.77,126.68,209.44,235.07,261.8,23.74,11.49,48.47,20.66,73.92,27.51,105.16,28.27,222.19,20.04,324.99,51.51,13.37,4.11,26.56,8.93,39.51,14.63,110.96,48.58,183.85,151.97,208.34,268.92,24.99,119.31-2.47,247.27-28.29,368.79-19.48,90.86-37.2,185.94-13.49,271.58,7.04,25.62,17.52,49.78,28.91,74.12,11.83,25.09,24.6,50.37,33.88,77.38,14.19,41.25,19.29,83.91,13.21,126.04-13.55,91.77-73.87,167.17-133.91,238.2-24.54,29.04-49.54,59.12-77.7,86.05-8.02,7.67-16.26,15.08-24.86,22.06-40.7,33.08-85.57,55.12-131.61,74.65-212.7,90.2-454.56,189.4-621.42,341.25-56.89,51.77-110.25,103.74-157.96,169.2-74.42,102.67-130.66,233.59-187.59,324.47"/><path class="cls-1" d="M96.67,61.55c28.71,41.13,208.67,97.19,380.93,193.95,206.36,115.92,436.43,251.09,538.05,381.93,76.96,99.42-48.4,302.67-23.28,433.9,2.3,12.04,5.84,23.28,11.09,33.5,61.55,120.34,323.33,118.28,370.24,248.98,33.57,93.48,34.61,191.66,29.92,289.12-3.78,80-8.8,160.43,2.72,238.8,6.27,42.55,17.82,83.98,34.19,123.39,46.7,112.43,133.51,209.17,244.2,260.49,24.23,11.24,49.42,20.21,75.31,26.82,107.09,27.31,225.76,17.83,329.23,51.78,13.47,4.43,26.74,9.64,39.73,15.79,111.12,52.37,179.68,163.26,200.39,283.03,21.02,121.53-6.81,249.34-30.77,372.28-18,91.67-32.98,188.15-4.61,273.67,8.44,25.56,20.44,49.45,33.11,73.49,13.16,24.82,27.01,49.8,37.09,76.72,15.42,41.14,20.99,83.91,16.04,126.45-11.01,92.37-67.04,173.25-123.92,247.68-23.32,30.51-47.35,61.91-75.54,89.08-8.02,7.73-16.35,15.11-25.12,21.98-41.53,32.53-88.9,51.64-136.57,69.01-224.02,81.62-470.64,183.45-633.07,351.97-53.82,55.84-102.4,114.13-146.67,182.27-69.18,106.99-125.04,234.51-193.97,321.33"/><path class="cls-1" d="M106.25,41.13c21.29,38.14,196.11,106.66,373.79,208.78,205.81,118.29,436.85,257.1,533.92,383.14,74.81,97.38-56.95,310.29-33.45,439.72,2.23,12.27,5.83,23.65,11.28,33.9,63.74,120.28,344.93,104.44,391.85,234.88,33.92,94.26,32.91,193.78,27.76,293.06-4.16,81.03-9.36,162.51,3.06,241.77,6.75,43.05,19.15,84.88,36.53,124.53,49.59,113.1,140.34,208.91,253.33,259.17,24.71,11,50.36,19.75,76.7,26.12,109.03,26.34,229.32,15.61,333.47,52.05,13.58,4.76,26.92,10.35,39.96,16.94,111.28,56.16,175.53,174.56,192.44,297.13,17.07,123.74-11.16,251.41-33.24,375.77-16.53,92.49-28.76,190.36,4.26,275.75,9.83,25.5,23.36,49.13,37.31,72.86,14.49,24.56,29.42,49.22,40.3,76.06,16.65,41.04,22.7,83.91,18.87,126.86-8.47,92.98-60.07,179.42-113.92,257.16-22.04,32.03-45.15,64.7-73.39,92.11-8.02,7.78-16.44,15.14-25.39,21.9-42.36,31.99-92.23,48.12-141.53,63.38-235.32,72.81-487.19,177.35-644.71,362.69-50.9,59.88-94.55,124.51-135.39,195.35-63.93,111.31-119.42,235.44-200.35,318.18"/><path class="cls-1" d="M115.83,20.71c13.86,35.15,183.59,116.07,366.66,223.61,205.31,120.6,437.27,263.1,529.79,384.35,72.65,95.35-65.78,317.96-43.63,445.53,2.12,12.51,5.82,24.01,11.46,34.29,65.92,120.22,366.53,90.61,413.46,220.78,34.27,95.04,31.21,195.91,25.59,297.01-4.54,82.07-9.92,164.59,3.39,244.73,7.24,43.55,20.48,85.78,38.87,125.66,52.47,113.77,147.17,208.64,262.47,257.86,25.19,10.76,51.31,19.3,78.09,25.43,110.96,25.37,232.88,13.4,337.71,52.32,13.69,5.09,27.11,11.06,40.18,18.1,111.44,59.94,171.55,185.84,184.49,311.24,13.28,125.94-15.5,253.48-35.71,379.26-15.05,93.31-24.54,192.56,13.13,277.84,11.22,25.43,26.28,48.8,41.51,72.23,15.83,24.29,31.83,48.65,43.5,75.39,17.88,40.93,24.4,83.91,21.7,127.27-5.92,93.59-53.27,185.47-103.93,266.64-20.83,33.49-42.96,67.5-71.23,95.14-8.02,7.84-16.53,15.17-25.65,21.81-43.2,31.44-95.54,44.56-146.49,57.74-246.59,63.79-504.2,171.17-656.36,373.4-48.1,63.94-86.71,134.9-124.1,208.42-58.69,115.63-113.8,236.37-206.74,315.04"/><path class="cls-1" d="M125.42,.29c13.43,67.11,716.31,400.45,885.18,623.99,77.63,102.76-105.66,373.99-42.15,486.03,68.11,120.16,388.13,76.77,435.07,206.68,62.58,173.19-4.64,367.26,27.15,548.65,34.55,197.18,196.64,365.77,392.3,408.07,127.66,27.59,268.93,7.08,382.35,71.84,111.61,63.73,167.31,197.17,176.54,325.35,9.24,128.19-19.84,255.55-38.18,382.76-13.57,94.13-20.32,194.77,22.01,279.93,25.72,51.73,67.94,94.01,92.43,146.33,60.23,128.68,.12,279.89-69.4,403.8-25.17,44.86-52.89,90.35-94.99,119.89-44.03,30.89-98.84,40.96-151.46,52.1-257.79,54.58-521.64,165-668,384.12-116.94,175.08-154.33,411.39-325.93,533.39"/></g></g></svg>